<?xml version="1.0" encoding="utf-8"?>
<!-- Generator: Adobe Illustrator 19.2.1, SVG Export Plug-In . SVG Version: 6.00 Build 0)  -->
<svg version="1.1" id="Layer_1" xmlns="http://www.w3.org/2000/svg" xmlns:xlink="http://www.w3.org/1999/xlink" x="0px" y="0px"
	 viewBox="0 0 619.3 542" style="enable-background:new 0 0 619.3 542;" xml:space="preserve">
<style type="text/css">
	.st0{fill:none;stroke:#231F20;stroke-width:24;}
	.st1{fill:#FFFFFF;}
</style>
<g>
	<g>
		<path class="st0" d="M598.3,249.1c-1.2-8.1-1.6-16.6-1.8-24.7c-0.3-9.3-13-10.2-16.8-3c-7.6,14.1-26.2,17.8-32.9,33
			c-2.9,6.5,4.3,11.5,9.9,8.3c4-2.3,8.6-4.6,13.2-7.1c-13.5,35.3-21.4,72.8-39.9,106.3c-2.3,4.1,4.2,7,6.5,3.1
			c18.9-31.9,33.9-67.7,46-103.3c1.8,4.5,4.7,8.5,9.5,11.2c3.1,1.7,6.9-0.7,7.5-3.9C601,262.4,599.3,255.7,598.3,249.1z"/>
		<path class="st0" d="M336,393.3c-1-9.8-1.9-17-2.5-26.9c5.2-1.1,11-2.5,13.8-3c1.6-0.3,0.1-0.1-0.4-4.1
			c-0.5-3.9-0.1-11.9-1.6-11.6c-9.2,2-26.6,4.7-37.5,7.4c-1.5,0.4-1,4.4-0.4,8.3c0.5,3.9,2,9.6,1.9,8.1c-0.1-0.6,10.9-4.1,13.7-4.7
			c1,10.4,3.5,19.3,4.2,29c0.8,9-1.1,19.7-0.2,28.8c0.2,1.7,2.7-0.2,5.8-0.5c3.2-0.3,6.5-0.2,6.3-1.9
			C337.6,408.7,336.7,399.1,336,393.3z"/>
		<path class="st0" d="M383,422.9c3.1-0.3,4.7-1.3,4.5-3.1c-1.7-16.3-3.3-33.8-4.2-43.9c0.1,0,0.2,0,0.4-0.1c0.2,0,0.3-0.1,0.3-0.1
			c1-0.3,1.4-1.3,1.2-3.2c0-0.5-0.1-1-0.2-1.6c-0.6-2.9-1.5-4.8-2.6-5.7c-0.3-2.7-0.6-7.2-1-13.6c-0.1-1.8-1.7-2.6-5-2.3
			c-3.2,0.3-4.7,1.4-4.5,3.2c0.4,4.5,0,2.9,0.6,8.8c-3.6,1.4-8.2,3-13.8,4.7c-0.2-2.6,0.2-2.1-0.4-11.9c-0.1-1.8-1.7-2.6-5-2.3
			c-3.2,0.3-4.7,1.3-4.5,3.1c1.1,11.1,2.1,22.3,3,33.4c0.8,10.2,2.1,24.7,3.1,34.6c0.2,1.8,1.8,2.6,5,2.3c3.1-0.3,4.6-1.3,4.5-3.2
			l-1.9-21.3c-0.7-5.7-2.2-11-2.7-16.9c5-1.9,9.6-3.6,13.7-4.9c0.3,3.3,1.7,9.1,2.5,18.2c0.6,7.9,1.6,18.6,2,23.2
			C378.2,422.4,379.8,423.2,383,422.9z"/>
		<path class="st0" d="M421.6,399c-0.2,0-0.4,0.1-0.7,0.3l-3.9,2.9c-0.9,0.7-2.2,1.6-3.8,2.7c-4,2.7-7,4-9,4
			c-3.6-0.1-5.8-3.2-6.4-9.5c-0.1-1.4-0.4-3.8-0.9-7c-0.4-3-1.6-12.3-1.7-14c9.2-3.6,17.3-6.4,23.7-8.3c1-0.3,1.4-1.6,1.2-3.8
			c-0.1-0.8-0.3-1.6-0.5-2.5c-1.1-3.8-2.2-5.4-3.6-4.8c-7.5,3.3-14.5,5.9-21,8l0.1-5.1c0-1.6,0.2-3.4,0.3-5.1
			c8.6-3.4,16.5-6.2,23.9-8.5c0.9-0.3,1.3-1.6,1.2-3.8c-0.1-0.8-0.3-1.7-0.5-2.5c-1-3.8-2.3-5.4-3.7-4.8c-8.7,3.7-16.7,6.7-24.1,8.9
			c-3.6,0.2-5.4,1.3-5.5,3.3c-0.9,13.6,0,32.4,1.2,42.4c0.6,4.5,1.3,9.2,2.3,14c1.8,9.7,6.2,14.6,13,14.6c3.8,0,8.8-1.9,15-5.8
			c3.6-2.3,6.5-4,8.3-5.1c0.6-0.4,0.8-1.1,0.8-2.1c-0.1-1.1-0.6-2.5-1.6-4.4C424.1,400.3,422.8,398.9,421.6,399z"/>
		<path class="st0" d="M455.5,363.7c6.8-4.9,10.8-2.5,10.2-8.6c-0.1-1-0.3-2-0.6-3c-1.6-6-5.9-17.3-11.4-18.2
			c-3.2-0.5-6.5-0.6-9.9-0.3c-2.5,0.2-5.2,0.7-7.9,1.4c-7.2,1.8-10.7,4.4-10.3,7.9c0.3,2.6,1.4,4.4,3.3,5.5
			c-0.2,9.1,0.9,25.5,1.6,33.6c1,11.4,2.9,21.9,5.6,31.5c0.4,1.4,1.6,1.9,3.8,1.7c0.5,0,1.1-0.1,1.6-0.2c3.1-0.6,4.4-1.9,3.9-3.8
			c-3-10.2-5-20.6-6-31.2c10.7-0.2,16.8,2.2,18.3,7.2c0.4,1.6,0.7,3.3,0.9,5.3c0.4,4.6,0.1,10.3-1,17c0,0.3,0,0.5,0,0.8
			c0.1,1.5,1.5,2.4,4.1,2.6c0.8,0.1,1.4,0.1,2,0.1c1.7-0.2,2.7-0.9,3-2.3c1.1-7.4,1.4-15.1,1.1-23
			C467.5,380.2,462.8,366.9,455.5,363.7z M437.9,360.2c-0.2-4.9-0.2-9.5,0.2-13.8c4-1.1,7.5-1.6,10.6-1.6s4.9,0.9,5.4,2.9
			C455.1,351.6,449.7,355.8,437.9,360.2z"/>
		<path class="st0" d="M509.7,393.8c-1.5-2.8-2.8-4.2-4-4.1c-0.2,0-0.5,0.1-0.6,0.3l-3.9,2.9c-0.9,0.6-2.2,1.6-3.8,2.7
			c-4,2.7-7,4-9,4c-3.6-0.1-5.8-3.2-6.4-9.5c-0.1-1.4-0.4-3.8-0.9-7c-0.4-3-1.7-16.1-1.8-17.8c9.1-3.6,16.9-6.4,23.4-8.3
			c1-0.3,1.3-1.6,1.2-3.8c0-0.8-0.2-1.7-0.5-2.5c-1-3.8-2.3-5.4-3.6-4.8c-7.5,3.2-14.5,5.9-21,8l0.1-5.1c0-1.6,0.2-3.4,0.3-5.1
			c8.6-3.4,16.6-6.3,23.9-8.5c1-0.3,1.4-1.6,1.2-3.8c-0.1-0.8-0.2-1.7-0.5-2.5c-1-3.8-2.3-5.4-3.7-4.8c-8.7,3.7-16.7,6.7-24.1,8.9
			c-3.5,0.1-5.3,1.2-5.5,3.2c-0.8,13.6,0.4,36.2,1.6,46.2c0.6,4.5,1.3,9.2,2.3,14c1.8,9.7,6.2,14.6,13.1,14.7c3.7,0,8.8-1.9,15-5.9
			c3.7-2.2,6.5-3.9,8.3-5.1c0.6-0.4,0.9-1.1,0.8-2.1C511.2,397.1,510.7,395.7,509.7,393.8z"/>
		<path class="st0" d="M248.8,417.5c12.2,0.3,34.3,1.7,45.2-14.8c3.6-5.5,5.6-61.6,5.3-61.2c-0.3,0.4,88.8-12.1,79.7-15.5
			c-2.2-0.8-15.4-76.2-2-96.1c1.7-2.5,9-5.6,11.2-3.6l2.6,36.3c-0.1,14.8,6.3,65.9,5.2,66.3c-1.5,0.5,78.3-7,80.9-15.3
			c0.3-1-14.3-48.2-16.3-53.9c-7.8-23-11.8-45.6-9.1-49.8c3-4.6,79.1-12.6,78.4-13.7c-1.5-2.5-9.3-94.2-11.2-94.1
			c-1.2,0.1-155,30.7-155.1,31.9c-0.3,2.8-18.4-59.2-18.4-59.2s-62.8,52.3-86.2,75.7c0.3-2.8-0.8-5.5-3.8-6.7s-5-3.3-7.9-4.5
			c-4.4-1.8-8.6-2.1-13,0c-4.2,2-9.2,4.9-10.9,9.8c-1.6,0.9-3.1,2-4.4,3.2c-1.9,1.8-4.3,4.1-6.5,6.7c-0.4,0.4-0.9,0.7-1.2,1.2
			c-0.3,0-0.7-0.1-1.1-0.1c-2.3-1.4-5.3-1.2-7.1,1.7c-1-0.9-2.1-1.7-3.1-2.5c-0.2-0.1-0.3-0.2-0.5-0.4c-0.1-0.1-0.2-0.2-0.4-0.2
			c0,0,0,0-0.1,0c-1-0.6-1.9-1.1-2.7-1.4c0.8-0.4,1.4-1,1.9-1.6c3.7-2.6,4.9-8.9-0.2-12.2c-0.5-0.4-1.1-0.7-1.6-1
			c0.1-0.6,0.1-1.2,0.2-1.8c1.8-2.2,2.4-5.5,0.6-8c-0.2-0.3-0.4-0.6-0.7-0.9c-0.6-6.6-2.3-13.3-2.8-19.8c-1.2-13-1.4-25.8-3.3-38.8
			c-1.7-11.4-3.8-22.9-6.1-34.2c-0.1-2.7-0.4-5.4-1.3-7.9c-1.2-6.8-3.4-14.6-9.7-14.5c-7.1,0.1-10.3,8.7-12,14.2
			c-2.7,8.8-0.2,19.1,1.2,27.9c2.1,13,6.4,25.5,8.4,38.6c0.8,5.2,1.9,10.7,3.4,15.7c0.9,3.5,0.6,7.2,0.7,10.9
			c-1.3-0.1-2.5-0.2-3.8-0.2c-0.3-1.2-0.8-2.5-1.7-4c-3.5-5.8-4.5-13-6.5-19.4c-3.7-11.6-7.9-23.1-13.2-34.1
			c-2.6-5.4-5.6-10.7-8.7-15.8c-2.2-3.7-5.4-6.5-7.7-10.1c-3.2-4.9-5.5-11.5-12.5-9.8c-12.1,2.9-2.1,27.4,0.2,33.9
			c4.2,11.4,10.1,22.1,15.2,33.1c4.2,9,7.5,17.7,12.7,26.1c-2.2,0.3-4.4,0.7-6.6,1.1c-1.8-4.9-4.4-9.2-7.4-14.2
			c-5.7-9.3-9.7-19.5-15.2-29c-4.6-8-12.1-14.3-18.3-21.1c-4.4-4.8-9.3-8.6-14.6-12.3c-2.9-1.9-8.2-4.6-11.2-1.3
			c-4.2,4.8-0.4,13,1.4,18.1C81.4,77,89.2,88.1,97.5,98.7c-1.1-0.8-2.3-1.7-3.4-2.5C85.7,90.4,78.2,84,70.4,77.3
			c-4.2-3.6-9.3-5.1-12.7,0.4c-2.4,3.8-0.3,12.2,1.4,15.8c3.3,7.4,8.7,14.8,15.3,19.5c4.1,2.9,7.7,6.6,11.2,10.4
			c4.2,7.2,8.7,14.4,15.1,19.1c0.7,0.5,1.4,0.9,2.1,1.1c-1.3,1.7-1.8,3.5-1.8,5.3c-17.8,1.9-33.7,5.9-43.9,12.4
			c-5.3,3.4-9.6,16.3-11.2,22.4c-8.8,33.7-29,76.7-21.4,139.5c2.6,21.2,12.6,65.5,22.9,84.1c4.2,7.6,19.9,17.7,28.2,20.5
			c16,5.5,51,5.2,67.7,2.2c17.7-3.2,58.9-29.9,67.6-38.2C210.8,391.9,238.7,417.3,248.8,417.5z M224.7,168.4c1-0.4,1.9-0.8,2.7-1.2
			c1.1,0,2.3-0.2,3.5-0.7c4-2,8-3.2,12.4-3.3c2.3-0.1,4.3-1,6.2-2.3c0.3,0,0.5-0.1,0.8-0.1c0,0.1,0,0.2,0,0.3
			c0.9,9.8,46,91.6,32.4,132.2c-0.9,2.8-6.3,7.1-9.2,7.4c-2.9,0.3-8.7-3.2-10.4-5.6c-16.6-23-13.6-75.8-15.7-79.9
			c-0.6-1.1-34-1.7-34-1.7s1.1-20.2-0.7-33.7c0.9-0.3,1.7-0.8,2.5-1.7C217.8,175.1,221,170,224.7,168.4z M145.8,337
			c-7.4,7.3-20.5,12.3-32.5,12.3c-5.4,0-18.4-1.2-22.8-11.8c-10.1-24.7-15.9-62.8,1-88.5c4.7-7.2,18.8-14.9,33.3-14.9
			c5.5,0,10.4,1.1,14.7,3.3c13.3,7,19.6,21.8,21.1,29.5c0.2,1,0.5,2.3,0.8,3.6C164.5,283.9,170.9,312,145.8,337z"/>
		<path class="st0" d="M220.8,489.4c-1.2-1.7-2.5-3.2-4-4.4c-1.5-1.2-3.1-2.2-4.6-3.2c-1.6-1-3.1-1.8-4.6-2.7c-1.5-0.9-2.8-1.9-4-3
			s-2.2-2.4-2.9-3.9s-1-3.3-1-5.5c0-2.8,0.2-4.8,0.7-6.1c0.5-1.3,1-2.3,1.6-3.1c0.6-0.6,1.5-1.1,2.5-1.3c1.1-0.3,2.4-0.5,3.9-0.5
			c1.9,0,3.9,0.4,6.1,1.1c2.2,0.7,4.2,1.6,6.2,2.6l1.6-9.2c-1.8-0.6-3.7-1-5.6-1.4c-1.9-0.4-3.9-0.5-6.1-0.5c-2.7,0-5.1,0.6-7.1,1.9
			c-2.1,1.3-3.9,2.8-5.3,4.8c-1.4,1.9-2.5,4.1-3.3,6.5s-1.2,4.8-1.2,7.2c0,3.5,0.3,6.4,1.1,8.7c0.7,2.4,1.7,4.4,2.8,6.1
			c1.2,1.7,2.5,3.1,4,4.2c1.5,1.2,3,2.2,4.6,3.1s3.1,1.8,4.6,2.7c1.5,0.9,2.8,1.9,4,3.1s2.1,2.6,2.8,4.2s1.1,3.7,1.1,6
			c0,1.8-0.1,3.4-0.3,4.6c-0.2,1.3-0.4,2.4-0.7,3.2c-0.3,0.9-0.6,1.5-1,2s-0.8,1-1.2,1.3c-0.8,0.7-1.8,1.2-3,1.7s-2.6,0.7-4.3,0.7
			c-1.2,0-2.5-0.2-3.8-0.7s-2.6-1-3.8-1.8c-1.2-0.7-2.4-1.5-3.4-2.3c-1.1-0.8-2-1.6-2.8-2.4l-2.6,9.1c2.1,1.7,4.3,3.1,6.7,4.1
			s5.1,1.5,8.1,1.5c2.8,0,5.5-0.7,7.7-2c2.2-1.4,4.2-3.2,5.7-5.4c1.6-2.2,2.7-4.7,3.5-7.5s1.2-5.7,1.2-8.6c0-3.4-0.4-6.3-1.1-8.8
			C222.9,493.2,221.9,491.2,220.8,489.4z"/>
		<polygon class="st0" points="242,488.7 260.1,488.1 260.5,483.1 242,482.8 242,455.3 261.7,455 262.4,449.4 235,449.4 235,527.4 
			263.6,527.4 263.9,521.8 242,520.9 		"/>
		<path class="st0" d="M309.5,520.8c-1.6-1.6-3-3.9-4.6-6.7c-1.5-2.7-3-6-4.5-9.6s-3-7.4-4.6-11.4c1.5-0.9,2.9-1.9,4.3-3.3
			c1.4-1.3,2.6-2.9,3.6-4.8s1.8-4,2.4-6.5s0.9-5.4,0.9-8.6c0-3.3-0.3-6.3-1.1-8.9c-0.7-2.6-1.9-4.9-3.4-6.7
			c-1.5-1.8-3.4-3.2-5.7-4.2c-2.3-1-5-1.4-8.1-1.4c-2.6,0-5,0.1-7.7,0.2c-2.7,0.2-5.2,0.4-7.2,0.6v77.9h7v-33h7.6l3,7.8
			c2,5.3,3.7,9.6,5,12.9c1.4,3.3,2.6,5.9,3.8,7.8c1.2,1.9,2.4,3.2,3.6,3.8c1.3,0.7,2.7,1.1,4.4,1.1c1.2,0,2.4-0.1,3.6-0.4
			c1.2-0.3,2-0.6,3-1v-3h-0.6C312.6,523.4,311,522.4,309.5,520.8z M291.3,487.8c-2,0.6-4.7,0.6-8,0.6H281v-34c1-0.2,2-0.3,2.8-0.4
			c0.7-0.1,1.6-0.1,2.6-0.1c2,0,3.8,0.3,5.4,0.9s2.9,1.6,4,2.9s1.9,3,2.6,5.1c0.6,2.1,0.9,4.6,0.9,7.6c0,2.3-0.1,4.4-0.2,6.1
			c-0.2,1.7-0.4,3.1-0.7,4.3c-0.3,1.2-0.6,2.2-1,2.9c-0.4,0.8-0.9,1.3-1.4,1.7C294.9,486.5,293.3,487.2,291.3,487.8z"/>
		<rect x="322" y="449.4" class="st0" width="7" height="78"/>
		<polygon class="st0" points="349,488.7 367.1,488.1 367.5,483.1 349,482.8 349,455.3 368.8,455 369.5,449.4 342,449.4 342,527.4 
			370.6,527.4 371,521.8 349,520.9 		"/>
		<path class="st0" d="M406.2,489.4c-1.2-1.7-2.6-3.2-4-4.4c-1.5-1.2-3-2.2-4.6-3.2s-3.1-1.8-4.6-2.7c-1.5-0.9-2.8-1.9-4-3
			s-2.1-2.4-2.8-3.9c-0.7-1.5-1.1-3.3-1.1-5.5c0-2.8,0.2-4.8,0.7-6.1c0.4-1.3,1-2.3,1.6-3.1c0.6-0.6,1.4-1.1,2.5-1.3
			c1.1-0.3,2.4-0.5,3.9-0.5c1.9,0,3.9,0.4,6,1.1c2.2,0.7,4.2,1.6,6.3,2.6l1.6-9.2c-1.9-0.6-3.8-1-5.7-1.4c-1.9-0.4-3.9-0.5-6-0.5
			c-2.7,0-5.1,0.6-7.2,1.9s-3.9,2.8-5.3,4.8c-1.5,1.9-2.6,4.1-3.3,6.5c-0.8,2.4-1.2,4.8-1.2,7.2c0,3.5,0.3,6.4,1,8.7
			c0.7,2.4,1.7,4.4,2.9,6.1c1.2,1.7,2.5,3.1,4.1,4.2c1.5,1.2,3,2.2,4.5,3.1c1.6,0.9,3.1,1.8,4.6,2.7c1.5,0.9,2.9,1.9,4,3.1
			c1.2,1.2,2.1,2.6,2.9,4.2c0.7,1.6,1,3.7,1,6c0,1.8-0.1,3.4-0.3,4.6c-0.1,1.3-0.4,2.4-0.7,3.2c-0.3,0.9-0.6,1.5-1,2s-0.8,1-1.2,1.3
			c-0.7,0.7-1.7,1.2-2.9,1.7c-1.2,0.5-2.7,0.7-4.3,0.7c-1.3,0-2.5-0.2-3.8-0.7s-2.5-1-3.8-1.8c-1.2-0.7-2.4-1.5-3.5-2.3
			s-2-1.6-2.8-2.4l-2.6,9.1c2.1,1.7,4.3,3.1,6.7,4.1c2.4,1,5.1,1.5,8.1,1.5c2.9,0,5.5-0.7,7.7-2c2.2-1.4,4.1-3.2,5.7-5.4
			c1.5-2.2,2.7-4.7,3.5-7.5s1.2-5.7,1.2-8.6c0-3.4-0.3-6.3-1.1-8.8C408.3,493.2,407.4,491.2,406.2,489.4z"/>
	</g>
	<g>
		<path class="st1" d="M598.3,249.1c-1.2-8.1-1.6-16.6-1.8-24.7c-0.3-9.3-13-10.2-16.8-3c-7.6,14.1-26.2,17.8-32.9,33
			c-2.9,6.5,4.3,11.5,9.9,8.3c4-2.3,8.6-4.6,13.2-7.1c-13.5,35.3-21.4,72.8-39.9,106.3c-2.3,4.1,4.2,7,6.5,3.1
			c18.9-31.9,33.9-67.7,46-103.3c1.8,4.5,4.7,8.5,9.5,11.2c3.1,1.7,6.9-0.7,7.5-3.9C601,262.4,599.3,255.7,598.3,249.1z"/>
		<path class="st1" d="M336,393.3c-1-9.8-1.9-17-2.5-26.9c5.2-1.1,11-2.5,13.8-3c1.6-0.3,0.1-0.1-0.4-4.1
			c-0.5-3.9-0.1-11.9-1.6-11.6c-9.2,2-26.6,4.7-37.5,7.4c-1.5,0.4-1,4.4-0.4,8.3c0.5,3.9,2,9.6,1.9,8.1c-0.1-0.6,10.9-4.1,13.7-4.7
			c1,10.4,3.5,19.3,4.2,29c0.8,9-1.1,19.7-0.2,28.8c0.2,1.7,2.7-0.2,5.8-0.5c3.2-0.3,6.5-0.2,6.3-1.9
			C337.6,408.7,336.7,399.1,336,393.3z"/>
		<path class="st1" d="M383,422.9c3.1-0.3,4.7-1.3,4.5-3.1c-1.7-16.3-3.3-33.8-4.2-43.9c0.1,0,0.2,0,0.4-0.1c0.2,0,0.3-0.1,0.3-0.1
			c1-0.3,1.4-1.3,1.2-3.2c0-0.5-0.1-1-0.2-1.6c-0.6-2.9-1.5-4.8-2.6-5.7c-0.3-2.7-0.6-7.2-1-13.6c-0.1-1.8-1.7-2.6-5-2.3
			c-3.2,0.3-4.7,1.4-4.5,3.2c0.4,4.5,0,2.9,0.6,8.8c-3.6,1.4-8.2,3-13.8,4.7c-0.2-2.6,0.2-2.1-0.4-11.9c-0.1-1.8-1.7-2.6-5-2.3
			c-3.2,0.3-4.7,1.3-4.5,3.1c1.1,11.1,2.1,22.3,3,33.4c0.8,10.2,2.1,24.7,3.1,34.6c0.2,1.8,1.8,2.6,5,2.3c3.1-0.3,4.6-1.3,4.5-3.2
			l-1.9-21.3c-0.7-5.7-2.2-11-2.7-16.9c5-1.9,9.6-3.6,13.7-4.9c0.3,3.3,1.7,9.1,2.5,18.2c0.6,7.9,1.6,18.6,2,23.2
			C378.2,422.4,379.8,423.2,383,422.9z"/>
		<path class="st1" d="M421.6,399c-0.2,0-0.4,0.1-0.7,0.3l-3.9,2.9c-0.9,0.7-2.2,1.6-3.8,2.7c-4,2.7-7,4-9,4
			c-3.6-0.1-5.8-3.2-6.4-9.5c-0.1-1.4-0.4-3.8-0.9-7c-0.4-3-1.6-12.3-1.7-14c9.2-3.6,17.3-6.4,23.7-8.3c1-0.3,1.4-1.6,1.2-3.8
			c-0.1-0.8-0.3-1.6-0.5-2.5c-1.1-3.8-2.2-5.4-3.6-4.8c-7.5,3.3-14.5,5.9-21,8l0.1-5.1c0-1.6,0.2-3.4,0.3-5.1
			c8.6-3.4,16.5-6.2,23.9-8.5c0.9-0.3,1.3-1.6,1.2-3.8c-0.1-0.8-0.3-1.7-0.5-2.5c-1-3.8-2.3-5.4-3.7-4.8c-8.7,3.7-16.7,6.7-24.1,8.9
			c-3.6,0.2-5.4,1.3-5.5,3.3c-0.9,13.6,0,32.4,1.2,42.4c0.6,4.5,1.3,9.2,2.3,14c1.8,9.7,6.2,14.6,13,14.6c3.8,0,8.8-1.9,15-5.8
			c3.6-2.3,6.5-4,8.3-5.1c0.6-0.4,0.8-1.1,0.8-2.1c-0.1-1.1-0.6-2.5-1.6-4.4C424.1,400.3,422.8,398.9,421.6,399z"/>
		<path class="st1" d="M455.5,363.7c6.8-4.9,10.8-2.5,10.2-8.6c-0.1-1-0.3-2-0.6-3c-1.6-6-5.9-17.3-11.4-18.2
			c-3.2-0.5-6.5-0.6-9.9-0.3c-2.5,0.2-5.2,0.7-7.9,1.4c-7.2,1.8-10.7,4.4-10.3,7.9c0.3,2.6,1.4,4.4,3.3,5.5
			c-0.2,9.1,0.9,25.5,1.6,33.6c1,11.4,2.9,21.9,5.6,31.5c0.4,1.4,1.6,1.9,3.8,1.7c0.5,0,1.1-0.1,1.6-0.2c3.1-0.6,4.4-1.9,3.9-3.8
			c-3-10.2-5-20.6-6-31.2c10.7-0.2,16.8,2.2,18.3,7.2c0.4,1.6,0.7,3.3,0.9,5.3c0.4,4.6,0.1,10.3-1,17c0,0.3,0,0.5,0,0.8
			c0.1,1.5,1.5,2.4,4.1,2.6c0.8,0.1,1.4,0.1,2,0.1c1.7-0.2,2.7-0.9,3-2.3c1.1-7.4,1.4-15.1,1.1-23
			C467.5,380.2,462.8,366.9,455.5,363.7z M437.9,360.2c-0.2-4.9-0.2-9.5,0.2-13.8c4-1.1,7.5-1.6,10.6-1.6s4.9,0.9,5.4,2.9
			C455.1,351.6,449.7,355.8,437.9,360.2z"/>
		<path class="st1" d="M509.7,393.8c-1.5-2.8-2.8-4.2-4-4.1c-0.2,0-0.5,0.1-0.6,0.3l-3.9,2.9c-0.9,0.6-2.2,1.6-3.8,2.7
			c-4,2.7-7,4-9,4c-3.6-0.1-5.8-3.2-6.4-9.5c-0.1-1.4-0.4-3.8-0.9-7c-0.4-3-1.7-16.1-1.8-17.8c9.1-3.6,16.9-6.4,23.4-8.3
			c1-0.3,1.3-1.6,1.2-3.8c0-0.8-0.2-1.7-0.5-2.5c-1-3.8-2.3-5.4-3.6-4.8c-7.5,3.2-14.5,5.9-21,8l0.1-5.1c0-1.6,0.2-3.4,0.3-5.1
			c8.6-3.4,16.6-6.3,23.9-8.5c1-0.3,1.4-1.6,1.2-3.8c-0.1-0.8-0.2-1.7-0.5-2.5c-1-3.8-2.3-5.4-3.7-4.8c-8.7,3.7-16.7,6.7-24.1,8.9
			c-3.5,0.1-5.3,1.2-5.5,3.2c-0.8,13.6,0.4,36.2,1.6,46.2c0.6,4.5,1.3,9.2,2.3,14c1.8,9.7,6.2,14.6,13.1,14.7c3.7,0,8.8-1.9,15-5.9
			c3.7-2.2,6.5-3.9,8.3-5.1c0.6-0.4,0.9-1.1,0.8-2.1C511.2,397.1,510.7,395.7,509.7,393.8z"/>
		<path class="st1" d="M248.8,417.5c12.2,0.3,34.3,1.7,45.2-14.8c3.6-5.5,5.6-61.6,5.3-61.2c-0.3,0.4,88.8-12.1,79.7-15.5
			c-2.2-0.8-15.4-76.2-2-96.1c1.7-2.5,9-5.6,11.2-3.6l2.6,36.3c-0.1,14.8,6.3,65.9,5.2,66.3c-1.5,0.5,78.3-7,80.9-15.3
			c0.3-1-14.3-48.2-16.3-53.9c-7.8-23-11.8-45.6-9.1-49.8c3-4.6,79.1-12.6,78.4-13.7c-1.5-2.5-9.3-94.2-11.2-94.1
			c-1.2,0.1-155,30.7-155.1,31.9c-0.3,2.8-18.4-59.2-18.4-59.2s-62.8,52.3-86.2,75.7c0.3-2.8-0.8-5.5-3.8-6.7s-5-3.3-7.9-4.5
			c-4.4-1.8-8.6-2.1-13,0c-4.2,2-9.2,4.9-10.9,9.8c-1.6,0.9-3.1,2-4.4,3.2c-1.9,1.8-4.3,4.1-6.5,6.7c-0.4,0.4-0.9,0.7-1.2,1.2
			c-0.3,0-0.7-0.1-1.1-0.1c-2.3-1.4-5.3-1.2-7.1,1.7c-1-0.9-2.1-1.7-3.1-2.5c-0.2-0.1-0.3-0.2-0.5-0.4c-0.1-0.1-0.2-0.2-0.4-0.2
			c0,0,0,0-0.1,0c-1-0.6-1.9-1.1-2.7-1.4c0.8-0.4,1.4-1,1.9-1.6c3.7-2.6,4.9-8.9-0.2-12.2c-0.5-0.4-1.1-0.7-1.6-1
			c0.1-0.6,0.1-1.2,0.2-1.8c1.8-2.2,2.4-5.5,0.6-8c-0.2-0.3-0.4-0.6-0.7-0.9c-0.6-6.6-2.3-13.3-2.8-19.8c-1.2-13-1.4-25.8-3.3-38.8
			c-1.7-11.4-3.8-22.9-6.1-34.2c-0.1-2.7-0.4-5.4-1.3-7.9c-1.2-6.8-3.4-14.6-9.7-14.5c-7.1,0.1-10.3,8.7-12,14.2
			c-2.7,8.8-0.2,19.1,1.2,27.9c2.1,13,6.4,25.5,8.4,38.6c0.8,5.2,1.9,10.7,3.4,15.7c0.9,3.5,0.6,7.2,0.7,10.9
			c-1.3-0.1-2.5-0.2-3.8-0.2c-0.3-1.2-0.8-2.5-1.7-4c-3.5-5.8-4.5-13-6.5-19.4c-3.7-11.6-7.9-23.1-13.2-34.1
			c-2.6-5.4-5.6-10.7-8.7-15.8c-2.2-3.7-5.4-6.5-7.7-10.1c-3.2-4.9-5.5-11.5-12.5-9.8c-12.1,2.9-2.1,27.4,0.2,33.9
			c4.2,11.4,10.1,22.1,15.2,33.1c4.2,9,7.5,17.7,12.7,26.1c-2.2,0.3-4.4,0.7-6.6,1.1c-1.8-4.9-4.4-9.2-7.4-14.2
			c-5.7-9.3-9.7-19.5-15.2-29c-4.6-8-12.1-14.3-18.3-21.1c-4.4-4.8-9.3-8.6-14.6-12.3c-2.9-1.9-8.2-4.6-11.2-1.3
			c-4.2,4.8-0.4,13,1.4,18.1C81.4,77,89.2,88.1,97.5,98.7c-1.1-0.8-2.3-1.7-3.4-2.5C85.7,90.4,78.2,84,70.4,77.3
			c-4.2-3.6-9.3-5.1-12.7,0.4c-2.4,3.8-0.3,12.2,1.4,15.8c3.3,7.4,8.7,14.8,15.3,19.5c4.1,2.9,7.7,6.6,11.2,10.4
			c4.2,7.2,8.7,14.4,15.1,19.1c0.7,0.5,1.4,0.9,2.1,1.1c-1.3,1.7-1.8,3.5-1.8,5.3c-17.8,1.9-33.7,5.9-43.9,12.4
			c-5.3,3.4-9.6,16.3-11.2,22.4c-8.8,33.7-29,76.7-21.4,139.5c2.6,21.2,12.6,65.5,22.9,84.1c4.2,7.6,19.9,17.7,28.2,20.5
			c16,5.5,51,5.2,67.7,2.2c17.7-3.2,58.9-29.9,67.6-38.2C210.8,391.9,238.7,417.3,248.8,417.5z M224.7,168.4c1-0.4,1.9-0.8,2.7-1.2
			c1.1,0,2.3-0.2,3.5-0.7c4-2,8-3.2,12.4-3.3c2.3-0.1,4.3-1,6.2-2.3c0.3,0,0.5-0.1,0.8-0.1c0,0.1,0,0.2,0,0.3
			c0.9,9.8,46,91.6,32.4,132.2c-0.9,2.8-6.3,7.1-9.2,7.4c-2.9,0.3-8.7-3.2-10.4-5.6c-16.6-23-13.6-75.8-15.7-79.9
			c-0.6-1.1-34-1.7-34-1.7s1.1-20.2-0.7-33.7c0.9-0.3,1.7-0.8,2.5-1.7C217.8,175.1,221,170,224.7,168.4z M145.8,337
			c-7.4,7.3-20.5,12.3-32.5,12.3c-5.4,0-18.4-1.2-22.8-11.8c-10.1-24.7-15.9-62.8,1-88.5c4.7-7.2,18.8-14.9,33.3-14.9
			c5.5,0,10.4,1.1,14.7,3.3c13.3,7,19.6,21.8,21.1,29.5c0.2,1,0.5,2.3,0.8,3.6C164.5,283.9,170.9,312,145.8,337z"/>
		<path class="st1" d="M220.8,489.4c-1.2-1.7-2.5-3.2-4-4.4c-1.5-1.2-3.1-2.2-4.6-3.2c-1.6-1-3.1-1.8-4.6-2.7c-1.5-0.9-2.8-1.9-4-3
			s-2.2-2.4-2.9-3.9s-1-3.3-1-5.5c0-2.8,0.2-4.8,0.7-6.1c0.5-1.3,1-2.3,1.6-3.1c0.6-0.6,1.5-1.1,2.5-1.3c1.1-0.3,2.4-0.5,3.9-0.5
			c1.9,0,3.9,0.4,6.1,1.1c2.2,0.7,4.2,1.6,6.2,2.6l1.6-9.2c-1.8-0.6-3.7-1-5.6-1.4c-1.9-0.4-3.9-0.5-6.1-0.5c-2.7,0-5.1,0.6-7.1,1.9
			c-2.1,1.3-3.9,2.8-5.3,4.8c-1.4,1.9-2.5,4.1-3.3,6.5s-1.2,4.8-1.2,7.2c0,3.5,0.3,6.4,1.1,8.7c0.7,2.4,1.7,4.4,2.8,6.1
			c1.2,1.7,2.5,3.1,4,4.2c1.5,1.2,3,2.2,4.6,3.1s3.1,1.8,4.6,2.7c1.5,0.9,2.8,1.9,4,3.1s2.1,2.6,2.8,4.2s1.1,3.7,1.1,6
			c0,1.8-0.1,3.4-0.3,4.6c-0.2,1.3-0.4,2.4-0.7,3.2c-0.3,0.9-0.6,1.5-1,2s-0.8,1-1.2,1.3c-0.8,0.7-1.8,1.2-3,1.7s-2.6,0.7-4.3,0.7
			c-1.2,0-2.5-0.2-3.8-0.7s-2.6-1-3.8-1.8c-1.2-0.7-2.4-1.5-3.4-2.3c-1.1-0.8-2-1.6-2.8-2.4l-2.6,9.1c2.1,1.7,4.3,3.1,6.7,4.1
			s5.1,1.5,8.1,1.5c2.8,0,5.5-0.7,7.7-2c2.2-1.4,4.2-3.2,5.7-5.4c1.6-2.2,2.7-4.7,3.5-7.5s1.2-5.7,1.2-8.6c0-3.4-0.4-6.3-1.1-8.8
			C222.9,493.2,221.9,491.2,220.8,489.4z"/>
		<polygon class="st1" points="242,488.7 260.1,488.1 260.5,483.1 242,482.8 242,455.3 261.7,455 262.4,449.4 235,449.4 235,527.4 
			263.6,527.4 263.9,521.8 242,520.9 		"/>
		<path class="st1" d="M309.5,520.8c-1.6-1.6-3-3.9-4.6-6.7c-1.5-2.7-3-6-4.5-9.6s-3-7.4-4.6-11.4c1.5-0.9,2.9-1.9,4.3-3.3
			c1.4-1.3,2.6-2.9,3.6-4.8s1.8-4,2.4-6.5s0.9-5.4,0.9-8.6c0-3.3-0.3-6.3-1.1-8.9c-0.7-2.6-1.9-4.9-3.4-6.7
			c-1.5-1.8-3.4-3.2-5.7-4.2c-2.3-1-5-1.4-8.1-1.4c-2.6,0-5,0.1-7.7,0.2c-2.7,0.2-5.2,0.4-7.2,0.6v77.9h7v-33h7.6l3,7.8
			c2,5.3,3.7,9.6,5,12.9c1.4,3.3,2.6,5.9,3.8,7.8c1.2,1.9,2.4,3.2,3.6,3.8c1.3,0.7,2.7,1.1,4.4,1.1c1.2,0,2.4-0.1,3.6-0.4
			c1.2-0.3,2-0.6,3-1v-3h-0.6C312.6,523.4,311,522.4,309.5,520.8z M291.3,487.8c-2,0.6-4.7,0.6-8,0.6H281v-34c1-0.2,2-0.3,2.8-0.4
			c0.7-0.1,1.6-0.1,2.6-0.1c2,0,3.8,0.3,5.4,0.9s2.9,1.6,4,2.9s1.9,3,2.6,5.1c0.6,2.1,0.9,4.6,0.9,7.6c0,2.3-0.1,4.4-0.2,6.1
			c-0.2,1.7-0.4,3.1-0.7,4.3c-0.3,1.2-0.6,2.2-1,2.9c-0.4,0.8-0.9,1.3-1.4,1.7C294.9,486.5,293.3,487.2,291.3,487.8z"/>
		<rect x="322" y="449.4" class="st1" width="7" height="78"/>
		<polygon class="st1" points="349,488.7 367.1,488.1 367.5,483.1 349,482.8 349,455.3 368.8,455 369.5,449.4 342,449.4 342,527.4 
			370.6,527.4 371,521.8 349,520.9 		"/>
		<path class="st1" d="M406.2,489.4c-1.2-1.7-2.6-3.2-4-4.4c-1.5-1.2-3-2.2-4.6-3.2s-3.1-1.8-4.6-2.7c-1.5-0.9-2.8-1.9-4-3
			s-2.1-2.4-2.8-3.9c-0.7-1.5-1.1-3.3-1.1-5.5c0-2.8,0.2-4.8,0.7-6.1c0.4-1.3,1-2.3,1.6-3.1c0.6-0.6,1.4-1.1,2.5-1.3
			c1.1-0.3,2.4-0.5,3.9-0.5c1.9,0,3.9,0.4,6,1.1c2.2,0.7,4.2,1.6,6.3,2.6l1.6-9.2c-1.9-0.6-3.8-1-5.7-1.4c-1.9-0.4-3.9-0.5-6-0.5
			c-2.7,0-5.1,0.6-7.2,1.9s-3.9,2.8-5.3,4.8c-1.5,1.9-2.6,4.1-3.3,6.5c-0.8,2.4-1.2,4.8-1.2,7.2c0,3.5,0.3,6.4,1,8.7
			c0.7,2.4,1.7,4.4,2.9,6.1c1.2,1.7,2.5,3.1,4.1,4.2c1.5,1.2,3,2.2,4.5,3.1c1.6,0.9,3.1,1.8,4.6,2.7c1.5,0.9,2.9,1.9,4,3.1
			c1.2,1.2,2.1,2.6,2.9,4.2c0.7,1.6,1,3.7,1,6c0,1.8-0.1,3.4-0.3,4.6c-0.1,1.3-0.4,2.4-0.7,3.2c-0.3,0.9-0.6,1.5-1,2s-0.8,1-1.2,1.3
			c-0.7,0.7-1.7,1.2-2.9,1.7c-1.2,0.5-2.7,0.7-4.3,0.7c-1.3,0-2.5-0.2-3.8-0.7s-2.5-1-3.8-1.8c-1.2-0.7-2.4-1.5-3.5-2.3
			s-2-1.6-2.8-2.4l-2.6,9.1c2.1,1.7,4.3,3.1,6.7,4.1c2.4,1,5.1,1.5,8.1,1.5c2.9,0,5.5-0.7,7.7-2c2.2-1.4,4.1-3.2,5.7-5.4
			c1.5-2.2,2.7-4.7,3.5-7.5s1.2-5.7,1.2-8.6c0-3.4-0.3-6.3-1.1-8.8C408.3,493.2,407.4,491.2,406.2,489.4z"/>
	</g>
	<g>
		<path class="st1" d="M598.3,249.1c-1.2-8.1-1.6-16.6-1.8-24.7c-0.3-9.3-13-10.2-16.8-3c-7.6,14.1-26.2,17.8-32.9,33
			c-2.9,6.5,4.3,11.5,9.9,8.3c4-2.3,8.6-4.6,13.2-7.1c-13.5,35.3-21.4,72.8-39.9,106.3c-2.3,4.1,4.2,7,6.5,3.1
			c18.9-31.9,33.9-67.7,46-103.3c1.8,4.5,4.7,8.5,9.5,11.2c3.1,1.7,6.9-0.7,7.5-3.9C601,262.4,599.3,255.7,598.3,249.1z"/>
		<path class="st1" d="M336,393.3c-1-9.8-1.9-17-2.5-26.9c5.2-1.1,11-2.5,13.8-3c1.6-0.3,0.1-0.1-0.4-4.1
			c-0.5-3.9-0.1-11.9-1.6-11.6c-9.2,2-26.6,4.7-37.5,7.4c-1.5,0.4-1,4.4-0.4,8.3c0.5,3.9,2,9.6,1.9,8.1c-0.1-0.6,10.9-4.1,13.7-4.7
			c1,10.4,3.5,19.3,4.2,29c0.8,9-1.1,19.7-0.2,28.8c0.2,1.7,2.7-0.2,5.8-0.5c3.2-0.3,6.5-0.2,6.3-1.9
			C337.6,408.7,336.7,399.1,336,393.3z"/>
		<path class="st1" d="M383,422.9c3.1-0.3,4.7-1.3,4.5-3.1c-1.7-16.3-3.3-33.8-4.2-43.9c0.1,0,0.2,0,0.4-0.1c0.2,0,0.3-0.1,0.3-0.1
			c1-0.3,1.4-1.3,1.2-3.2c0-0.5-0.1-1-0.2-1.6c-0.6-2.9-1.5-4.8-2.6-5.7c-0.3-2.7-0.6-7.2-1-13.6c-0.1-1.8-1.7-2.6-5-2.3
			c-3.2,0.3-4.7,1.4-4.5,3.2c0.4,4.5,0,2.9,0.6,8.8c-3.6,1.4-8.2,3-13.8,4.7c-0.2-2.6,0.2-2.1-0.4-11.9c-0.1-1.8-1.7-2.6-5-2.3
			c-3.2,0.3-4.7,1.3-4.5,3.1c1.1,11.1,2.1,22.3,3,33.4c0.8,10.2,2.1,24.7,3.1,34.6c0.2,1.8,1.8,2.6,5,2.3c3.1-0.3,4.6-1.3,4.5-3.2
			l-1.9-21.3c-0.7-5.7-2.2-11-2.7-16.9c5-1.9,9.6-3.6,13.7-4.9c0.3,3.3,1.7,9.1,2.5,18.2c0.6,7.9,1.6,18.6,2,23.2
			C378.2,422.4,379.8,423.2,383,422.9z"/>
		<path class="st1" d="M421.6,399c-0.2,0-0.4,0.1-0.7,0.3l-3.9,2.9c-0.9,0.7-2.2,1.6-3.8,2.7c-4,2.7-7,4-9,4
			c-3.6-0.1-5.8-3.2-6.4-9.5c-0.1-1.4-0.4-3.8-0.9-7c-0.4-3-1.6-12.3-1.7-14c9.2-3.6,17.3-6.4,23.7-8.3c1-0.3,1.4-1.6,1.2-3.8
			c-0.1-0.8-0.3-1.6-0.5-2.5c-1.1-3.8-2.2-5.4-3.6-4.8c-7.5,3.3-14.5,5.9-21,8l0.1-5.1c0-1.6,0.2-3.4,0.3-5.1
			c8.6-3.4,16.5-6.2,23.9-8.5c0.9-0.3,1.3-1.6,1.2-3.8c-0.1-0.8-0.3-1.7-0.5-2.5c-1-3.8-2.3-5.4-3.7-4.8c-8.7,3.7-16.7,6.7-24.1,8.9
			c-3.6,0.2-5.4,1.3-5.5,3.3c-0.9,13.6,0,32.4,1.2,42.4c0.6,4.5,1.3,9.2,2.3,14c1.8,9.7,6.2,14.6,13,14.6c3.8,0,8.8-1.9,15-5.8
			c3.6-2.3,6.5-4,8.3-5.1c0.6-0.4,0.8-1.1,0.8-2.1c-0.1-1.1-0.6-2.5-1.6-4.4C424.1,400.3,422.8,398.9,421.6,399z"/>
		<path class="st1" d="M455.5,363.7c6.8-4.9,10.8-2.5,10.2-8.6c-0.1-1-0.3-2-0.6-3c-1.6-6-5.9-17.3-11.4-18.2
			c-3.2-0.5-6.5-0.6-9.9-0.3c-2.5,0.2-5.2,0.7-7.9,1.4c-7.2,1.8-10.7,4.4-10.3,7.9c0.3,2.6,1.4,4.4,3.3,5.5
			c-0.2,9.1,0.9,25.5,1.6,33.6c1,11.4,2.9,21.9,5.6,31.5c0.4,1.4,1.6,1.9,3.8,1.7c0.5,0,1.1-0.1,1.6-0.2c3.1-0.6,4.4-1.9,3.9-3.8
			c-3-10.2-5-20.6-6-31.2c10.7-0.2,16.8,2.2,18.3,7.2c0.4,1.6,0.7,3.3,0.9,5.3c0.4,4.6,0.1,10.3-1,17c0,0.3,0,0.5,0,0.8
			c0.1,1.5,1.5,2.4,4.1,2.6c0.8,0.1,1.4,0.1,2,0.1c1.7-0.2,2.7-0.9,3-2.3c1.1-7.4,1.4-15.1,1.1-23
			C467.5,380.2,462.8,366.9,455.5,363.7z M437.9,360.2c-0.2-4.9-0.2-9.5,0.2-13.8c4-1.1,7.5-1.6,10.6-1.6s4.9,0.9,5.4,2.9
			C455.1,351.6,449.7,355.8,437.9,360.2z"/>
		<path class="st1" d="M509.7,393.8c-1.5-2.8-2.8-4.2-4-4.1c-0.2,0-0.5,0.1-0.6,0.3l-3.9,2.9c-0.9,0.6-2.2,1.6-3.8,2.7
			c-4,2.7-7,4-9,4c-3.6-0.1-5.8-3.2-6.4-9.5c-0.1-1.4-0.4-3.8-0.9-7c-0.4-3-1.7-16.1-1.8-17.8c9.1-3.6,16.9-6.4,23.4-8.3
			c1-0.3,1.3-1.6,1.2-3.8c0-0.8-0.2-1.7-0.5-2.5c-1-3.8-2.3-5.4-3.6-4.8c-7.5,3.2-14.5,5.9-21,8l0.1-5.1c0-1.6,0.2-3.4,0.3-5.1
			c8.6-3.4,16.6-6.3,23.9-8.5c1-0.3,1.4-1.6,1.2-3.8c-0.1-0.8-0.2-1.7-0.5-2.5c-1-3.8-2.3-5.4-3.7-4.8c-8.7,3.7-16.7,6.7-24.1,8.9
			c-3.5,0.1-5.3,1.2-5.5,3.2c-0.8,13.6,0.4,36.2,1.6,46.2c0.6,4.5,1.3,9.2,2.3,14c1.8,9.7,6.2,14.6,13.1,14.7c3.7,0,8.8-1.9,15-5.9
			c3.7-2.2,6.5-3.9,8.3-5.1c0.6-0.4,0.9-1.1,0.8-2.1C511.2,397.1,510.7,395.7,509.7,393.8z"/>
		<path class="st1" d="M248.8,417.5c12.2,0.3,34.3,1.7,45.2-14.8c3.6-5.5,5.6-61.6,5.3-61.2c-0.3,0.4,88.8-12.1,79.7-15.5
			c-2.2-0.8-15.4-76.2-2-96.1c1.7-2.5,9-5.6,11.2-3.6l2.6,36.3c-0.1,14.8,6.3,65.9,5.2,66.3c-1.5,0.5,78.3-7,80.9-15.3
			c0.3-1-14.3-48.2-16.3-53.9c-7.8-23-11.8-45.6-9.1-49.8c3-4.6,79.1-12.6,78.4-13.7c-1.5-2.5-9.3-94.2-11.2-94.1
			c-1.2,0.1-155,30.7-155.1,31.9c-0.3,2.8-18.4-59.2-18.4-59.2s-62.8,52.3-86.2,75.7c0.3-2.8-0.8-5.5-3.8-6.7s-5-3.3-7.9-4.5
			c-4.4-1.8-8.6-2.1-13,0c-4.2,2-9.2,4.9-10.9,9.8c-1.6,0.9-3.1,2-4.4,3.2c-1.9,1.8-4.3,4.1-6.5,6.7c-0.4,0.4-0.9,0.7-1.2,1.2
			c-0.3,0-0.7-0.1-1.1-0.1c-2.3-1.4-5.3-1.2-7.1,1.7c-1-0.9-2.1-1.7-3.1-2.5c-0.2-0.1-0.3-0.2-0.5-0.4c-0.1-0.1-0.2-0.2-0.4-0.2
			c0,0,0,0-0.1,0c-1-0.6-1.9-1.1-2.7-1.4c0.8-0.4,1.4-1,1.9-1.6c3.7-2.6,4.9-8.9-0.2-12.2c-0.5-0.4-1.1-0.7-1.6-1
			c0.1-0.6,0.1-1.2,0.2-1.8c1.8-2.2,2.4-5.5,0.6-8c-0.2-0.3-0.4-0.6-0.7-0.9c-0.6-6.6-2.3-13.3-2.8-19.8c-1.2-13-1.4-25.8-3.3-38.8
			c-1.7-11.4-3.8-22.9-6.1-34.2c-0.1-2.7-0.4-5.4-1.3-7.9c-1.2-6.8-3.4-14.6-9.7-14.5c-7.1,0.1-10.3,8.7-12,14.2
			c-2.7,8.8-0.2,19.1,1.2,27.9c2.1,13,6.4,25.5,8.4,38.6c0.8,5.2,1.9,10.7,3.4,15.7c0.9,3.5,0.6,7.2,0.7,10.9
			c-1.3-0.1-2.5-0.2-3.8-0.2c-0.3-1.2-0.8-2.5-1.7-4c-3.5-5.8-4.5-13-6.5-19.4c-3.7-11.6-7.9-23.1-13.2-34.1
			c-2.6-5.4-5.6-10.7-8.7-15.8c-2.2-3.7-5.4-6.5-7.7-10.1c-3.2-4.9-5.5-11.5-12.5-9.8c-12.1,2.9-2.1,27.4,0.2,33.9
			c4.2,11.4,10.1,22.1,15.2,33.1c4.2,9,7.5,17.7,12.7,26.1c-2.2,0.3-4.4,0.7-6.6,1.1c-1.8-4.9-4.4-9.2-7.4-14.2
			c-5.7-9.3-9.7-19.5-15.2-29c-4.6-8-12.1-14.3-18.3-21.1c-4.4-4.8-9.3-8.6-14.6-12.3c-2.9-1.9-8.2-4.6-11.2-1.3
			c-4.2,4.8-0.4,13,1.4,18.1C81.4,77,89.2,88.1,97.5,98.7c-1.1-0.8-2.3-1.7-3.4-2.5C85.7,90.4,78.2,84,70.4,77.3
			c-4.2-3.6-9.3-5.1-12.7,0.4c-2.4,3.8-0.3,12.2,1.4,15.8c3.3,7.4,8.7,14.8,15.3,19.5c4.1,2.9,7.7,6.6,11.2,10.4
			c4.2,7.2,8.7,14.4,15.1,19.1c0.7,0.5,1.4,0.9,2.1,1.1c-1.3,1.7-1.8,3.5-1.8,5.3c-17.8,1.9-33.7,5.9-43.9,12.4
			c-5.3,3.4-9.6,16.3-11.2,22.4c-8.8,33.7-29,76.7-21.4,139.5c2.6,21.2,12.6,65.5,22.9,84.1c4.2,7.6,19.9,17.7,28.2,20.5
			c16,5.5,51,5.2,67.7,2.2c17.7-3.2,58.9-29.9,67.6-38.2C210.8,391.9,238.7,417.3,248.8,417.5z M224.7,168.4c1-0.4,1.9-0.8,2.7-1.2
			c1.1,0,2.3-0.2,3.5-0.7c4-2,8-3.2,12.4-3.3c2.3-0.1,4.3-1,6.2-2.3c0.3,0,0.5-0.1,0.8-0.1c0,0.1,0,0.2,0,0.3
			c0.9,9.8,46,91.6,32.4,132.2c-0.9,2.8-6.3,7.1-9.2,7.4c-2.9,0.3-8.7-3.2-10.4-5.6c-16.6-23-13.6-75.8-15.7-79.9
			c-0.6-1.1-34-1.7-34-1.7s1.1-20.2-0.7-33.7c0.9-0.3,1.7-0.8,2.5-1.7C217.8,175.1,221,170,224.7,168.4z M145.8,337
			c-7.4,7.3-20.5,12.3-32.5,12.3c-5.4,0-18.4-1.2-22.8-11.8c-10.1-24.7-15.9-62.8,1-88.5c4.7-7.2,18.8-14.9,33.3-14.9
			c5.5,0,10.4,1.1,14.7,3.3c13.3,7,19.6,21.8,21.1,29.5c0.2,1,0.5,2.3,0.8,3.6C164.5,283.9,170.9,312,145.8,337z"/>
		<path class="st1" d="M220.8,489.4c-1.2-1.7-2.5-3.2-4-4.4c-1.5-1.2-3.1-2.2-4.6-3.2c-1.6-1-3.1-1.8-4.6-2.7c-1.5-0.9-2.8-1.9-4-3
			s-2.2-2.4-2.9-3.9s-1-3.3-1-5.5c0-2.8,0.2-4.8,0.7-6.1c0.5-1.3,1-2.3,1.6-3.1c0.6-0.6,1.5-1.1,2.5-1.3c1.1-0.3,2.4-0.5,3.9-0.5
			c1.9,0,3.9,0.4,6.1,1.1c2.2,0.7,4.2,1.6,6.2,2.6l1.6-9.2c-1.8-0.6-3.7-1-5.6-1.4c-1.9-0.4-3.9-0.5-6.1-0.5c-2.7,0-5.1,0.6-7.1,1.9
			c-2.1,1.3-3.9,2.8-5.3,4.8c-1.4,1.9-2.5,4.1-3.3,6.5s-1.2,4.8-1.2,7.2c0,3.5,0.3,6.4,1.1,8.7c0.7,2.4,1.7,4.4,2.8,6.1
			c1.2,1.7,2.5,3.1,4,4.2c1.5,1.2,3,2.2,4.6,3.1s3.1,1.8,4.6,2.7c1.5,0.9,2.8,1.9,4,3.1s2.1,2.6,2.8,4.2s1.1,3.7,1.1,6
			c0,1.8-0.1,3.4-0.3,4.6c-0.2,1.3-0.4,2.4-0.7,3.2c-0.3,0.9-0.6,1.5-1,2s-0.8,1-1.2,1.3c-0.8,0.7-1.8,1.2-3,1.7s-2.6,0.7-4.3,0.7
			c-1.2,0-2.5-0.2-3.8-0.7s-2.6-1-3.8-1.8c-1.2-0.7-2.4-1.5-3.4-2.3c-1.1-0.8-2-1.6-2.8-2.4l-2.6,9.1c2.1,1.7,4.3,3.1,6.7,4.1
			s5.1,1.5,8.1,1.5c2.8,0,5.5-0.7,7.7-2c2.2-1.4,4.2-3.2,5.7-5.4c1.6-2.2,2.7-4.7,3.5-7.5s1.2-5.7,1.2-8.6c0-3.4-0.4-6.3-1.1-8.8
			C222.9,493.2,221.9,491.2,220.8,489.4z"/>
		<polygon class="st1" points="242,488.7 260.1,488.1 260.5,483.1 242,482.8 242,455.3 261.7,455 262.4,449.4 235,449.4 235,527.4 
			263.6,527.4 263.9,521.8 242,520.9 		"/>
		<path class="st1" d="M309.5,520.8c-1.6-1.6-3-3.9-4.6-6.7c-1.5-2.7-3-6-4.5-9.6s-3-7.4-4.6-11.4c1.5-0.9,2.9-1.9,4.3-3.3
			c1.4-1.3,2.6-2.9,3.6-4.8s1.8-4,2.4-6.5s0.9-5.4,0.9-8.6c0-3.3-0.3-6.3-1.1-8.9c-0.7-2.6-1.9-4.9-3.4-6.7
			c-1.5-1.8-3.4-3.2-5.7-4.2c-2.3-1-5-1.4-8.1-1.4c-2.6,0-5,0.1-7.7,0.2c-2.7,0.2-5.2,0.4-7.2,0.6v77.9h7v-33h7.6l3,7.8
			c2,5.3,3.7,9.6,5,12.9c1.4,3.3,2.6,5.9,3.8,7.8c1.2,1.9,2.4,3.2,3.6,3.8c1.3,0.7,2.7,1.1,4.4,1.1c1.2,0,2.4-0.1,3.6-0.4
			c1.2-0.3,2-0.6,3-1v-3h-0.6C312.6,523.4,311,522.4,309.5,520.8z M291.3,487.8c-2,0.6-4.7,0.6-8,0.6H281v-34c1-0.2,2-0.3,2.8-0.4
			c0.7-0.1,1.6-0.1,2.6-0.1c2,0,3.8,0.3,5.4,0.9s2.9,1.6,4,2.9s1.9,3,2.6,5.1c0.6,2.1,0.9,4.6,0.9,7.6c0,2.3-0.1,4.4-0.2,6.1
			c-0.2,1.7-0.4,3.1-0.7,4.3c-0.3,1.2-0.6,2.2-1,2.9c-0.4,0.8-0.9,1.3-1.4,1.7C294.9,486.5,293.3,487.2,291.3,487.8z"/>
		<rect x="322" y="449.4" class="st1" width="7" height="78"/>
		<polygon class="st1" points="349,488.7 367.1,488.1 367.5,483.1 349,482.8 349,455.3 368.8,455 369.5,449.4 342,449.4 342,527.4 
			370.6,527.4 371,521.8 349,520.9 		"/>
		<path class="st1" d="M406.2,489.4c-1.2-1.7-2.6-3.2-4-4.4c-1.5-1.2-3-2.2-4.6-3.2s-3.1-1.8-4.6-2.7c-1.5-0.9-2.8-1.9-4-3
			s-2.1-2.4-2.8-3.9c-0.7-1.5-1.1-3.3-1.1-5.5c0-2.8,0.2-4.8,0.7-6.1c0.4-1.3,1-2.3,1.6-3.1c0.6-0.6,1.4-1.1,2.5-1.3
			c1.1-0.3,2.4-0.5,3.9-0.5c1.9,0,3.9,0.4,6,1.1c2.2,0.7,4.2,1.6,6.3,2.6l1.6-9.2c-1.9-0.6-3.8-1-5.7-1.4c-1.9-0.4-3.9-0.5-6-0.5
			c-2.7,0-5.1,0.6-7.2,1.9s-3.9,2.8-5.3,4.8c-1.5,1.9-2.6,4.1-3.3,6.5c-0.8,2.4-1.2,4.8-1.2,7.2c0,3.5,0.3,6.4,1,8.7
			c0.7,2.4,1.7,4.4,2.9,6.1c1.2,1.7,2.5,3.1,4.1,4.2c1.5,1.2,3,2.2,4.5,3.1c1.6,0.9,3.1,1.8,4.6,2.7c1.5,0.9,2.9,1.9,4,3.1
			c1.2,1.2,2.1,2.6,2.9,4.2c0.7,1.6,1,3.7,1,6c0,1.8-0.1,3.4-0.3,4.6c-0.1,1.3-0.4,2.4-0.7,3.2c-0.3,0.9-0.6,1.5-1,2s-0.8,1-1.2,1.3
			c-0.7,0.7-1.7,1.2-2.9,1.7c-1.2,0.5-2.7,0.7-4.3,0.7c-1.3,0-2.5-0.2-3.8-0.7s-2.5-1-3.8-1.8c-1.2-0.7-2.4-1.5-3.5-2.3
			s-2-1.6-2.8-2.4l-2.6,9.1c2.1,1.7,4.3,3.1,6.7,4.1c2.4,1,5.1,1.5,8.1,1.5c2.9,0,5.5-0.7,7.7-2c2.2-1.4,4.1-3.2,5.7-5.4
			c1.5-2.2,2.7-4.7,3.5-7.5s1.2-5.7,1.2-8.6c0-3.4-0.3-6.3-1.1-8.8C408.3,493.2,407.4,491.2,406.2,489.4z"/>
	</g>
</g>
</svg>
