<?xml version="1.0" encoding="utf-8"?>
<!-- Generator: Adobe Illustrator 19.2.1, SVG Export Plug-In . SVG Version: 6.00 Build 0)  -->
<svg version="1.1" id="Layer_1" xmlns="http://www.w3.org/2000/svg" xmlns:xlink="http://www.w3.org/1999/xlink" x="0px" y="0px"
	 viewBox="0 0 1536 1028.6" style="enable-background:new 0 0 1536 1028.6;" xml:space="preserve">
<style type="text/css">
	.st0{fill:#FFFFFF;}
	.st1{fill:none;stroke:#231F20;stroke-width:24;}
</style>
<g>
	<g>
		<path class="st0" d="M1386.3,314.9v24.8l6.8,8.7h105.2l13.3-8.3l-6.1-30.3l-29.4-7.5l-27.6,6.9h-19.3c-2.3-6-3.8-14.2-4.5-24.1
			v-47.5l-5.2-12.9l4.5-11.3l14.6-5.9h44.2l6.9-8.5v-30.1l-29.2-7.4l-27.1-0.1l-8.8-5.3V66.6h21.6V60h36l15.2-9.6l-3.7-2.4
			c-2.6-1.7-6.4-6.3-9.6-18.4l-0.5-2.1h-55l-5.7-7l-30.7,7.4l-5.7,28.7l-0.1,74l-5.4,33.3v130.7h4.5l-5.4,20.3H1386.3z"/>
		<path class="st0" d="M1152.9,197.5l3.5,11.5v17.7l-4.3,18.1h2.5c-1,3-1.5,6.9-1.7,11.9V302l0.4,0.7c2.5,4.3,4.8,7,7.2,8.1
			c2.7,8.1,7.6,14.4,14.6,18.8l14.1,11l10.4,7.5l11.5,4.3h43.7l3.7-3.9c7.7-1.7,13.8-6.8,18-15.3l11.4-3.8v-5
			c3.9-6.8,7.3-16.5,10.3-29.6l3.6-7.8V185.6l-0.3-0.6c-4.4-8.7-13-14.1-25.6-16.1l-7.8-8.3v6.9l-8.3-3l-4,4.2h-24.2l-0.7,0.5
			c-7.5,5.4-11.3,14.9-11.5,28.3v1.2l8.6,9h1.1c11.6,0.6,19.9,7.3,25.3,20.5l0.3,0.5c1.8,2.8,2.9,7.3,3.1,13.4v33.2
			c-0.5,13.9-7.9,22.7-22.5,27.1l-1.2,0.4l-3.3,6.8h-16.3v-3.7h-6.8v-6.1l-7.4-4l-3.2-13.2v-48.8h3.5v-21.4l-3.5-15.1v-25.4
			l3.5-22.3v-26.5l-3.4-35.2l6.2-3.3l6.7-14h25.5c6.8,2.5,13.3,8.3,19.1,17.2l0.4,0.6l7.7,4.1l19.5,4.1v4.2l16.1-17.1V63.3l-0.4-0.7
			c-2.1-3.5-6.8-7.5-14.6-12.1l-2.8-2.8c-4.2-11.6-14.2-19.5-29.8-23.5l-20.2-0.1l-3.5-3.7h-19.2l-0.5,0.2
			c-5.2,1.8-10.1,5.5-14.7,11c-5.1,0.9-10.8,3.4-17.5,7.8l-0.7,0.4l-6.9,14.8l-10.8,7.6l-3.8,11.9l-0.1,34l-3.2,10.6l-0.1,46.4
			l3.3,3.7L1152.9,197.5L1152.9,197.5z"/>
		<path class="st0" d="M927,349.5l5,5.3l16.8-9l0.3-0.4c5-5.5,7.8-14,8.2-25.2v-41.6h-3.7v-23.5c2.2-3.3,3.4-8.7,3.7-16.4v-26
			l3.3-3.7l3.9-16.4l0.1-1.6h6.6l6.3,10.1l3.6,11.1l3.9,21.6h3v5.1c0.8,9.5,5.7,20.2,14.8,31.9v7.5l7.4,11.9l4.1,21.2h3v6l3.7,4
			v12.2l7.3,4v8.9h7.3v3.8h17.6l17.4-4.4v-7.1h3.2l4.3-18.2V158.3l3.5-4v-43.8l-3.5-15.8c-0.1-11.2-1.4-19-3.7-23.7V52.3l-6.1-19.3
			c-0.6-2-1.2-3.9-1.9-5.8l-1.5-4.7v1.1c-0.6-1.2-1.2-2.5-1.9-3.7l-0.8-1.4h-22.8v5.3l-11,7.7v18l3.8,4v6.3l-3.7,19.1l-0.1,46.1
			l-3.7,3.7v46.8l-1.1,1.2l-8.7-6.3l-2.8-2.8v-17.3h-3.5v-7.7h-3.7v-11.7h-4.2c-1.8-9.5-5.3-16.8-10.5-21.8v-7.2l-0.4-0.6
			c-2.4-4.5-4.7-7.2-7.1-8.5c-0.8-5.4-3.3-11.6-7.5-18.7l-0.8-1.4h-2.5V58.8l-5.9-6.3c-1.3-2.3-3.1-4.4-5.4-6
			c-1.3-5.9-5-12.4-11.4-19.6l-0.6-0.7l-19.2-3.9l-10.7-0.1V44l-3.6,11.3L915,94.6l-3.5,15.4v182l-3.7,3.7v41.9l8.6,4.5L927,349.5z"
			/>
		<path class="st0" d="M774.3,275.9c5,3.1,8.6,6,10.6,8.5l0.4,0.4l5.7,3v23l3.2,10.9c1.2,5.8,4.6,10.8,10.1,15.1
			c0.7,5,3,10.8,6.9,17.3l0.8,1.4h26l0.6-1.1c4.7-5.9,8.1-11.7,9.9-17.2l7.1-3.8v-14l-6.6-3.5v-11.5h-3.1v-28h-3.3v-5.3L836,264
			v-12.3h-3.9l-3.3-13.9h-2.7v-21.2h-3.3v-6.9h-3.9l-2.6-8.1v-21.7l-3.3-3.5v-10.6l-3.5-3.8l-3.3-17.4l-3.3-3.5l-3.1-16.3
			c-0.7-7.1-1.7-14.4-3.1-21.4c-1.5-8.4-6-15.7-13.3-21.8V59.2h-3.3V48.6h-3.3v-5.3l-9.7-10.5v-6.9l-5-5.2h-41.9l-0.8,0.7
			c-10.5,9.2-16.3,22.7-17.3,40l-6.7,14v7.1c-2,5.2-3.1,12.1-3.3,21l-3,10.2l-0.1,7.2l-3.1,6.3l-3.5,11l-0.1,11.1l-3.3,13.5
			l-0.1,17.7l-3.3,6.8v10.4l-6.1,9.7l-3.5,3.9l-0.1,0.8c-1.3,6.3-2.4,15.5-3.4,28l-3.1,9.9l-3.3,6.9l-3.4,10.8l-3.3,6.9l-3.5,14.5
			l-0.1,13.8c-3.1,4-4.5,5.2-5.1,5.6l-1.3,0.8v7.2l-3.3,3.5v20.6l7.3,4l7.1,11h19.4l8-8.9l5.4-1.8l8.4-8.9H688
			c3.8-6.7,6.1-16.3,6.6-28.4l2.9-16.6l2.6-2.7l18.9-13.2h16.7l3.3-3.5h10.6l6.6,7h15.5L774.3,275.9z M730.8,181.7v-6.6l3.3-3.5
			v-20.9l3.3-3.5V143l6.6,2.4h1.8l5.6,11.9v13.2l3.9,17h3.8l5.6,11.7V212h3.1v9.2c-1.9,1.2-3.6,3.1-5.3,6h-8
			c-5.8-1.1-14.3-2.3-25.2-3.4L721,215v-17.2h2.1L730.8,181.7z"/>
		<path class="st0" d="M441.3,338.3l6,3.3v6.5l1.6,0.8c4.6,2.3,10.8,3.4,19.1,3.4h1.2l6.7-7.1l9.9-7v-23.7l-2.9-16.2v-86.9l9.6-5.2
			c7.5,0.7,14.3,3.4,20.4,8.2v5.9l6,6.4v15.9l3.1,3.3v5l2.1,11.5l-2.7-2.7l6.8,20.7l0.1,0.3c2.4,5.3,4.2,9.4,5.6,12.3v13.1l3.1,3.3
			v9.5l2.9,3.1v14.4l1.1,1.6c1.7,0,2,1.2,2,2.8v-0.6h-0.5l0.5,0.6l3.6,4.1l0,0l3.5,4l0.3,0.1l1.1,1.2v-0.9l14.4,3l1.5,2.5l2.2,1.9
			l10.5-11l9.6-3.3l3.5-11.1l0.1-11.6l-8.8-8.7v0.1l-0.4-0.6c-0.4-5.5-1.4-13.4-2.9-24.8l-0.1-0.6l-5.9-9.3v-17.9h-3
			c-0.3-7.7-2.3-14.5-5.9-20.2v-13.1l-3.1-3.3l-2.8-14.1l2.5-5.2l0.6-0.7v2.5l8.5-8.3l2.8-9.3c5.3-4.2,8.4-10,9.3-17.2v-41.5
			l-2.9-16.2V75.4l-2.9-3.1v-8.1h-3.1v-10l-0.1-0.8c-2.6-8.4-10.2-15.4-22.5-20.7c-4.7-2.2-10.9-3.4-18.6-3.6l-8.9-3.1h-27.5v-3
			h-12.3c-4.8,0.4-10.1,2.5-15.5,6.1h-6.2l-3.1,3.3h-8.9l-0.8,0.9c-6.4,6.7-9.7,15.9-9.7,27.3v25.8H438v167.3h3.3V338.3z M539.7,143
			l-2.7,14.7l-1.7,1.6h-7.5v3.1H515l-8.9,3.3h-17.5v-14l-2.9-3.3v-4.9l2.9-19V99l3.1-15.6v-6.7c0.8-4.2,1.5-7.6,2.2-10.2h32.3
			c3.4,4.5,7.9,8.4,13.5,11.6V143z"/>
		<path class="st0" d="M382.2,56.9l9.9-7.1V34.4l-0.8-0.8c-5.3-5.6-11.8-9.1-19.5-10.4h-41.9l-6-3.3h-65.4l-3.1,6.4h-5.3l-0.8,0.9
			c-4.2,4.7-6.5,11.7-6.8,21.1v4.6l10.1,7.2c5.9,4.2,14.3,6.4,25.7,6.9h7.7l7.9,8.4c1.4,2.2,2.3,5.9,2.5,11v163l2.9,6.4v75.4h3.1
			v4.7l6,6.5v4.2l17.2,3.5l4.4,0.1l11.1-7.3l3.1-17.3v-28.9l3-16.5l-3-6.6V168.2l-2.9-3.3V85.8l-2.8-5.7l2.5-5.2l0.1-0.3
			c1.3-4.1,3.7-6.6,6.9-7.6l11.7-3h15.8L382.2,56.9z"/>
		<path class="st0" d="M69.6,173.5l6.4,10c3.8,6.3,9.5,10.2,16.9,11.5l3,6.5l7.9,4.3h17.6v3.5h18.1l3.1,3.5h12.3
			c1.3,4.9,4.4,10.2,9.2,15.7v6.6l0.5,0.7c1.1,1.6,2.5,5.1,2.8,12.5v23.6l-3,6.5l-3.3,10.1l-2,2.2h-1.6v1.7l-3.2,3.5v0.3l-0.2,0.2
			h0.2v5.5l-10.8,2.9h-5.7l-13.9-3v-4.1h-8.3l-2.2-2.3l-3-6.3l-3.7-19.4h-2.6V264l-8.1-4.3l-18.2-4l-3.4,1.8v-2.3l-4.6,4.7l-2.1,1.1
			v-2.4l-4.6,4.9l-3,1.6h1.5l-2.7,2.9v25.6l3.3,18.7l7,7.5l6.8,10.6l11,7.9h6c4.2,5.7,10,9.2,17.2,10.5l9.8,3.2l18.3,3.9l3.7-3.7
			h19.4l10-7l16.7-3.6l8.4-9h-2.8c7.8-6.6,13-15.9,15.4-27.9l0.2-1.2l-0.7-1c-1.6-2.3-2.5-6.6-2.8-12.5v-25.4l-3.3-3.8l-3.1-16.4
			v-18.3l-3.3-3.5v-28.4l-8.8-6h2.3l-7.1-8.1c-7.2-9.4-17.9-14.5-31.6-15l-16.2-3.5l-2.7-0.1l-8.9-9.6l-0.2-0.2
			c-3.7-3.2-6.6-5.4-9-6.6v-22.6l-3.2-10.5l6.4-27l2.8-8.8l10-2.2l-2.7,2.9l20.5-7.4h3.3v2.1l1.1,0.8c3.1,2.3,7.3,6.9,12.6,13.4
			l0.4,0.5l6.3,3.4l3.4,7l12.6,4.6l8.7-9V74.9l6.8-7.2l-0.1-1.3c-0.8-7.5-4.3-16.1-10.5-25.8c-6.2-9-15.3-15.1-27.1-18.3l-3.4-3.8
			h-45l-10,7.1c-7.9,0.6-15,4.4-20.9,11.3l-0.7,0.8V40c-8.2,2.1-13.6,8-16,17.7c-2.3,1.3-4.4,3.7-6.5,7.5
			c-4.4,4.9-6.8,12.5-6.9,22.6v55.8l3.4,11C60.2,161.8,63.7,168.2,69.6,173.5z"/>
		<path class="st0" d="M135,588.5l-35.3-34.3l22-73l88.2-2.2l17.4-72.3l-138,3.1l-46.4,77.7l-5.2,128.4l42.6,45.9h103.5l55,82
			l-39,127c-48-28-96.2-57.1-112.7-68.8c3.5-13.4,11.8-41.7,19.6-67.1l4.3-14.2l-64.5-25.4L13.8,821.7l34.7,56l156.5,89l50.8-33.6
			l60.1-217L241.2,608L135,588.5z"/>
		<polygon class="st0" points="579.7,431.8 481.7,459.1 459.2,465.1 456.5,413.9 371,417.6 383.7,711 361.3,929.2 436.2,960.7 
			457.3,659.4 457.3,584.8 530.8,659.7 550.5,966.7 644.6,975.2 603.2,629.1 504.1,520.1 676.5,458.3 711.4,417.7 642.9,381.4 		"/>
		<path class="st0" d="M838,468.9c0-0.2,0-0.5,0-0.7v-82.4l-75.1,16.7l6,573.9l87.9-5.8l-0.3-15.3
			C847.6,548.7,842.4,483.7,838,468.9z"/>
		<path class="st0" d="M1100.7,900.3H982.2l44.3-186.3l154.4-49.5l116.9-93.8L1247,532l-116.2,76.1l-84.6,26.5l7.8-153l39.4-9.3
			l78.3,13.5l13.9-77h-106l-62.8-21.2l-51.5,68.2l-0.2,4.9c-1.6,31.2-9,182-9.6,199c-2.5,13.4-35.3,142.2-57,226.9l-1.1,4.2
			l21.3,74.7l256.6-2.7l76.1-24.6l-39-64L1100.7,900.3z"/>
		<polygon class="st0" points="1416.4,620.8 1369.8,564.9 1414.7,465.3 1428.5,468.3 1431.7,525.2 1517.1,522 1500,426.1 
			1458.1,394.8 1375.9,402.1 1307.7,487.5 1296,643.4 1382,701 1435.6,907.8 1412.2,929.1 1397,922.1 1373.7,817.7 1303.2,828.7 
			1328.6,968.5 1430.3,1008.8 1493.6,961.2 1521.2,801.7 		"/>
	</g>
	<g>
		<path class="st1" d="M1386.3,314.9v24.8l6.8,8.7h105.2l13.3-8.3l-6.1-30.3l-29.4-7.5l-27.6,6.9h-19.3c-2.3-6-3.8-14.2-4.5-24.1
			v-47.5l-5.2-12.9l4.5-11.3l14.6-5.9h44.2l6.9-8.5v-30.1l-29.2-7.4l-27.1-0.1l-8.8-5.3V66.6h21.6V60h36l15.2-9.6l-3.7-2.4
			c-2.6-1.7-6.4-6.3-9.6-18.4l-0.5-2.1h-55l-5.7-7l-30.7,7.4l-5.7,28.7l-0.1,74l-5.4,33.3v130.7h4.5l-5.4,20.3H1386.3z"/>
		<path class="st1" d="M1152.9,197.5l3.5,11.5v17.7l-4.3,18.1h2.5c-1,3-1.5,6.9-1.7,11.9V302l0.4,0.7c2.5,4.3,4.8,7,7.2,8.1
			c2.7,8.1,7.6,14.4,14.6,18.8l14.1,11l10.4,7.5l11.5,4.3h43.7l3.7-3.9c7.7-1.7,13.8-6.8,18-15.3l11.4-3.8v-5
			c3.9-6.8,7.3-16.5,10.3-29.6l3.6-7.8V185.6l-0.3-0.6c-4.4-8.7-13-14.1-25.6-16.1l-7.8-8.3v6.9l-8.3-3l-4,4.2h-24.2l-0.7,0.5
			c-7.5,5.4-11.3,14.9-11.5,28.3v1.2l8.6,9h1.1c11.6,0.6,19.9,7.3,25.3,20.5l0.3,0.5c1.8,2.8,2.9,7.3,3.1,13.4v33.2
			c-0.5,13.9-7.9,22.7-22.5,27.1l-1.2,0.4l-3.3,6.8h-16.3v-3.7h-6.8v-6.1l-7.4-4l-3.2-13.2v-48.8h3.5v-21.4l-3.5-15.1v-25.4
			l3.5-22.3v-26.5l-3.4-35.2l6.2-3.3l6.7-14h25.5c6.8,2.5,13.3,8.3,19.1,17.2l0.4,0.6l7.7,4.1l19.5,4.1v4.2l16.1-17.1V63.3l-0.4-0.7
			c-2.1-3.5-6.8-7.5-14.6-12.1l-2.8-2.8c-4.2-11.6-14.2-19.5-29.8-23.5l-20.2-0.1l-3.5-3.7h-19.2l-0.5,0.2
			c-5.2,1.8-10.1,5.5-14.7,11c-5.1,0.9-10.8,3.4-17.5,7.8l-0.7,0.4l-6.9,14.8l-10.8,7.6l-3.8,11.9l-0.1,34l-3.2,10.6l-0.1,46.4
			l3.3,3.7L1152.9,197.5L1152.9,197.5z"/>
		<path class="st1" d="M927,349.5l5,5.3l16.8-9l0.3-0.4c5-5.5,7.8-14,8.2-25.2v-41.6h-3.7v-23.5c2.2-3.3,3.4-8.7,3.7-16.4v-26
			l3.3-3.7l3.9-16.4l0.1-1.6h6.6l6.3,10.1l3.6,11.1l3.9,21.6h3v5.1c0.8,9.5,5.7,20.2,14.8,31.9v7.5l7.4,11.9l4.1,21.2h3v6l3.7,4
			v12.2l7.3,4v8.9h7.3v3.8h17.6l17.4-4.4v-7.1h3.2l4.3-18.2V158.3l3.5-4v-43.8l-3.5-15.8c-0.1-11.2-1.4-19-3.7-23.7V52.3l-6.1-19.3
			c-0.6-2-1.2-3.9-1.9-5.8l-1.5-4.7v1.1c-0.6-1.2-1.2-2.5-1.9-3.7l-0.8-1.4h-22.8v5.3l-11,7.7v18l3.8,4v6.3l-3.7,19.1l-0.1,46.1
			l-3.7,3.7v46.8l-1.1,1.2l-8.7-6.3l-2.8-2.8v-17.3h-3.5v-7.7h-3.7v-11.7h-4.2c-1.8-9.5-5.3-16.8-10.5-21.8v-7.2l-0.4-0.6
			c-2.4-4.5-4.7-7.2-7.1-8.5c-0.8-5.4-3.3-11.6-7.5-18.7l-0.8-1.4h-2.5V58.8l-5.9-6.3c-1.3-2.3-3.1-4.4-5.4-6
			c-1.3-5.9-5-12.4-11.4-19.6l-0.6-0.7l-19.2-3.9l-10.7-0.1V44l-3.6,11.3L915,94.6l-3.5,15.4v182l-3.7,3.7v41.9l8.6,4.5L927,349.5z"
			/>
		<path class="st1" d="M774.3,275.9c5,3.1,8.6,6,10.6,8.5l0.4,0.4l5.7,3v23l3.2,10.9c1.2,5.8,4.6,10.8,10.1,15.1
			c0.7,5,3,10.8,6.9,17.3l0.8,1.4h26l0.6-1.1c4.7-5.9,8.1-11.7,9.9-17.2l7.1-3.8v-14l-6.6-3.5v-11.5h-3.1v-28h-3.3v-5.3L836,264
			v-12.3h-3.9l-3.3-13.9h-2.7v-21.2h-3.3v-6.9h-3.9l-2.6-8.1v-21.7l-3.3-3.5v-10.6l-3.5-3.8l-3.3-17.4l-3.3-3.5l-3.1-16.3
			c-0.7-7.1-1.7-14.4-3.1-21.4c-1.5-8.4-6-15.7-13.3-21.8V59.2h-3.3V48.6h-3.3v-5.3l-9.7-10.5v-6.9l-5-5.2h-41.9l-0.8,0.7
			c-10.5,9.2-16.3,22.7-17.3,40l-6.7,14v7.1c-2,5.2-3.1,12.1-3.3,21l-3,10.2l-0.1,7.2l-3.1,6.3l-3.5,11l-0.1,11.1l-3.3,13.5
			l-0.1,17.7l-3.3,6.8v10.4l-6.1,9.7l-3.5,3.9l-0.1,0.8c-1.3,6.3-2.4,15.5-3.4,28l-3.1,9.9l-3.3,6.9l-3.4,10.8l-3.3,6.9l-3.5,14.5
			l-0.1,13.8c-3.1,4-4.5,5.2-5.1,5.6l-1.3,0.8v7.2l-3.3,3.5v20.6l7.3,4l7.1,11h19.4l8-8.9l5.4-1.8l8.4-8.9H688
			c3.8-6.7,6.1-16.3,6.6-28.4l2.9-16.6l2.6-2.7l18.9-13.2h16.7l3.3-3.5h10.6l6.6,7h15.5L774.3,275.9z M730.8,181.7v-6.6l3.3-3.5
			v-20.9l3.3-3.5V143l6.6,2.4h1.8l5.6,11.9v13.2l3.9,17h3.8l5.6,11.7V212h3.1v9.2c-1.9,1.2-3.6,3.1-5.3,6h-8
			c-5.8-1.1-14.3-2.3-25.2-3.4L721,215v-17.2h2.1L730.8,181.7z"/>
		<path class="st1" d="M441.3,338.3l6,3.3v6.5l1.6,0.8c4.6,2.3,10.8,3.4,19.1,3.4h1.2l6.7-7.1l9.9-7v-23.7l-2.9-16.2v-86.9l9.6-5.2
			c7.5,0.7,14.3,3.4,20.4,8.2v5.9l6,6.4v15.9l3.1,3.3v5l2.1,11.5l-2.7-2.7l6.8,20.7l0.1,0.3c2.4,5.3,4.2,9.4,5.6,12.3v13.1l3.1,3.3
			v9.5l2.9,3.1v14.4l1.1,1.6c1.7,0,2,1.2,2,2.8v-0.6h-0.5l0.5,0.6l3.6,4.1l0,0l3.5,4l0.3,0.1l1.1,1.2v-0.9l14.4,3l1.5,2.5l2.2,1.9
			l10.5-11l9.6-3.3l3.5-11.1l0.1-11.6l-8.8-8.7v0.1l-0.4-0.6c-0.4-5.5-1.4-13.4-2.9-24.8l-0.1-0.6l-5.9-9.3v-17.9h-3
			c-0.3-7.7-2.3-14.5-5.9-20.2v-13.1l-3.1-3.3l-2.8-14.1l2.5-5.2l0.6-0.7v2.5l8.5-8.3l2.8-9.3c5.3-4.2,8.4-10,9.3-17.2v-41.5
			l-2.9-16.2V75.4l-2.9-3.1v-8.1h-3.1v-10l-0.1-0.8c-2.6-8.4-10.2-15.4-22.5-20.7c-4.7-2.2-10.9-3.4-18.6-3.6l-8.9-3.1h-27.5v-3
			h-12.3c-4.8,0.4-10.1,2.5-15.5,6.1h-6.2l-3.1,3.3h-8.9l-0.8,0.9c-6.4,6.7-9.7,15.9-9.7,27.3v25.8H438v167.3h3.3V338.3z M539.7,143
			l-2.7,14.7l-1.7,1.6h-7.5v3.1H515l-8.9,3.3h-17.5v-14l-2.9-3.3v-4.9l2.9-19V99l3.1-15.6v-6.7c0.8-4.2,1.5-7.6,2.2-10.2h32.3
			c3.4,4.5,7.9,8.4,13.5,11.6V143z"/>
		<path class="st1" d="M382.2,56.9l9.9-7.1V34.4l-0.8-0.8c-5.3-5.6-11.8-9.1-19.5-10.4h-41.9l-6-3.3h-65.4l-3.1,6.4h-5.3l-0.8,0.9
			c-4.2,4.7-6.5,11.7-6.8,21.1v4.6l10.1,7.2c5.9,4.2,14.3,6.4,25.7,6.9h7.7l7.9,8.4c1.4,2.2,2.3,5.9,2.5,11v163l2.9,6.4v75.4h3.1
			v4.7l6,6.5v4.2l17.2,3.5l4.4,0.1l11.1-7.3l3.1-17.3v-28.9l3-16.5l-3-6.6V168.2l-2.9-3.3V85.8l-2.8-5.7l2.5-5.2l0.1-0.3
			c1.3-4.1,3.7-6.6,6.9-7.6l11.7-3h15.8L382.2,56.9z"/>
		<path class="st1" d="M69.6,173.5l6.4,10c3.8,6.3,9.5,10.2,16.9,11.5l3,6.5l7.9,4.3h17.6v3.5h18.1l3.1,3.5h12.3
			c1.3,4.9,4.4,10.2,9.2,15.7v6.6l0.5,0.7c1.1,1.6,2.5,5.1,2.8,12.5v23.6l-3,6.5l-3.3,10.1l-2,2.2h-1.6v1.7l-3.2,3.5v0.3l-0.2,0.2
			h0.2v5.5l-10.8,2.9h-5.7l-13.9-3v-4.1h-8.3l-2.2-2.3l-3-6.3l-3.7-19.4h-2.6V264l-8.1-4.3l-18.2-4l-3.4,1.8v-2.3l-4.6,4.7l-2.1,1.1
			v-2.4l-4.6,4.9l-3,1.6h1.5l-2.7,2.9v25.6l3.3,18.7l7,7.5l6.8,10.6l11,7.9h6c4.2,5.7,10,9.2,17.2,10.5l9.8,3.2l18.3,3.9l3.7-3.7
			h19.4l10-7l16.7-3.6l8.4-9h-2.8c7.8-6.6,13-15.9,15.4-27.9l0.2-1.2l-0.7-1c-1.6-2.3-2.5-6.6-2.8-12.5v-25.4l-3.3-3.8l-3.1-16.4
			v-18.3l-3.3-3.5v-28.4l-8.8-6h2.3l-7.1-8.1c-7.2-9.4-17.9-14.5-31.6-15l-16.2-3.5l-2.7-0.1l-8.9-9.6l-0.2-0.2
			c-3.7-3.2-6.6-5.4-9-6.6v-22.6l-3.2-10.5l6.4-27l2.8-8.8l10-2.2l-2.7,2.9l20.5-7.4h3.3v2.1l1.1,0.8c3.1,2.3,7.3,6.9,12.6,13.4
			l0.4,0.5l6.3,3.4l3.4,7l12.6,4.6l8.7-9V74.9l6.8-7.2l-0.1-1.3c-0.8-7.5-4.3-16.1-10.5-25.8c-6.2-9-15.3-15.1-27.1-18.3l-3.4-3.8
			h-45l-10,7.1c-7.9,0.6-15,4.4-20.9,11.3l-0.7,0.8V40c-8.2,2.1-13.6,8-16,17.7c-2.3,1.3-4.4,3.7-6.5,7.5
			c-4.4,4.9-6.8,12.5-6.9,22.6v55.8l3.4,11C60.2,161.8,63.7,168.2,69.6,173.5z"/>
		<path class="st1" d="M135,588.5l-35.3-34.3l22-73l88.2-2.2l17.4-72.3l-138,3.1l-46.4,77.7l-5.2,128.4l42.6,45.9h103.5l55,82
			l-39,127c-48-28-96.2-57.1-112.7-68.8c3.5-13.4,11.8-41.7,19.6-67.1l4.3-14.2l-64.5-25.4L13.8,821.7l34.7,56l156.5,89l50.8-33.6
			l60.1-217L241.2,608L135,588.5z"/>
		<polygon class="st1" points="579.7,431.8 481.7,459.1 459.2,465.1 456.5,413.9 371,417.6 383.7,711 361.3,929.2 436.2,960.7 
			457.3,659.4 457.3,584.8 530.8,659.7 550.5,966.7 644.6,975.2 603.2,629.1 504.1,520.1 676.5,458.3 711.4,417.7 642.9,381.4 		"/>
		<path class="st1" d="M838,468.9c0-0.2,0-0.5,0-0.7v-82.4l-75.1,16.7l6,573.9l87.9-5.8l-0.3-15.3
			C847.6,548.7,842.4,483.7,838,468.9z"/>
		<path class="st1" d="M1100.7,900.3H982.2l44.3-186.3l154.4-49.5l116.9-93.8L1247,532l-116.2,76.1l-84.6,26.5l7.8-153l39.4-9.3
			l78.3,13.5l13.9-77h-106l-62.8-21.2l-51.5,68.2l-0.2,4.9c-1.6,31.2-9,182-9.6,199c-2.5,13.4-35.3,142.2-57,226.9l-1.1,4.2
			l21.3,74.7l256.6-2.7l76.1-24.6l-39-64L1100.7,900.3z"/>
		<polygon class="st1" points="1416.4,620.8 1369.8,564.9 1414.7,465.3 1428.5,468.3 1431.7,525.2 1517.1,522 1500,426.1 
			1458.1,394.8 1375.9,402.1 1307.7,487.5 1296,643.4 1382,701 1435.6,907.8 1412.2,929.1 1397,922.1 1373.7,817.7 1303.2,828.7 
			1328.6,968.5 1430.3,1008.8 1493.6,961.2 1521.2,801.7 		"/>
	</g>
	<g>
		<path class="st0" d="M1386.3,314.9v24.8l6.8,8.7h105.2l13.3-8.3l-6.1-30.3l-29.4-7.5l-27.6,6.9h-19.3c-2.3-6-3.8-14.2-4.5-24.1
			v-47.5l-5.2-12.9l4.5-11.3l14.6-5.9h44.2l6.9-8.5v-30.1l-29.2-7.4l-27.1-0.1l-8.8-5.3V66.6h21.6V60h36l15.2-9.6l-3.7-2.4
			c-2.6-1.7-6.4-6.3-9.6-18.4l-0.5-2.1h-55l-5.7-7l-30.7,7.4l-5.7,28.7l-0.1,74l-5.4,33.3v130.7h4.5l-5.4,20.3H1386.3z"/>
		<path class="st0" d="M1152.9,197.5l3.5,11.5v17.7l-4.3,18.1h2.5c-1,3-1.5,6.9-1.7,11.9V302l0.4,0.7c2.5,4.3,4.8,7,7.2,8.1
			c2.7,8.1,7.6,14.4,14.6,18.8l14.1,11l10.4,7.5l11.5,4.3h43.7l3.7-3.9c7.7-1.7,13.8-6.8,18-15.3l11.4-3.8v-5
			c3.9-6.8,7.3-16.5,10.3-29.6l3.6-7.8V185.6l-0.3-0.6c-4.4-8.7-13-14.1-25.6-16.1l-7.8-8.3v6.9l-8.3-3l-4,4.2h-24.2l-0.7,0.5
			c-7.5,5.4-11.3,14.9-11.5,28.3v1.2l8.6,9h1.1c11.6,0.6,19.9,7.3,25.3,20.5l0.3,0.5c1.8,2.8,2.9,7.3,3.1,13.4v33.2
			c-0.5,13.9-7.9,22.7-22.5,27.1l-1.2,0.4l-3.3,6.8h-16.3v-3.7h-6.8v-6.1l-7.4-4l-3.2-13.2v-48.8h3.5v-21.4l-3.5-15.1v-25.4
			l3.5-22.3v-26.5l-3.4-35.2l6.2-3.3l6.7-14h25.5c6.8,2.5,13.3,8.3,19.1,17.2l0.4,0.6l7.7,4.1l19.5,4.1v4.2l16.1-17.1V63.3l-0.4-0.7
			c-2.1-3.5-6.8-7.5-14.6-12.1l-2.8-2.8c-4.2-11.6-14.2-19.5-29.8-23.5l-20.2-0.1l-3.5-3.7h-19.2l-0.5,0.2
			c-5.2,1.8-10.1,5.5-14.7,11c-5.1,0.9-10.8,3.4-17.5,7.8l-0.7,0.4l-6.9,14.8l-10.8,7.6l-3.8,11.9l-0.1,34l-3.2,10.6l-0.1,46.4
			l3.3,3.7L1152.9,197.5L1152.9,197.5z"/>
		<path class="st0" d="M927,349.5l5,5.3l16.8-9l0.3-0.4c5-5.5,7.8-14,8.2-25.2v-41.6h-3.7v-23.5c2.2-3.3,3.4-8.7,3.7-16.4v-26
			l3.3-3.7l3.9-16.4l0.1-1.6h6.6l6.3,10.1l3.6,11.1l3.9,21.6h3v5.1c0.8,9.5,5.7,20.2,14.8,31.9v7.5l7.4,11.9l4.1,21.2h3v6l3.7,4
			v12.2l7.3,4v8.9h7.3v3.8h17.6l17.4-4.4v-7.1h3.2l4.3-18.2V158.3l3.5-4v-43.8l-3.5-15.8c-0.1-11.2-1.4-19-3.7-23.7V52.3l-6.1-19.3
			c-0.6-2-1.2-3.9-1.9-5.8l-1.5-4.7v1.1c-0.6-1.2-1.2-2.5-1.9-3.7l-0.8-1.4h-22.8v5.3l-11,7.7v18l3.8,4v6.3l-3.7,19.1l-0.1,46.1
			l-3.7,3.7v46.8l-1.1,1.2l-8.7-6.3l-2.8-2.8v-17.3h-3.5v-7.7h-3.7v-11.7h-4.2c-1.8-9.5-5.3-16.8-10.5-21.8v-7.2l-0.4-0.6
			c-2.4-4.5-4.7-7.2-7.1-8.5c-0.8-5.4-3.3-11.6-7.5-18.7l-0.8-1.4h-2.5V58.8l-5.9-6.3c-1.3-2.3-3.1-4.4-5.4-6
			c-1.3-5.9-5-12.4-11.4-19.6l-0.6-0.7l-19.2-3.9l-10.7-0.1V44l-3.6,11.3L915,94.6l-3.5,15.4v182l-3.7,3.7v41.9l8.6,4.5L927,349.5z"
			/>
		<path class="st0" d="M774.3,275.9c5,3.1,8.6,6,10.6,8.5l0.4,0.4l5.7,3v23l3.2,10.9c1.2,5.8,4.6,10.8,10.1,15.1
			c0.7,5,3,10.8,6.9,17.3l0.8,1.4h26l0.6-1.1c4.7-5.9,8.1-11.7,9.9-17.2l7.1-3.8v-14l-6.6-3.5v-11.5h-3.1v-28h-3.3v-5.3L836,264
			v-12.3h-3.9l-3.3-13.9h-2.7v-21.2h-3.3v-6.9h-3.9l-2.6-8.1v-21.7l-3.3-3.5v-10.6l-3.5-3.8l-3.3-17.4l-3.3-3.5l-3.1-16.3
			c-0.7-7.1-1.7-14.4-3.1-21.4c-1.5-8.4-6-15.7-13.3-21.8V59.2h-3.3V48.6h-3.3v-5.3l-9.7-10.5v-6.9l-5-5.2h-41.9l-0.8,0.7
			c-10.5,9.2-16.3,22.7-17.3,40l-6.7,14v7.1c-2,5.2-3.1,12.1-3.3,21l-3,10.2l-0.1,7.2l-3.1,6.3l-3.5,11l-0.1,11.1l-3.3,13.5
			l-0.1,17.7l-3.3,6.8v10.4l-6.1,9.7l-3.5,3.9l-0.1,0.8c-1.3,6.3-2.4,15.5-3.4,28l-3.1,9.9l-3.3,6.9l-3.4,10.8l-3.3,6.9l-3.5,14.5
			l-0.1,13.8c-3.1,4-4.5,5.2-5.1,5.6l-1.3,0.8v7.2l-3.3,3.5v20.6l7.3,4l7.1,11h19.4l8-8.9l5.4-1.8l8.4-8.9H688
			c3.8-6.7,6.1-16.3,6.6-28.4l2.9-16.6l2.6-2.7l18.9-13.2h16.7l3.3-3.5h10.6l6.6,7h15.5L774.3,275.9z M730.8,181.7v-6.6l3.3-3.5
			v-20.9l3.3-3.5V143l6.6,2.4h1.8l5.6,11.9v13.2l3.9,17h3.8l5.6,11.7V212h3.1v9.2c-1.9,1.2-3.6,3.1-5.3,6h-8
			c-5.8-1.1-14.3-2.3-25.2-3.4L721,215v-17.2h2.1L730.8,181.7z"/>
		<path class="st0" d="M441.3,338.3l6,3.3v6.5l1.6,0.8c4.6,2.3,10.8,3.4,19.1,3.4h1.2l6.7-7.1l9.9-7v-23.7l-2.9-16.2v-86.9l9.6-5.2
			c7.5,0.7,14.3,3.4,20.4,8.2v5.9l6,6.4v15.9l3.1,3.3v5l2.1,11.5l-2.7-2.7l6.8,20.7l0.1,0.3c2.4,5.3,4.2,9.4,5.6,12.3v13.1l3.1,3.3
			v9.5l2.9,3.1v14.4l1.1,1.6c1.7,0,2,1.2,2,2.8v-0.6h-0.5l0.5,0.6l3.6,4.1l0,0l3.5,4l0.3,0.1l1.1,1.2v-0.9l14.4,3l1.5,2.5l2.2,1.9
			l10.5-11l9.6-3.3l3.5-11.1l0.1-11.6l-8.8-8.7v0.1l-0.4-0.6c-0.4-5.5-1.4-13.4-2.9-24.8l-0.1-0.6l-5.9-9.3v-17.9h-3
			c-0.3-7.7-2.3-14.5-5.9-20.2v-13.1l-3.1-3.3l-2.8-14.1l2.5-5.2l0.6-0.7v2.5l8.5-8.3l2.8-9.3c5.3-4.2,8.4-10,9.3-17.2v-41.5
			l-2.9-16.2V75.4l-2.9-3.1v-8.1h-3.1v-10l-0.1-0.8c-2.6-8.4-10.2-15.4-22.5-20.7c-4.7-2.2-10.9-3.4-18.6-3.6l-8.9-3.1h-27.5v-3
			h-12.3c-4.8,0.4-10.1,2.5-15.5,6.1h-6.2l-3.1,3.3h-8.9l-0.8,0.9c-6.4,6.7-9.7,15.9-9.7,27.3v25.8H438v167.3h3.3V338.3z M539.7,143
			l-2.7,14.7l-1.7,1.6h-7.5v3.1H515l-8.9,3.3h-17.5v-14l-2.9-3.3v-4.9l2.9-19V99l3.1-15.6v-6.7c0.8-4.2,1.5-7.6,2.2-10.2h32.3
			c3.4,4.5,7.9,8.4,13.5,11.6V143z"/>
		<path class="st0" d="M382.2,56.9l9.9-7.1V34.4l-0.8-0.8c-5.3-5.6-11.8-9.1-19.5-10.4h-41.9l-6-3.3h-65.4l-3.1,6.4h-5.3l-0.8,0.9
			c-4.2,4.7-6.5,11.7-6.8,21.1v4.6l10.1,7.2c5.9,4.2,14.3,6.4,25.7,6.9h7.7l7.9,8.4c1.4,2.2,2.3,5.9,2.5,11v163l2.9,6.4v75.4h3.1
			v4.7l6,6.5v4.2l17.2,3.5l4.4,0.1l11.1-7.3l3.1-17.3v-28.9l3-16.5l-3-6.6V168.2l-2.9-3.3V85.8l-2.8-5.7l2.5-5.2l0.1-0.3
			c1.3-4.1,3.7-6.6,6.9-7.6l11.7-3h15.8L382.2,56.9z"/>
		<path class="st0" d="M69.6,173.5l6.4,10c3.8,6.3,9.5,10.2,16.9,11.5l3,6.5l7.9,4.3h17.6v3.5h18.1l3.1,3.5h12.3
			c1.3,4.9,4.4,10.2,9.2,15.7v6.6l0.5,0.7c1.1,1.6,2.5,5.1,2.8,12.5v23.6l-3,6.5l-3.3,10.1l-2,2.2h-1.6v1.7l-3.2,3.5v0.3l-0.2,0.2
			h0.2v5.5l-10.8,2.9h-5.7l-13.9-3v-4.1h-8.3l-2.2-2.3l-3-6.3l-3.7-19.4h-2.6V264l-8.1-4.3l-18.2-4l-3.4,1.8v-2.3l-4.6,4.7l-2.1,1.1
			v-2.4l-4.6,4.9l-3,1.6h1.5l-2.7,2.9v25.6l3.3,18.7l7,7.5l6.8,10.6l11,7.9h6c4.2,5.7,10,9.2,17.2,10.5l9.8,3.2l18.3,3.9l3.7-3.7
			h19.4l10-7l16.7-3.6l8.4-9h-2.8c7.8-6.6,13-15.9,15.4-27.9l0.2-1.2l-0.7-1c-1.6-2.3-2.5-6.6-2.8-12.5v-25.4l-3.3-3.8l-3.1-16.4
			v-18.3l-3.3-3.5v-28.4l-8.8-6h2.3l-7.1-8.1c-7.2-9.4-17.9-14.5-31.6-15l-16.2-3.5l-2.7-0.1l-8.9-9.6l-0.2-0.2
			c-3.7-3.2-6.6-5.4-9-6.6v-22.6l-3.2-10.5l6.4-27l2.8-8.8l10-2.2l-2.7,2.9l20.5-7.4h3.3v2.1l1.1,0.8c3.1,2.3,7.3,6.9,12.6,13.4
			l0.4,0.5l6.3,3.4l3.4,7l12.6,4.6l8.7-9V74.9l6.8-7.2l-0.1-1.3c-0.8-7.5-4.3-16.1-10.5-25.8c-6.2-9-15.3-15.1-27.1-18.3l-3.4-3.8
			h-45l-10,7.1c-7.9,0.6-15,4.4-20.9,11.3l-0.7,0.8V40c-8.2,2.1-13.6,8-16,17.7c-2.3,1.3-4.4,3.7-6.5,7.5
			c-4.4,4.9-6.8,12.5-6.9,22.6v55.8l3.4,11C60.2,161.8,63.7,168.2,69.6,173.5z"/>
		<path class="st0" d="M135,588.5l-35.3-34.3l22-73l88.2-2.2l17.4-72.3l-138,3.1l-46.4,77.7l-5.2,128.4l42.6,45.9h103.5l55,82
			l-39,127c-48-28-96.2-57.1-112.7-68.8c3.5-13.4,11.8-41.7,19.6-67.1l4.3-14.2l-64.5-25.4L13.8,821.7l34.7,56l156.5,89l50.8-33.6
			l60.1-217L241.2,608L135,588.5z"/>
		<polygon class="st0" points="579.7,431.8 481.7,459.1 459.2,465.1 456.5,413.9 371,417.6 383.7,711 361.3,929.2 436.2,960.7 
			457.3,659.4 457.3,584.8 530.8,659.7 550.5,966.7 644.6,975.2 603.2,629.1 504.1,520.1 676.5,458.3 711.4,417.7 642.9,381.4 		"/>
		<path class="st0" d="M838,468.9c0-0.2,0-0.5,0-0.7v-82.4l-75.1,16.7l6,573.9l87.9-5.8l-0.3-15.3
			C847.6,548.7,842.4,483.7,838,468.9z"/>
		<path class="st0" d="M1100.7,900.3H982.2l44.3-186.3l154.4-49.5l116.9-93.8L1247,532l-116.2,76.1l-84.6,26.5l7.8-153l39.4-9.3
			l78.3,13.5l13.9-77h-106l-62.8-21.2l-51.5,68.2l-0.2,4.9c-1.6,31.2-9,182-9.6,199c-2.5,13.4-35.3,142.2-57,226.9l-1.1,4.2
			l21.3,74.7l256.6-2.7l76.1-24.6l-39-64L1100.7,900.3z"/>
		<polygon class="st0" points="1416.4,620.8 1369.8,564.9 1414.7,465.3 1428.5,468.3 1431.7,525.2 1517.1,522 1500,426.1 
			1458.1,394.8 1375.9,402.1 1307.7,487.5 1296,643.4 1382,701 1435.6,907.8 1412.2,929.1 1397,922.1 1373.7,817.7 1303.2,828.7 
			1328.6,968.5 1430.3,1008.8 1493.6,961.2 1521.2,801.7 		"/>
	</g>
</g>
</svg>
