<?xml version="1.0" encoding="utf-8"?>
<!-- Generator: Adobe Illustrator 19.2.1, SVG Export Plug-In . SVG Version: 6.00 Build 0)  -->
<svg version="1.1" id="Layer_1" xmlns="http://www.w3.org/2000/svg" xmlns:xlink="http://www.w3.org/1999/xlink" x="0px" y="0px"
	 viewBox="0 0 938.9 333.9" style="enable-background:new 0 0 938.9 333.9;" xml:space="preserve">
<style type="text/css">
	.st0{fill:#231F20;}
	.st1{fill:#FFFFFF;}
	.st2{fill:#FDF7FA;}
</style>
<g>
	<g>
		<g>
			<path class="st0" d="M110.7,150.5l-2.3-2.8c-5.7-7.1-11.7-15.7-17.8-25.5c-7.8-12.5-13.5-21.2-16-24.6
				c-6.4-8.4-13.6-12.9-21.9-13.7c-5.8-0.6-11.6,1.2-16.6,5.1L36,89.1c-5.2,3.6-8.2,8.4-8.4,14c-0.4,12.7,7.7,22.4,19.5,23.5
				c12.8,1.2,15-4.2,15.4-9c0.5-5.1-4.4-11.6-9.1-12.3c-2.9-0.5-5.1,0.5-7,3.2l-5-3.3c2.8-4.5,7.2-6.6,12.4-6.1
				c4.3,0.4,8.5,2.9,11.5,6.8c2.8,3.8,4.2,8.4,3.8,12.8c-0.7,7.7-5.3,16.6-22.7,15c-16.4-1.6-27.6-15-26.1-31.3
				c0.8-7.8,4.8-14.8,11.3-19.7c6.2-4.7,14.3-6.9,22.1-6.1c12.5,1.2,23.9,10.4,34.9,28.1l5.2,8.4c-4.1-11.1-10.2-26.3-19.6-49
				C69.1,52,61.5,41.7,51,32.3c-3-2.4-6.1-4.5-9.2-6.3l-2.5-1.3c-6.1-1-11.4-3.5-16.1-7.7L9.2,4.6l10.1,1.6c5.4,0.8,12,2.7,20.1,5.8
				l1.2,0.4l3.2,7.4c8.7,4.9,15.6,10.1,20.9,16c8.4,9.2,16.5,24,24.1,44c0-0.1,0-0.3,0-0.4c-0.3-12.3,1.3-24.6,4.9-36.5
				c0,0,0-0.1-0.1-0.2C93.4,42,93,40.7,92,39c-1.5-2.4-2.1-4.7-1.5-6.4c0.2-1.3,1.3-4.5,10.6-20.3c0.4-1,1.1-2.2,1.8-3.6
				c0.3-0.5,0.6-1.1,0.9-1.7l4.6-8.5l1,9.6c0.4,3.8,0.2,7.9-0.5,12.4c-1.1,8-3.8,15.6-7.9,22.3c-2.1,6.5-3.6,13-4.5,18.8
				c-1.1,6.8-1.4,13.4-0.9,19.7c0.6-3.2,1.4-6.4,2.4-9.5l5.9,1.2c-0.3,3-0.4,6.1-0.2,9.1l0,0.3l0,0.3c-1.1,8.6-2.1,18.7,0.7,28.9
				l0.3,0.9c0.1,0.5,0.3,1,0.5,1.6c0.2,0.6,0.4,1.1,0.7,1.5l0.2,0.3l0.1,0.4c0.4,1,0.8,2.1,1.2,3.1l0.2,0.6l0,0.8
				c0.1,1.6,0.6,4.2,1.1,5.4c0.1,0.2,0.5,0.5,1.1,0.8l1,0.5l0.4,1c0.8,1.9,1.3,3.5,1.8,5l0.4,1.1c0.9,2.7,1.7,5.3,2.9,7.6l1.3,2.6
				l-2.5,1.4c-0.7,0.4-1.4,1-1.9,1.6L110.7,150.5z M96.3,34.2C96.3,34.2,96.3,34.2,96.3,34.2L96.3,34.2l0.8-2.2
				c-0.5,1-0.6,1.4-0.7,1.7L96.3,34.2z M96.4,33.6L96.4,33.6C96.4,33.6,96.4,33.6,96.4,33.6z"/>
		</g>
		<g>
			<path class="st0" d="M116.6,218H103V33.4h13.7v33.7c15.7-24.4,42.4-39.2,72.1-39.2c23.9,0,44.3,8.4,60.7,25.1
				c16.6,16.3,25.1,36.7,25.1,60.6c0,24-8.3,44.5-24.8,60.9h0c0,0,0,0,0,0c-16.4,16.4-36.9,24.8-60.9,24.8
				c-29.7,0-56.4-14.8-72.1-39.2V218z M109,212h1.7v-63.5l5.7-1.3c13.3,28.4,41,46.1,72.3,46.1c22.4,0,41.4-7.7,56.7-23h0
				c15.3-15.3,23-34.4,23-56.7c0-22.2-7.8-41.2-23.3-56.4c-15.2-15.5-34.2-23.3-56.4-23.3c-31.3,0-59,17.7-72.3,46.1l-5.7-1.3V39.4
				H109V212z M188.7,191.7c-20,0-38.2-7.3-54.1-21.6c-15.9-14.6-24-32.2-24-52.2V109c0-20.9,7.9-38.6,23.4-52.5
				c15.5-13.9,33.9-21,54.7-21c21.7,0,40.2,7.7,55.1,22.9c15.2,14.9,22.9,33.5,22.9,55.1c0,21.8-7.6,40.4-22.6,55.4
				C229.1,184.1,210.5,191.7,188.7,191.7z M188.7,41.6c-19.5,0-36.1,6.4-50.7,19.5c-14.2,12.7-21.4,28.9-21.4,48v8.9
				c0,18.5,7.2,34.1,22,47.7c14.8,13.3,31.6,20,50.1,20c20.1,0,37.3-7,51.2-20.9c13.9-13.8,20.9-31.1,20.9-51.2
				c0-20-7.1-37.1-21.2-50.9l0,0C225.8,48.7,208.7,41.6,188.7,41.6z"/>
		</g>
		<g>
			<path class="st0" d="M414.6,193.2H268.3V33.7h13.7v145.8h132.7V193.2z M274.3,187.2h134.3v-1.7H275.9V39.7h-1.7V187.2z"/>
		</g>
		<g>
			<path class="st0" d="M456.7,199.4c-23.7,0-44.2-8.3-60.9-24.8c-16.5-16.8-24.8-37.3-24.8-61c0-23.8,8.3-44.2,24.8-60.6
				c16.6-16.6,37.1-25.1,60.9-25.1c29.7,0,56.4,14.7,72.1,39.2V33.7h13.7v159.5h-13.7v-33C513.1,184.6,486.4,199.4,456.7,199.4z
				 M456.7,33.9c-22.5,0-41,7.6-56.7,23.3c-15.3,15.3-23,34.2-23,56.4c0,22.1,7.8,41.1,23,56.7c15.5,15.2,34.6,23,56.7,23
				c31.3,0,59-17.7,72.3-46.1l5.7,1.3v38.7h1.7V39.7h-1.7v39l-5.7,1.3C515.8,51.6,488,33.9,456.7,33.9z M456.7,191.7
				c-21.8,0-40.4-7.6-55.4-22.6c-15-15-22.6-33.7-22.6-55.4c0-21.8,7.6-40.4,22.6-55.4c15-15,33.7-22.6,55.4-22.6
				c18.6,0,35.2,5.9,49.4,17.5c14.5,11.6,23.6,26.8,27.1,44.9l0,0.1c1.1,6.5,1.6,11.5,1.6,15.8c0,21.4-7.7,39.9-22.9,55.1
				C496.5,184.1,478,191.7,456.7,191.7z M456.7,41.6c-20.1,0-37.3,7-51.2,20.9c-13.8,13.9-20.9,31.1-20.9,51.2
				c0,20.1,7,37.3,20.9,51.2c13.9,13.9,31.1,20.9,51.2,20.9c19.6,0,36.7-7,50.9-20.9c14-14,21.2-31.2,21.2-50.9
				c0-3.9-0.5-8.8-1.5-14.8c-3.3-17-11.5-30.5-25-41.4C489.3,47,473.9,41.6,456.7,41.6z"/>
		</g>
		<g>
			<path class="st0" d="M752.2,170.6l-3.4-0.5c-2.2-0.3-4.6-0.5-7.4-0.6l-2.9-0.1V47.1h-54.2V33.4h54.2v-26h13.7v26h53.9v13.7h-53.9
				V170.6z M744.5,163.7c0.6,0,1.1,0.1,1.7,0.1V41.1h53.9v-1.7h-53.9v-26h-1.7v26h-54.2v1.7h54.2V163.7z"/>
		</g>
		<g>
			<path class="st0" d="M626.2,320.1l-114.3-0.4l0.5-130.5l12.6,0l-0.4,117.9l97.1,0.3l0.7,2.1c0.6,2,1.3,3.8,2.1,5.9L626.2,320.1z
				 M517.9,313.7l99.6,0.3c-0.1-0.2-0.1-0.4-0.2-0.6l-98.8-0.3l0.4-117.9l-0.6,0L517.9,313.7z"/>
		</g>
		<g>
			<path class="st0" d="M653.5,175.8l-12.6,0L641,158l12.6,0L653.5,175.8z M646.9,169.7l0.6,0l0-5.7l-0.6,0L646.9,169.7z"/>
		</g>
		<g>
			<path class="st0" d="M652.7,326.9l-5.8-8.9c-0.3-0.4-0.5-0.8-0.8-1.3l-0.8,1.6l-3-2.8c-0.1-0.1-0.2-0.2-0.3-0.2l-0.2-0.2
				l-1.8-2.3l0.5-131.8l12.6,0L652.7,326.9z M644.9,314.8C644.9,314.8,644.9,314.8,644.9,314.8C644.9,314.8,644.9,314.8,644.9,314.8
				z M646.2,309.4c0.2,0,0.4,0,0.6,0.1l0.4-122.3l-0.6,0L646.2,309.4z"/>
		</g>
		<g>
			<path class="st0" d="M678.2,320.3l-12.6,0l0.3-96.8c0.1-22.3,9.5-40.1,28-53c11.4-8,24.1-12.1,37.8-12.1c0.1,0,0.2,0,0.2,0
				c27.4,0.1,50.7,16.1,61,41.8l1.6,4.1l-13.5,0l-0.8-1.7c-8.7-19.1-27.7-31.5-48.3-31.6c-0.1,0-0.1,0-0.2,0
				c-14,0-25.9,4.6-36.2,14.2c-9.2,8.7-14.7,19.4-16.3,31.9l79.2,0.3l0,12.9l-79.8-0.3L678.2,320.3z M671.6,314.3l0.6,0l0.3-90.4
				l79.8,0.3l0-0.9l-79.7-0.3l0.2-3.2c1.2-15.4,7.4-28.5,18.6-39c11.4-10.5,25-15.8,40.3-15.8c0.1,0,0.2,0,0.2,0
				c22.3,0.1,42.9,13.1,52.9,33.3l0.7,0c-10.1-21-30.2-33.9-53.6-33.9c-0.1,0-0.1,0-0.2,0c-12.4,0-24,3.7-34.4,11
				c-16.8,11.7-25.3,27.9-25.4,48.1L671.6,314.3z"/>
		</g>
		<g>
			<path class="st0" d="M860.5,326.3c-0.1,0-0.2,0-0.3,0c-20.6-0.1-38.4-7.4-52.9-21.7c-14.3-14.7-21.5-32.5-21.4-53.1
				c0.1-20.7,7.4-38.4,21.7-52.7c14.5-14.4,32.2-21.6,52.8-21.6c0.1,0,0.2,0,0.3,0c31.9,0.1,59.3,19.6,70,49.7l1.4,4l-12.4,0
				l-0.3-0.3l-117.1-0.4c-2.6,6.7-3.9,13.9-3.9,21.4c-0.1,17.3,5.9,32.1,17.8,44.1c11.9,11.9,26.6,18,43.9,18.1c0.1,0,0.1,0,0.2,0
				c12.6,0,24.2-3.5,34.4-10.5c10.7-7.1,18.2-16.3,23.1-28.3l0.8-1.9l13.2,0l-1.4,4c-5.4,15.1-14.3,26.8-27.2,35.8
				C890.6,321.8,876.2,326.3,860.5,326.3z M860.4,183.1c-19.2,0-35.1,6.5-48.5,19.9c-13.2,13.1-19.9,29.4-20,48.4
				c-0.1,19,6.5,35.4,19.6,48.9c13.3,13.2,29.7,19.9,48.7,19.9c14.5,0,27.9-4.1,39.7-12.3c10.7-7.5,18.4-17,23.4-28.9l-0.5,0
				c-5.4,12.2-13.4,21.7-24.5,29.1c-11.3,7.6-24,11.5-37.8,11.5c-0.1,0-0.2,0-0.2,0c-18.9-0.1-35.2-6.7-48.2-19.9
				c-13-13.1-19.6-29.4-19.5-48.3c0-8.9,1.7-17.5,5.1-25.5l0.8-1.9l123.6,0.4l0.3,0.3l1.2,0c-10.7-25.4-34.9-41.6-62.8-41.7
				C860.6,183.1,860.5,183.1,860.4,183.1z M922.9,223.9l-124.3-0.4l2.4-4.4c12-22.1,34.2-35.3,59.5-35.3c0.1,0,0.2,0,0.2,0
				c25.3,0.1,47.6,13.4,59.8,35.7L922.9,223.9z M808.9,217.5l103.7,0.4c-11.5-17.6-30.5-28-51.8-28.1c-0.1,0-0.1,0-0.2,0
				C839.2,189.8,820.2,200,808.9,217.5z"/>
		</g>
		<g>
			<path class="st0" d="M483.7,172.1l4.1-7.5c4.8-8.9,12.2-15.4,22-19.3c7.8-6.4,13.7-12.5,18-18.4l5.4,2.3l-0.6,3.5l-0.5,0.6
				c-4.6,5.7-10.2,11.2-16.8,16.3l-1.3,4.1c-0.2,1-0.2,1.5-0.2,1.9l0.3,2l-1.8,1c-6.8,3.9-13.6,7.2-20.8,10.2L483.7,172.1z
				 M502,156.5c-0.7,0.5-1.3,1.1-1.9,1.7c0.8-0.4,1.5-0.8,2.3-1.2L502,156.5z"/>
		</g>
		<g>
			<path class="st0" d="M567.7,193.2h-13.5V33.4h13.7v26.7c13.8-20.4,36.2-32.2,62-32.2c20.1,0,36.9,6.6,51.4,20.1
				c13.8,12.9,21.9,28.8,24,47.3h0.6v82.9l-4.1-1.6c-2.2-0.9-4.6-1.6-7.2-2.2l-2.3-0.5v-69.8C692.1,86.9,686,72,674,60
				c-10.5-10.7-23.1-16.8-37.8-18.1c16.3,3.2,28.2,12.1,35.5,26.6c2.7,5.4,4,11.3,4,18.2c0,8.4-1.4,14.4-4.5,18.9
				c-7.5,11.4-18.5,17.2-32.8,17.2c-15.1,0-26.1-6.2-31.8-17.9c-1.4-2.8-2.1-6-2.1-9.3c0-12.8,10.5-22.9,23.8-22.9
				c1.1,0,2.3,0.1,3.4,0.3V72l1.9,1.2c0.1,0,0.2,0,0.3,0.1l0.9,0.2l0.7,0.7c0.1,0,0.1,0,0.2,0.1l0.1-0.2c11.3,3.3,19.2,10,24.2,20.3
				l3.2,6.7l-7-2.6c-6-2.2-12.9-5.7-21.3-10.7l-0.3-0.2c-2-1.6-2.7-5.6-2.9-8.1c-0.9-0.1-1.9-0.2-3.2-0.2c-7.4,0-15.2,5.4-16.4,11.4
				l-0.1,0.3l-0.1,0.3c-0.3,0.8-0.7,2.4-0.7,5.3c0,3.2,1.2,6.2,3.8,9c4.4,4.7,9.7,7.8,15.6,9.2c7.7,1.7,15,0.9,21.6-2.2
				c9.5-4.6,14.6-11.8,15.5-21.8c0.8-10-1.5-18.5-7-25.1c-9.6-11.6-22.6-17.3-39.7-17.3c-20.5,0-35.3,8.3-45.5,25.5
				c-5.5,9-8.1,19.2-7.9,30.3l0.2,18.6c1.5-5.7,3.2-10.4,5.1-14.3c3.4-7.1,8.7-14.3,15.3-20.9c0.1-1.8,0.4-4.2,1-6.6l0.3-1.2
				l25.8-16.4l-3.5,8.6c-0.6,1.4-1.6,3-3,5.1c-0.5,0.7-1,1.5-1.5,2.4l-0.1,0.1c-3.5,5.1-8,9.1-13,11.5c-6.8,6.8-11.6,13.2-14.7,19.4
				c-5.2,11.4-8.6,28.5-10.1,50.6L567.7,193.2z M560.2,187.2h1.8l1.7-26.6c0-0.1,0-0.2,0-0.4l-1.3,0l-0.6-56.1
				c-0.3-12.2,2.6-23.5,8.7-33.5c5.4-9,12.1-15.9,20.1-20.7l-0.9-1.3c11.9-8.7,25.4-13.1,40.1-13.1c19,0,35.3,6.8,48.4,20.2
				c13.2,13.2,19.8,29.4,19.8,48.4v65c0.6,0.1,1.1,0.3,1.7,0.5v-68.3h-0.1l-0.2-2.8c-1.4-18.1-9-33.7-22.3-46.1
				c-13.3-12.4-28.8-18.5-47.3-18.5c-27.3,0-50.6,14.5-62.3,38.7l-5.7-1.3V39.4h-1.7V187.2z M649,88.6c0.1,0,0.1,0.1,0.2,0.1
				C649.2,88.6,649.1,88.6,649,88.6L649,88.6z M635.4,74c0.1,0,0.2,0.1,0.3,0.1c-0.1-0.1-0.2-0.2-0.3-0.2V74z M635.2,73.9
				L635.2,73.9L635.2,73.9z"/>
		</g>
		<g>
			<rect x="554.2" y="123.4" class="st0" width="6" height="52.1"/>
		</g>
	</g>
	<g>
		<g>
			<path class="st1" d="M110,134.4c-0.5-1.6-1.1-3.2-1.8-4.8c-1-0.5-1.9-1.1-2.4-2.3c-0.7-1.7-1.3-4.6-1.3-6.4c0-0.2,0-0.3,0-0.5
				c-0.4-1-0.8-2.1-1.2-3.2c-0.4-0.6-0.8-1.4-1.1-2.3c-0.2-0.7-0.4-1.4-0.6-2.2c0,0,0,0,0,0c0-0.1,0-0.2,0-0.3
				c-2.8-10.4-2.1-20.3-0.8-30.4c-0.1-3.2-0.1-6.4,0.2-9.5c-1.8,5.8-3,11.9-3.7,18.4c-0.4,4-0.5,8.1-0.3,12.5l-3.1-13.5
				c-1.9-9.3-1.9-19-0.4-28.9c0.9-5.9,2.5-12.6,4.7-19.6c4.1-6.5,6.7-13.8,7.7-21.6c0.8-4.6,0.8-8.4,0.5-11.6
				c-1.1,2.1-2.3,3.9-2.7,5.1C97,25.2,93.6,31.7,93.4,33.3c-0.4,0.9,0.1,2.5,1.2,4.2c1.3,2.3,1.8,3.9,2.1,4.6l2.6-7l1.8-5.5l3-8.2
				L97.8,40c-4.4,13.1-6.3,26.4-6,39.3c0.3,10.1,2.4,21,6.2,32.9l-0.1,0.9l-10.7-29c-7.9-21.8-16.2-37-24.7-46.3
				c-6-6.5-13.6-12-23.2-17l-9-4.6l10.8,5.1l-2.8-6.6c-7.9-3-14.3-4.8-19.6-5.7l6.4,5.6c4.3,3.9,9.1,6.2,15,7.1l3,1.5
				c3.3,1.9,6.5,4.1,9.7,6.6c10.7,9.5,18.8,20.3,24.2,32.8c10.9,26.5,18.8,46.1,23.2,59.1c2.9,8.8,5.2,14.6,7.1,17.6l-5.4-8.7
				c-2.5-3.1-5-7.1-7.9-12.1l-7.9-12.7C75.8,89.4,65,80.5,53.5,79.4c-14.6-1.4-28.8,8.5-30.2,23.2c-1.4,14.6,8.7,26.6,23.4,28
				c12.1,1.2,18.5-2.9,19.4-12.3c0.7-7.5-5.1-15.6-12.6-16.3c-4-0.4-7.3,1.2-9.6,4.7c2.5-3.5,5.8-5.1,9.8-4.4
				c6.5,0.9,12.3,9,11.7,15.6c-0.9,9-7.2,12.8-18.7,11.7C33.1,128.3,24.1,117,24.5,103c0.3-6.6,3.7-12.2,9.7-16.3
				c5.8-4.5,12.2-6.4,18.8-5.7c9,0.9,17,5.7,24,14.9c2.5,3.4,8,11.8,16.1,24.8c6.1,9.8,12,18.2,17.6,25.2c0.8-0.9,1.7-1.7,2.7-2.2
				C112,140.7,111.1,137.6,110,134.4z"/>
		</g>
		<g>
			<path class="st1" d="M247.5,172.5c-15.9,15.9-35.5,23.9-58.8,23.9c-32.2,0-61.3-18.4-75.1-47.8V215H106V36.4h7.7v42.3
				c13.8-29.4,42.9-47.8,75.1-47.8c23,0,42.6,8,58.5,24.2c16.2,15.9,24.2,35.5,24.2,58.5C271.4,136.9,263.5,156.5,247.5,172.5z
				 M241.7,60.6c-14.4-14.7-32.2-22.1-53-22.1c-20.2,0-37.7,6.7-52.7,20.2s-22.4,30.3-22.4,50.2v8.9c0,19.3,7.7,35.8,23,49.9
				c15.3,13.8,32.8,20.8,52.1,20.8c21.1,0,38.9-7.4,53.3-21.8c14.4-14.4,21.8-32.2,21.8-53.3C263.8,92.8,256.4,75,241.7,60.6z"/>
		</g>
		<g>
			<path class="st1" d="M411.6,190.2H271.3V36.7h7.7v145.8h132.7V190.2z"/>
		</g>
		<g>
			<path class="st1" d="M539.5,190.2h-7.7v-41.7c-13.8,29.4-42.9,47.8-75.1,47.8c-23,0-42.6-8-58.8-23.9
				C382,156.2,374,136.6,374,113.6c0-23,8-42.6,23.9-58.5c16.2-16.2,35.8-24.2,58.8-24.2c32.2,0,61.3,18.4,75.1,47.8v-42h7.7V190.2z
				 M530.3,98.6c-3.4-17.5-12-31.9-26-43.2c-13.8-11.3-29.7-16.9-47.5-16.9c-21.1,0-38.9,7.4-53.3,21.8
				c-14.4,14.4-21.8,32.2-21.8,53.3c0,21.1,7.4,38.9,21.8,53.3c14.4,14.4,32.2,21.8,53.3,21.8c20.5,0,38.3-7.4,53-21.8
				c14.7-14.7,22.1-32.5,22.1-53C531.8,109.3,531.2,104.1,530.3,98.6z"/>
		</g>
		<g>
			<path class="st1" d="M749.2,36.4v-26h-7.7v26h-54.2v7.7h54.2v122.4c2.5,0.1,5.1,0.3,7.7,0.6v-123h53.9v-7.7H749.2z"/>
		</g>
		<g>
			<path class="st1" d="M619.4,310.5l-97.9-0.3l0.4-117.9l-6.6,0l-0.5,124.5l107,0.4C621,314.9,620.1,312.7,619.4,310.5z"/>
		</g>
		<g>
			
				<rect x="641.4" y="163.6" transform="matrix(3.505153e-03 -1 1 3.505153e-03 478.0777 813.5544)" class="st1" width="11.7" height="6.6"/>
		</g>
		<g>
			<path class="st1" d="M643.6,184.1l-0.4,127.8c0.3,0.4,0.6,0.8,0.9,1.2c0.1,0.1,0.2,0.2,0.4,0.3c0.5-1,2.2-1.5,3-0.2
				c0.8,1.2,1.6,2.4,2.3,3.7l0.5-132.7L643.6,184.1z"/>
		</g>
		<g>
			<path class="st1" d="M783,201.3c-9.2-20.2-29-33.2-51-33.3c-14.8-0.1-27.6,4.9-38.5,15c-10.6,10-16.5,22.5-17.6,37l79.5,0.3
				l0,6.9l-79.8-0.3l-0.3,90.4l-6.6,0l0.3-93.8c0.1-21.2,8.9-38.1,26.7-50.5c10.9-7.6,23.1-11.6,36.4-11.5
				c26.2,0.1,48.5,15.5,58.2,40L783,201.3z"/>
		</g>
		<g>
			<path class="st1" d="M927.7,276c-5.1,14.3-13.6,25.7-26.1,34.4c-12.5,8.7-26.3,12.9-41.4,12.8c-19.9-0.1-36.8-7-50.8-20.8
				c-13.7-14.1-20.6-31.1-20.5-51c0.1-19.9,7-36.8,20.8-50.6c14.1-14,31.1-20.8,51-20.8c30.7,0.1,56.9,18.7,67.2,47.7l-6.9,0
				l-0.3-0.3l-120.3-0.4c-3.2,7.7-4.8,15.9-4.9,24.4c-0.1,18.3,6.2,33.7,18.7,46.2c12.4,12.5,27.8,18.9,46.1,19
				c13.3,0,25.5-3.6,36.4-11c11.2-7.4,19.1-17.2,24.2-29.6L927.7,276z M917.8,220.9c-11.6-21.2-32.8-34-57.1-34.1
				c-24.1-0.1-45.6,12.6-57.1,33.7L917.8,220.9z"/>
		</g>
		<g>
			<path class="st1" d="M530.2,128.6l-0.5,2.7c-5.1,6.3-11.5,12.4-19.3,18l-8.9,6.5l11-7.7l-1.5,4.7c-0.2,1.2-0.4,2.1-0.2,3.1
				c-8,4.5-14.7,7.7-20.4,10.1c4.6-8.5,11.6-14.4,20.9-18.1C519.1,141.5,525.5,135.2,530.2,128.6z"/>
		</g>
		<g>
			<path class="st1" d="M557.2,187.2v3.1h7.7l1.8-29.4c1.5-23.3,5.2-40.4,10.4-51.8c3.4-6.7,8.6-13.5,15.6-20.5
				c4.6-2.1,8.9-5.8,12.3-10.7c2.1-3.4,3.7-5.5,4.3-7l-16.9,10.7c-0.6,2.8-0.9,5.2-0.9,6.7l11.6-10.4l-10.1,9.5
				c-7.7,7-13.5,14.7-17.2,22.4c-5.2,10.4-8.6,27.3-10.4,50.6l-0.6-56.1c-0.3-11.6,2.5-22.4,8.3-31.9c10.7-18.1,26.7-27,48.1-27
				c18.1,0,31.9,6.1,42,18.4c5.8,7,8.6,16.2,7.7,27.3c-0.9,10.7-6.4,19-17.2,24.2c-7,3.4-15,4.3-23.6,2.5
				c-6.4-1.5-12.3-4.9-17.2-10.1c-3.1-3.4-4.6-7-4.6-11c0-2.8,0.3-4.9,0.9-6.4c1.5-7.7,10.7-13.8,19.3-13.8c4.3,0,7,0.6,8.6,2.1
				l12.3,9.5c-6.4-4.6-11.3-8.3-14.7-10.4c0,0.3,0.3,6.4,1.8,7.7c8.3,4.9,15,8.3,20.8,10.4c-4.6-9.5-12-15.6-22.4-18.7h0.3
				c-0.9,0-1.5-0.3-1.8-0.6c-1.8-0.3-3.7-0.6-5.2-0.6c-11.3,0-20.8,8.6-20.8,19.9c0,2.8,0.6,5.5,1.8,8c5.2,10.7,15,16.2,29.1,16.2
				c13.2,0,23.3-5.2,30.3-15.9c2.8-4,4-9.5,4-17.2c0-6.4-1.2-11.9-3.7-16.9c-8.9-17.5-24.8-26.3-47.8-26.3c-11,0-20.8,2.5-29.7,7.7
				c11.3-8.3,24.2-12.6,38.3-12.6c18.1,0,33.7,6.4,46.3,19.3c12.6,12.6,19,28.2,19,46.3v67.4c2.6,0.6,5.2,1.3,7.7,2.3V98.3h-0.3
				c-1.5-19.3-9.5-35.2-23.3-48.1c-13.8-12.9-30-19.3-49.3-19.3c-28.2,0-52.7,15-65,40.4V36.4h-7.7v70.8V187.2z"/>
		</g>
		<g>
			<line class="st1" x1="557.2" y1="123.4" x2="557.2" y2="175.5"/>
		</g>
	</g>
	<g>
		<g>
			<path class="st1" d="M110,134.4c-0.5-1.6-1.1-3.2-1.8-4.8c-1-0.5-1.9-1.1-2.4-2.3c-0.7-1.7-1.3-4.6-1.3-6.4c0-0.2,0-0.3,0-0.5
				c-0.4-1-0.8-2.1-1.2-3.2c-0.4-0.6-0.8-1.4-1.1-2.3c-0.2-0.7-0.4-1.4-0.6-2.2c0,0,0,0,0,0c0-0.1,0-0.2,0-0.3
				c-2.8-10.4-2.1-20.3-0.8-30.4c-0.1-3.2-0.1-6.4,0.2-9.5c-1.8,5.8-3,11.9-3.7,18.4c-0.4,4-0.5,8.1-0.3,12.5l-3.1-13.5
				c-1.9-9.3-1.9-19-0.4-28.9c0.9-5.9,2.5-12.6,4.7-19.6c4.1-6.5,6.7-13.8,7.7-21.6c0.8-4.6,0.8-8.4,0.5-11.6
				c-1.1,2.1-2.3,3.9-2.7,5.1C97,25.2,93.6,31.7,93.4,33.3c-0.4,0.9,0.1,2.5,1.2,4.2c1.3,2.3,1.8,3.9,2.1,4.6l2.6-7l1.8-5.5l3-8.2
				L97.8,40c-4.4,13.1-6.3,26.4-6,39.3c0.3,10.1,2.4,21,6.2,32.9l-0.1,0.9l-10.7-29c-7.9-21.8-16.2-37-24.7-46.3
				c-6-6.5-13.6-12-23.2-17l-9-4.6l10.8,5.1l-2.8-6.6c-7.9-3-14.3-4.8-19.6-5.7l6.4,5.6c4.3,3.9,9.1,6.2,15,7.1l3,1.5
				c3.3,1.9,6.5,4.1,9.7,6.6c10.7,9.5,18.8,20.3,24.2,32.8c10.9,26.5,18.8,46.1,23.2,59.1c2.9,8.8,5.2,14.6,7.1,17.6l-5.4-8.7
				c-2.5-3.1-5-7.1-7.9-12.1l-7.9-12.7C75.8,89.4,65,80.5,53.5,79.4c-14.6-1.4-28.8,8.5-30.2,23.2c-1.4,14.6,8.7,26.6,23.4,28
				c12.1,1.2,18.5-2.9,19.4-12.3c0.7-7.5-5.1-15.6-12.6-16.3c-4-0.4-7.3,1.2-9.6,4.7c2.5-3.5,5.8-5.1,9.8-4.4
				c6.5,0.9,12.3,9,11.7,15.6c-0.9,9-7.2,12.8-18.7,11.7C33.1,128.3,24.1,117,24.5,103c0.3-6.6,3.7-12.2,9.7-16.3
				c5.8-4.5,12.2-6.4,18.8-5.7c9,0.9,17,5.7,24,14.9c2.5,3.4,8,11.8,16.1,24.8c6.1,9.8,12,18.2,17.6,25.2c0.8-0.9,1.7-1.7,2.7-2.2
				C112,140.7,111.1,137.6,110,134.4z"/>
			<path class="st2" d="M110.8,146.3C110.8,146.3,110.8,146.3,110.8,146.3c-0.2,0-0.3-0.1-0.4-0.2c-5.6-7-11.6-15.5-17.6-25.3
				c-7.9-12.7-13.5-21.3-16.1-24.8C69.9,87.2,61.9,82.2,53,81.4c-6.5-0.6-12.9,1.3-18.4,5.6c-5.9,4.1-9.2,9.6-9.5,16
				c-0.4,14.1,8.5,24.9,21.8,26.1c11.4,1.1,17.3-2.6,18.2-11.3c0.6-6.4-5.2-14.2-11.3-15c-3.8-0.7-6.9,0.8-9.4,4.2
				c-0.2,0.2-0.4,0.3-0.7,0.1c-0.2-0.1-0.3-0.4-0.1-0.7c2.3-3.7,5.8-5.4,10-5c3.6,0.4,7.2,2.5,9.7,5.8c2.5,3.3,3.7,7.3,3.3,11
				c-0.9,9.6-7.6,13.9-19.9,12.7c-15-1.4-25.2-13.7-23.8-28.5c0.7-7.1,4.4-13.5,10.3-17.9c5.7-4.3,13.2-6.4,20.4-5.7
				c11.7,1.1,22.5,9.9,33,26.9l7.9,12.7c2.9,4.9,5.4,9,7.9,12l1.2,2c-1.1-2.7-2.3-6.2-3.7-10.4c-3.9-11.6-10.7-28.7-23.2-59
				c-5.3-12.3-13.2-23-24-32.6c-3.1-2.5-6.4-4.7-9.6-6.5L40,22.3c-5.9-0.9-10.7-3.2-15.2-7.2l-6.4-5.6c-0.2-0.1-0.2-0.4-0.1-0.6
				s0.3-0.3,0.5-0.3c5.2,0.8,11.6,2.7,19.7,5.7c0.1,0,0.2,0.1,0.3,0.3l2.8,6.6c0.1,0.1,0.1,0.3,0,0.4c8.9,4.9,15.9,10.1,21.2,16
				c8.7,9.5,17,25.1,24.8,46.5l7.5,20.3c-2.4-9-3.7-17.2-3.9-25c-0.3-12.4,1.4-24.8,5.1-36.8c-0.1-0.1-0.2-0.1-0.3-0.3
				c0-0.1-0.1-0.2-0.1-0.4c-0.3-0.8-0.8-2.2-1.9-4.1c-1.2-1.8-1.6-3.5-1.2-4.6c0.1-0.7,0.6-3,10.4-19.9c0.3-0.8,0.9-2,1.7-3.4
				c0.3-0.5,0.6-1.1,1-1.7c0.1-0.2,0.3-0.3,0.5-0.2c0.2,0,0.4,0.2,0.4,0.4c0.4,3.6,0.2,7.4-0.5,11.7c-1.1,7.9-3.7,15.2-7.8,21.7
				c-2.2,6.8-3.8,13.5-4.7,19.5c-1.6,10.2-1.5,19.8,0.4,28.8l2,8.8c0-2.7,0.1-5.3,0.4-7.8c0.6-6.4,1.9-12.6,3.7-18.5
				c0.1-0.2,0.3-0.4,0.6-0.3c0.2,0,0.4,0.3,0.4,0.5c-0.3,3.1-0.4,6.3-0.2,9.4c-1.2,9-2.2,19.5,0.8,30.2l0,0.1c0,0,0,0.1,0.1,0.1
				l0.1,0.5c0.2,0.6,0.3,1.1,0.5,1.7c0.3,0.8,0.6,1.5,1,2.1c0,0,0,0.1,0.1,0.1c0.4,1.1,0.8,2.1,1.2,3.1c0,0.1,0,0.1,0,0.2l0,0.1
				c0,0.1,0,0.2,0,0.3c0.1,1.7,0.6,4.6,1.3,6.3c0.4,1,1.2,1.5,2.2,2.1c0.1,0.1,0.2,0.1,0.2,0.2c0.7,1.9,1.3,3.4,1.8,4.8l0.4,1.1
				c0.9,2.8,1.8,5.5,3.1,8c0.1,0.2,0,0.5-0.2,0.6c-1,0.6-1.9,1.3-2.6,2.1C111,146.2,110.9,146.3,110.8,146.3z M50.6,80.3
				c0.8,0,1.6,0,2.5,0.1c9.2,0.9,17.4,6,24.3,15.1c2.6,3.5,8.2,12.1,16.2,24.8c5.9,9.5,11.7,17.8,17.2,24.7c0.6-0.6,1.3-1.2,2.1-1.7
				c-1.2-2.5-2.1-5-2.9-7.7l-0.4-1.1c-0.5-1.4-1-2.8-1.7-4.6c-1-0.6-2-1.2-2.5-2.5c-0.7-1.8-1.3-4.8-1.4-6.6c0-0.1,0-0.3,0-0.4
				c-0.4-1-0.8-2-1.2-3c-0.5-0.7-0.9-1.5-1.1-2.3c-0.2-0.6-0.3-1.1-0.5-1.7l-0.1-0.3c-0.1-0.1-0.1-0.2-0.1-0.2l0-0.3
				c-3-10.8-2-21.4-0.8-30.4c-0.1-1.6-0.1-3.3,0-4.9c-1.1,4.5-2,9.2-2.4,13.9c-0.4,4-0.5,8-0.3,12.5c0,0.3-0.2,0.5-0.4,0.5
				c-0.2,0-0.5-0.1-0.5-0.4l-3.1-13.5c-0.2-0.9-0.4-1.9-0.5-2.8c0.9,7.6,2.8,15.8,5.6,24.6c0,0.1,0,0.1,0,0.2l-0.1,0.9
				c0,0.2-0.2,0.4-0.4,0.4c-0.1,0-0.1,0-0.2,0c1.1,3,2,5.6,2.9,8.1c3.1,9.2,5.2,14.6,7,17.4l0.1,0.1c0.1,0.2,0.1,0.5-0.2,0.7
				c-0.2,0.1-0.5,0.1-0.7-0.2c0,0-0.1-0.1-0.1-0.1l-5.4-8.5c-2.5-3.1-5-7.1-7.9-12.1l-7.9-12.7C75.3,89.6,64.8,81,53.4,79.9
				c-7-0.7-14.2,1.3-19.7,5.5c-5.8,4.3-9.3,10.4-9.9,17.2c-1.2,12,5.6,22.2,16.3,26c-10.1-3.7-16.5-13.5-16.1-25.7
				c0.3-6.7,3.8-12.5,9.9-16.7C39,82.3,44.7,80.3,50.6,80.3z M57,33.1c9,8.8,15.8,18.5,20.5,29.5c5.6,13.6,10.1,24.6,13.6,33.5
				l-4.4-11.8c-7.8-21.3-16-36.8-24.6-46.2C60.6,36.4,58.9,34.8,57,33.1z M104,20.9c0.1,0,0.1,0,0.2,0c0.3,0.1,0.4,0.4,0.3,0.6
				l-6.2,18.6c-0.1,0.4-0.3,0.8-0.4,1.2c4-6.4,6.6-13.6,7.6-21.3c0.6-3.6,0.8-6.8,0.6-9.9c-0.1,0.1-0.1,0.2-0.2,0.3
				c-0.8,1.3-1.4,2.5-1.7,3.3C95.9,28.1,94,32.3,93.9,33.3c0,0.1,0,0.1,0,0.1c-0.3,0.7,0.1,2.2,1.1,3.7c0.8,1.4,1.3,2.6,1.7,3.4
				l2.1-5.7l1.8-5.5l3-8.2C103.6,21.1,103.8,20.9,104,20.9z M20.4,9.9l5.1,4.5c4,3.6,8.3,5.8,13.4,6.7l-8.7-4.5
				c-0.2-0.1-0.3-0.4-0.2-0.6c0.1-0.2,0.4-0.3,0.6-0.2l9.6,4.6L38,15.2C31,12.5,25.2,10.8,20.4,9.9z"/>
		</g>
		<g>
			<path class="st1" d="M247.5,172.5c-15.9,15.9-35.5,23.9-58.8,23.9c-32.2,0-61.3-18.4-75.1-47.8V215H106V36.4h7.7v42.3
				c13.8-29.4,42.9-47.8,75.1-47.8c23,0,42.6,8,58.5,24.2c16.2,15.9,24.2,35.5,24.2,58.5C271.4,136.9,263.5,156.5,247.5,172.5z
				 M241.7,60.6c-14.4-14.7-32.2-22.1-53-22.1c-20.2,0-37.7,6.7-52.7,20.2s-22.4,30.3-22.4,50.2v8.9c0,19.3,7.7,35.8,23,49.9
				c15.3,13.8,32.8,20.8,52.1,20.8c21.1,0,38.9-7.4,53.3-21.8c14.4-14.4,21.8-32.2,21.8-53.3C263.8,92.8,256.4,75,241.7,60.6z"/>
			<path class="st2" d="M113.6,215.5H106c-0.3,0-0.5-0.2-0.5-0.5V36.4c0-0.3,0.2-0.5,0.5-0.5h7.7c0.3,0,0.5,0.2,0.5,0.5v40.2
				c14.2-28.5,42.6-46.2,74.6-46.2c23.2,0,43,8.2,58.9,24.4c16.2,15.8,24.3,35.7,24.3,58.9c0,23.3-8.1,43.2-24,59.2l0,0l0,0
				c-16,16-35.9,24-59.2,24c-32,0-60.3-17.6-74.6-46.2V215C114.1,215.3,113.9,215.5,113.6,215.5z M106.5,214.6h6.7v-66
				c0-0.2,0.2-0.4,0.4-0.5c0.2-0.1,0.5,0.1,0.5,0.3c13.7,29.3,42.3,47.5,74.6,47.5c23,0,42.7-8,58.5-23.8l0,0
				c15.8-15.8,23.8-35.4,23.8-58.5c0-22.9-8.1-42.5-24.1-58.2c-15.7-16-35.2-24.1-58.2-24.1c-32.3,0-60.9,18.2-74.6,47.5
				c-0.1,0.2-0.3,0.3-0.5,0.3c-0.2,0-0.4-0.2-0.4-0.5V36.9h-6.7V214.6z M188.7,189.2c-19.3,0-37-7.1-52.4-21
				c-15.6-14.3-23.1-30.8-23.1-50.3V109c0-20.2,7.6-37.2,22.5-50.6c15-13.5,32.9-20.3,53-20.3c21,0,38.9,7.5,53.3,22.2
				c14.7,14.4,22.2,32.4,22.2,53.4c0,21.1-7.4,39.1-21.9,53.7C227.8,181.8,209.8,189.2,188.7,189.2z M188.7,39.1
				c-20.2,0-37.3,6.6-52.4,20.1c-14.7,13.2-22.2,30-22.2,49.9v8.9c0,19.2,7.5,35.5,22.8,49.6c15.3,13.7,32.7,20.7,51.8,20.7
				c20.8,0,38.6-7.3,53-21.6c14.3-14.3,21.6-32.2,21.6-53c0-20.7-7.4-38.4-21.9-52.7c0,0,0,0,0,0C227.1,46.4,209.4,39.1,188.7,39.1z
				"/>
		</g>
		<g>
			<path class="st1" d="M411.6,190.2H271.3V36.7h7.7v145.8h132.7V190.2z"/>
			<path class="st2" d="M411.6,190.7H271.3c-0.3,0-0.5-0.2-0.5-0.5V36.7c0-0.3,0.2-0.5,0.5-0.5h7.7c0.3,0,0.5,0.2,0.5,0.5v145.4
				h132.2c0.3,0,0.5,0.2,0.5,0.5v7.7C412.1,190.5,411.9,190.7,411.6,190.7z M271.8,189.7h139.3v-6.7H278.9c-0.3,0-0.5-0.2-0.5-0.5
				V37.2h-6.7V189.7z"/>
		</g>
		<g>
			<path class="st1" d="M539.5,190.2h-7.7v-41.7c-13.8,29.4-42.9,47.8-75.1,47.8c-23,0-42.6-8-58.8-23.9
				C382,156.2,374,136.6,374,113.6c0-23,8-42.6,23.9-58.5c16.2-16.2,35.8-24.2,58.8-24.2c32.2,0,61.3,18.4,75.1,47.8v-42h7.7V190.2z
				 M530.3,98.6c-3.4-17.5-12-31.9-26-43.2c-13.8-11.3-29.7-16.9-47.5-16.9c-21.1,0-38.9,7.4-53.3,21.8
				c-14.4,14.4-21.8,32.2-21.8,53.3c0,21.1,7.4,38.9,21.8,53.3c14.4,14.4,32.2,21.8,53.3,21.8c20.5,0,38.3-7.4,53-21.8
				c14.7-14.7,22.1-32.5,22.1-53C531.8,109.3,531.2,104.1,530.3,98.6z"/>
			<path class="st2" d="M456.7,196.8c-23,0-42.9-8.1-59.2-24c-16-16.3-24-36.2-24-59.2c0-23.1,8.1-42.9,24-58.9
				c16.2-16.2,36.1-24.3,59.2-24.3c32,0,60.3,17.6,74.6,46.2V36.7c0-0.3,0.2-0.5,0.5-0.5h7.7c0.3,0,0.5,0.2,0.5,0.5v153.5
				c0,0.3-0.2,0.5-0.5,0.5h-7.7c-0.3,0-0.5-0.2-0.5-0.5v-39.5C517.1,179.2,488.7,196.8,456.7,196.8z M456.7,31.4
				c-22.8,0-42.5,8.1-58.5,24.1c-15.8,15.8-23.8,35.3-23.8,58.2c0,22.7,8,42.4,23.8,58.5c16.1,15.8,35.7,23.8,58.5,23.8
				c32.3,0,60.9-18.2,74.6-47.5c0.1-0.2,0.3-0.3,0.5-0.3c0.2,0,0.4,0.2,0.4,0.5v41.2h6.7V37.2h-6.7v41.5c0,0.2-0.2,0.4-0.4,0.5
				c-0.2,0-0.5-0.1-0.5-0.3C517.6,49.6,489,31.4,456.7,31.4z M456.7,189.2c-21.1,0-39.1-7.4-53.7-21.9
				c-14.5-14.5-21.9-32.6-21.9-53.7c0-21.1,7.4-39.1,21.9-53.7c14.5-14.5,32.6-21.9,53.7-21.9c18,0,34.1,5.7,47.8,17
				c14,11.3,22.8,25.9,26.2,43.5c0,0,0,0,0,0c1,6.3,1.5,11.2,1.5,15.4c0,20.7-7.5,38.6-22.2,53.3
				C495.3,181.8,477.3,189.2,456.7,189.2z M456.7,39.1c-20.8,0-38.6,7.3-53,21.6c-14.3,14.3-21.6,32.2-21.6,53
				c0,20.8,7.3,38.6,21.6,53c14.3,14.3,32.2,21.6,53,21.6c20.3,0,38-7.3,52.7-21.6c14.5-14.5,21.9-32.3,21.9-52.7
				c0-4.1-0.5-9-1.5-15.2c-3.4-17.4-12.1-31.8-25.9-42.9C490.4,44.7,474.5,39.1,456.7,39.1z"/>
		</g>
		<g>
			<path class="st1" d="M749.2,36.4v-26h-7.7v26h-54.2v7.7h54.2v122.4c2.5,0.1,5.1,0.3,7.7,0.6v-123h53.9v-7.7H749.2z"/>
			<path class="st2" d="M749.2,167.6C749.1,167.6,749.1,167.6,749.2,167.6c-2.3-0.3-4.8-0.5-7.7-0.6c-0.3,0-0.5-0.2-0.5-0.5V44.6
				h-53.7c-0.3,0-0.5-0.2-0.5-0.5v-7.7c0-0.3,0.2-0.5,0.5-0.5H741V10.4c0-0.3,0.2-0.5,0.5-0.5h7.7c0.3,0,0.5,0.2,0.5,0.5v25.6h53.4
				c0.3,0,0.5,0.2,0.5,0.5v7.7c0,0.3-0.2,0.5-0.5,0.5h-53.4v122.6c0,0.1-0.1,0.3-0.2,0.4C749.4,167.6,749.3,167.6,749.2,167.6z
				 M742,166c2.5,0.1,4.7,0.3,6.7,0.5V44.1c0-0.3,0.2-0.5,0.5-0.5h53.4v-6.7h-53.4c-0.3,0-0.5-0.2-0.5-0.5V10.9H742v25.6
				c0,0.3-0.2,0.5-0.5,0.5h-53.7v6.7h53.7c0.3,0,0.5,0.2,0.5,0.5V166z"/>
		</g>
		<g>
			<path class="st1" d="M619.4,310.5l-97.9-0.3l0.4-117.9l-6.6,0l-0.5,124.5l107,0.4C621,314.9,620.1,312.7,619.4,310.5z"/>
			<path class="st2" d="M621.8,317.6C621.8,317.6,621.8,317.6,621.8,317.6l-107-0.4c-0.1,0-0.3-0.1-0.3-0.1
				c-0.1-0.1-0.1-0.2-0.1-0.3l0.5-124.5c0-0.3,0.2-0.5,0.5-0.5c0,0,0,0,0,0l6.6,0c0.1,0,0.3,0.1,0.3,0.1c0.1,0.1,0.1,0.2,0.1,0.3
				L522,309.6l97.4,0.3c0.2,0,0.4,0.1,0.5,0.3c0.6,2,1.4,4,2.2,6l0.2,0.6c0.1,0.2,0,0.3-0.1,0.5S622,317.6,621.8,317.6z
				 M515.4,316.2l105.8,0.4c-0.7-1.8-1.4-3.7-2.1-5.7l-97.6-0.3c-0.1,0-0.3-0.1-0.3-0.1c-0.1-0.1-0.1-0.2-0.1-0.3l0.4-117.4l-5.7,0
				L515.4,316.2z"/>
		</g>
		<g>
			
				<rect x="641.4" y="163.6" transform="matrix(3.505153e-03 -1 1 3.505153e-03 478.0777 813.5544)" class="st1" width="11.7" height="6.6"/>
			<path class="st2" d="M650.5,173.2C650.5,173.2,650.5,173.2,650.5,173.2l-6.6,0c-0.3,0-0.5-0.2-0.5-0.5l0-11.7
				c0-0.1,0.1-0.3,0.1-0.3c0.1-0.1,0.2-0.1,0.3-0.1l6.6,0c0.3,0,0.5,0.2,0.5,0.5l0,11.7c0,0.1-0.1,0.3-0.1,0.3
				S650.7,173.2,650.5,173.2z M644.4,172.2l5.7,0l0-10.7l-5.7,0L644.4,172.2z"/>
		</g>
		<g>
			<path class="st1" d="M643.6,184.1l-0.4,127.8c0.3,0.4,0.6,0.8,0.9,1.2c0.1,0.1,0.2,0.2,0.4,0.3c0.5-1,2.2-1.5,3-0.2
				c0.8,1.2,1.6,2.4,2.3,3.7l0.5-132.7L643.6,184.1z"/>
			<path class="st2" d="M649.8,317.3c-0.2,0-0.3-0.1-0.4-0.2l-0.3-0.4c-0.7-1.1-1.4-2.2-2.1-3.2c-0.3-0.5-0.7-0.6-1-0.5
				c-0.5,0-0.9,0.3-1.1,0.7c-0.1,0.1-0.2,0.2-0.3,0.3c-0.2,0-0.3,0-0.4-0.1c-0.1-0.1-0.2-0.2-0.3-0.3c0,0,0,0-0.1-0.1l-0.9-1.2
				c-0.1-0.1-0.1-0.2-0.1-0.3l0.4-127.8c0-0.1,0.1-0.3,0.1-0.3s0.2-0.1,0.3-0.1c0,0,0,0,0,0l6.6,0c0.3,0,0.5,0.2,0.5,0.5l-0.5,132.7
				c0,0.2-0.1,0.4-0.3,0.5C649.9,317.3,649.8,317.3,649.8,317.3z M646.1,311.9c0.7,0,1.4,0.4,1.8,1c0.5,0.8,1,1.5,1.5,2.3l0.4-130.6
				l-5.7,0l-0.4,127.1l0.7,0.9c0.4-0.4,1-0.7,1.6-0.8C646,311.9,646,311.9,646.1,311.9z"/>
		</g>
		<g>
			<path class="st1" d="M783,201.3c-9.2-20.2-29-33.2-51-33.3c-14.8-0.1-27.6,4.9-38.5,15c-10.6,10-16.5,22.5-17.6,37l79.5,0.3
				l0,6.9l-79.8-0.3l-0.3,90.4l-6.6,0l0.3-93.8c0.1-21.2,8.9-38.1,26.7-50.5c10.9-7.6,23.1-11.6,36.4-11.5
				c26.2,0.1,48.5,15.5,58.2,40L783,201.3z"/>
			<path class="st2" d="M675.2,317.8C675.2,317.8,675.2,317.8,675.2,317.8l-6.6,0c-0.1,0-0.3-0.1-0.3-0.1c-0.1-0.1-0.1-0.2-0.1-0.3
				l0.3-93.8c0.1-21.4,9.1-38.6,26.9-50.9c11-7.7,23.2-11.6,36.4-11.6c0.1,0,0.2,0,0.2,0c26.3,0.1,48.8,15.5,58.6,40.3
				c0.1,0.2,0,0.3,0,0.5s-0.2,0.2-0.4,0.2c0,0,0,0,0,0l-7.2,0c-0.2,0-0.4-0.1-0.4-0.3c-9.1-20-29-32.9-50.6-33c-0.1,0-0.2,0-0.2,0
				c-14.7,0-27.1,4.9-37.9,14.8c-10.4,9.8-16.2,22-17.4,36.2l79,0.3c0.3,0,0.5,0.2,0.5,0.5l0,6.9c0,0.1-0.1,0.3-0.1,0.3
				s-0.2,0.1-0.3,0.1c0,0,0,0,0,0l-79.3-0.3l-0.3,89.9C675.7,317.6,675.5,317.8,675.2,317.8z M669.1,316.8l5.6,0l0.3-89.9
				c0-0.3,0.2-0.5,0.5-0.5l79.3,0.3l0-5.9l-79-0.3c-0.1,0-0.3-0.1-0.4-0.2s-0.1-0.2-0.1-0.4c1.1-14.7,7.1-27.3,17.8-37.4
				c11-10.2,23.7-15.1,38.6-15.1c0.1,0,0.2,0,0.2,0c21.9,0.1,42,13.1,51.3,33.3l6.1,0c-9.8-24-31.8-38.9-57.5-39c-0.1,0-0.2,0-0.2,0
				c-13,0-25,3.9-35.8,11.4c-17.5,12.2-26.4,29-26.5,50.1L669.1,316.8z"/>
		</g>
		<g>
			<path class="st1" d="M927.7,276c-5.1,14.3-13.6,25.7-26.1,34.4c-12.5,8.7-26.3,12.9-41.4,12.8c-19.9-0.1-36.8-7-50.8-20.8
				c-13.7-14.1-20.6-31.1-20.5-51c0.1-19.9,7-36.8,20.8-50.6c14.1-14,31.1-20.8,51-20.8c30.7,0.1,56.9,18.7,67.2,47.7l-6.9,0
				l-0.3-0.3l-120.3-0.4c-3.2,7.7-4.8,15.9-4.9,24.4c-0.1,18.3,6.2,33.7,18.7,46.2c12.4,12.5,27.8,18.9,46.1,19
				c13.3,0,25.5-3.6,36.4-11c11.2-7.4,19.1-17.2,24.2-29.6L927.7,276z M917.8,220.9c-11.6-21.2-32.8-34-57.1-34.1
				c-24.1-0.1-45.6,12.6-57.1,33.7L917.8,220.9z"/>
			<path class="st2" d="M860.5,323.7c-0.1,0-0.2,0-0.3,0c-19.9-0.1-37.1-7.1-51.2-21c-13.8-14.1-20.7-31.4-20.6-51.3
				c0.1-20,7.1-37.1,21-50.9c14-13.9,31.1-20.9,51-20.9c0.1,0,0.2,0,0.3,0c30.8,0.1,57.3,18.9,67.6,48c0.1,0.2,0,0.3-0.1,0.4
				s-0.3,0.2-0.4,0.2l-6.9,0c-0.1,0-0.3-0.1-0.3-0.1l-0.1-0.1l-119.8-0.4c-3.1,7.5-4.7,15.5-4.7,23.9c-0.1,18,6.2,33.4,18.5,45.8
				c12.3,12.4,27.7,18.8,45.7,18.8c0.1,0,0.2,0,0.2,0c13.1,0,25.1-3.7,35.8-10.9c11.1-7.3,19-17,24-29.4c0.1-0.2,0.3-0.3,0.5-0.3
				c0,0,0,0,0,0l6.9,0c0.2,0,0.3,0.1,0.4,0.2c0.1,0.1,0.1,0.3,0.1,0.4c-5.2,14.6-13.8,25.9-26.3,34.6
				C889.6,319.4,875.7,323.7,860.5,323.7z M860.4,180.6c-19.6,0-36.5,6.9-50.3,20.6c-13.7,13.6-20.6,30.5-20.7,50.2
				c-0.1,19.7,6.8,36.7,20.4,50.6c13.8,13.7,30.8,20.6,50.5,20.7c0.1,0,0.2,0,0.3,0c15,0,28.7-4.3,40.8-12.8
				c12.1-8.5,20.5-19.4,25.7-33.5l-5.9,0c-5.2,12.5-13.1,22.1-24.3,29.5c-10.9,7.4-23.1,11.1-36.4,11.1c-0.1,0-0.2,0-0.2,0
				c-18.3-0.1-33.9-6.5-46.4-19.1c-12.5-12.6-18.9-28.3-18.8-46.5c0-8.6,1.7-16.9,4.9-24.6c0.1-0.2,0.3-0.3,0.5-0.3c0,0,0,0,0,0
				l120.3,0.4c0.1,0,0.3,0.1,0.3,0.1l0.1,0.1l6,0c-10.3-28.3-36.3-46.6-66.5-46.7C860.6,180.6,860.5,180.6,860.4,180.6z
				 M917.8,221.4C917.8,221.4,917.8,221.4,917.8,221.4L803.6,221c-0.2,0-0.3-0.1-0.4-0.2c-0.1-0.1-0.1-0.3,0-0.5
				c11.5-21.3,32.9-34,57.3-34c0.1,0,0.2,0,0.2,0c24.3,0.1,45.9,12.9,57.6,34.4c0.1,0.2,0.1,0.3,0,0.5
				C918.2,221.3,918,221.4,917.8,221.4z M804.4,220l112.6,0.4c-11.6-20.7-32.6-33.1-56.3-33.1c-0.1,0-0.2,0-0.2,0
				C836.8,187.2,815.9,199.5,804.4,220z"/>
		</g>
		<g>
			<path class="st1" d="M530.2,128.6l-0.5,2.7c-5.1,6.3-11.5,12.4-19.3,18l-8.9,6.5l11-7.7l-1.5,4.7c-0.2,1.2-0.4,2.1-0.2,3.1
				c-8,4.5-14.7,7.7-20.4,10.1c4.6-8.5,11.6-14.4,20.9-18.1C519.1,141.5,525.5,135.2,530.2,128.6z"/>
			<path class="st2" d="M490.4,166.5c-0.1,0-0.3-0.1-0.4-0.2c-0.1-0.2-0.2-0.4-0.1-0.6c4.6-8.6,11.5-14.5,21.1-18.3
				c8.2-6.7,14.3-13,18.7-19.2c0.1-0.2,0.4-0.3,0.6-0.2s0.3,0.3,0.3,0.5l-0.5,2.7c0,0.1,0,0.2-0.1,0.2c-4.6,5.8-10.4,11.3-17.1,16.4
				c0,0.1,0,0.2,0,0.2l-1.5,4.7c-0.2,1.1-0.3,2-0.2,2.9c0,0.2-0.1,0.4-0.2,0.5c-6.7,3.8-13.4,7.1-20.5,10.1
				C490.5,166.4,490.5,166.5,490.4,166.5z M510.2,148.9c-8.3,3.5-14.4,8.8-18.7,16.1c6.5-2.8,12.6-5.8,18.8-9.3
				c-0.1-0.9,0.1-1.8,0.3-2.9l1.1-3.4l-9.8,6.9c-0.2,0.2-0.5,0.1-0.7-0.1c-0.2-0.2-0.1-0.5,0.1-0.7L510.2,148.9
				C510.2,148.9,510.2,148.9,510.2,148.9z M529.3,130.5c-2.5,3.3-5.4,6.6-8.9,9.9c3.3-3,6.2-6.2,8.8-9.4L529.3,130.5z"/>
		</g>
		<g>
			<path class="st1" d="M557.2,187.2v3.1h7.7l1.8-29.4c1.5-23.3,5.2-40.4,10.4-51.8c3.4-6.7,8.6-13.5,15.6-20.5
				c4.6-2.1,8.9-5.8,12.3-10.7c2.1-3.4,3.7-5.5,4.3-7l-16.9,10.7c-0.6,2.8-0.9,5.2-0.9,6.7l11.6-10.4l-10.1,9.5
				c-7.7,7-13.5,14.7-17.2,22.4c-5.2,10.4-8.6,27.3-10.4,50.6l-0.6-56.1c-0.3-11.6,2.5-22.4,8.3-31.9c10.7-18.1,26.7-27,48.1-27
				c18.1,0,31.9,6.1,42,18.4c5.8,7,8.6,16.2,7.7,27.3c-0.9,10.7-6.4,19-17.2,24.2c-7,3.4-15,4.3-23.6,2.5
				c-6.4-1.5-12.3-4.9-17.2-10.1c-3.1-3.4-4.6-7-4.6-11c0-2.8,0.3-4.9,0.9-6.4c1.5-7.7,10.7-13.8,19.3-13.8c4.3,0,7,0.6,8.6,2.1
				l12.3,9.5c-6.4-4.6-11.3-8.3-14.7-10.4c0,0.3,0.3,6.4,1.8,7.7c8.3,4.9,15,8.3,20.8,10.4c-4.6-9.5-12-15.6-22.4-18.7h0.3
				c-0.9,0-1.5-0.3-1.8-0.6c-1.8-0.3-3.7-0.6-5.2-0.6c-11.3,0-20.8,8.6-20.8,19.9c0,2.8,0.6,5.5,1.8,8c5.2,10.7,15,16.2,29.1,16.2
				c13.2,0,23.3-5.2,30.3-15.9c2.8-4,4-9.5,4-17.2c0-6.4-1.2-11.9-3.7-16.9c-8.9-17.5-24.8-26.3-47.8-26.3c-11,0-20.8,2.5-29.7,7.7
				c11.3-8.3,24.2-12.6,38.3-12.6c18.1,0,33.7,6.4,46.3,19.3c12.6,12.6,19,28.2,19,46.3v67.4c2.6,0.6,5.2,1.3,7.7,2.3V98.3h-0.3
				c-1.5-19.3-9.5-35.2-23.3-48.1c-13.8-12.9-30-19.3-49.3-19.3c-28.2,0-52.7,15-65,40.4V36.4h-7.7v70.8V187.2z"/>
			<path class="st2" d="M564.9,190.7h-7.7c-0.3,0-0.5-0.2-0.5-0.5V36.4c0-0.3,0.2-0.5,0.5-0.5h7.7c0.3,0,0.5,0.2,0.5,0.5v32.9
				c12.6-24.4,36.5-38.9,64.5-38.9c19.4,0,35.6,6.4,49.7,19.4c13.9,13,21.8,29.2,23.4,48c0.2,0.1,0.3,0.2,0.3,0.5v75.5
				c0,0.2-0.1,0.3-0.2,0.4s-0.3,0.1-0.5,0c-2.3-0.9-4.8-1.7-7.6-2.3c-0.2,0-0.4-0.2-0.4-0.5v-67.4c0-18-6.3-33.4-18.9-45.9
				c-12.4-12.7-27.9-19.2-45.9-19.2c-11.1,0-21.4,2.7-30.9,7.9c6.8-2.7,14.2-4,22.4-4c23,0,39.2,9,48.2,26.6
				c2.5,5,3.7,10.6,3.7,17.1c0,7.9-1.3,13.4-4.1,17.4c-7,10.7-17.4,16.1-30.7,16.1c-14.3,0-24.2-5.6-29.5-16.5
				c-1.2-2.5-1.9-5.3-1.9-8.2c0-11.4,9.4-20.4,21.3-20.4c1.6,0,3.5,0.3,5.3,0.6c0.1,0,0.2,0.1,0.3,0.1c0.1,0.1,0.5,0.5,1.5,0.5
				c0.2,0,0.3,0.1,0.4,0.2c10.3,3.2,17.5,9.3,22.1,18.8c0.1,0.2,0.1,0.4-0.1,0.5c-0.1,0.1-0.3,0.2-0.5,0.1
				c-5.8-2.1-12.7-5.6-20.9-10.5c-1.9-1.5-2.1-8-2.1-8.1c0,0,0-0.1,0-0.1c-1.4-0.4-3.3-0.6-5.7-0.6c-8.6,0-17.4,6.3-18.8,13.4
				c-0.6,1.6-0.9,3.7-0.9,6.3c0,3.8,1.5,7.4,4.5,10.7c4.8,5.1,10.5,8.4,16.9,10c8.3,1.8,16.2,1,23.3-2.4c10.3-5,16-13,16.9-23.8
				c0.9-10.7-1.6-19.8-7.6-26.9c-10.1-12.3-23.7-18.2-41.6-18.2c-21.4,0-37,8.7-47.7,26.7c-5.7,9.4-8.5,20-8.2,31.6l0.5,46.6
				c2-18.8,5.1-32.4,9.6-41.3c3.5-7.2,8.8-14.4,15.6-21c0-0.1-0.1-0.2-0.1-0.3c0-1.7,0.3-4.2,0.9-6.8c0-0.1,0.1-0.2,0.2-0.3
				l16.9-10.7c0.2-0.1,0.4-0.1,0.6,0c0.2,0.1,0.2,0.4,0.1,0.6c-0.5,1.2-1.4,2.7-2.8,4.7c-0.5,0.7-1,1.5-1.6,2.4
				c-3.4,4.9-7.6,8.6-12.4,10.9c-7.1,7.2-12.2,13.8-15.5,20.3c-5.4,11.7-8.9,29.1-10.4,51.6l-1.8,29.4
				C565.4,190.5,565.2,190.7,564.9,190.7z M557.7,189.7h6.7l1.8-29c1.4-20.6,4.4-36.9,9-48.6c-4.5,10.3-7.5,26.1-9.3,48.1
				c0,0.3-0.2,0.4-0.5,0.4c-0.3,0-0.5-0.2-0.5-0.5l-0.6-56.1c-0.3-11.8,2.5-22.6,8.3-32.1c10.9-18.3,26.7-27.2,48.5-27.2
				c18.2,0,32,6.1,42.3,18.6c6.1,7.3,8.7,16.6,7.8,27.6c-1,11.2-6.8,19.5-17.4,24.6c-7.3,3.5-15.3,4.3-23.9,2.5
				c-6.6-1.6-12.5-5-17.4-10.3c-0.3-0.4-0.7-0.7-0.9-1.1c5.5,8.3,14.4,12.5,26.7,12.5c13.2,0,23-5.1,29.9-15.7
				c2.7-3.9,3.9-9.2,3.9-16.9c0-6.3-1.2-11.8-3.6-16.6C659.8,52.7,643.9,44,621.3,44c-11.1,0-20.8,2.5-29.5,7.6
				c-0.2,0.1-0.5,0.1-0.7-0.2c-0.1-0.2-0.1-0.5,0.1-0.7c11.5-8.4,24.5-12.7,38.6-12.7c18.3,0,34,6.5,46.6,19.4
				c12.7,12.7,19.1,28.4,19.1,46.6v67c2.4,0.5,4.6,1.2,6.7,2V98.8c-0.2-0.1-0.3-0.2-0.3-0.4c-1.5-18.8-9.3-34.8-23.1-47.8
				c-13.8-12.9-29.8-19.2-49-19.2c-28.3,0-52.4,15-64.5,40.2c-0.1,0.2-0.3,0.3-0.5,0.3c-0.2-0.1-0.4-0.2-0.4-0.5V36.9h-6.7V189.7z
				 M635.3,78.4c0.1,1.9,0.6,5.6,1.6,6.4c7.6,4.5,14,7.8,19.5,9.9c-4.1-7.8-10.2-13.2-18.5-16.3l11.9,9.2c0.2,0.2,0.3,0.5,0.1,0.7
				c-0.2,0.2-0.5,0.3-0.7,0.1c-2-1.4-3.9-2.8-5.6-4C640.2,81.8,637.5,79.9,635.3,78.4z M609,89.5c-0.1,0.3-0.2,0.7-0.3,1
				c0.1-0.2,0.1-0.4,0.2-0.6C608.9,89.7,608.9,89.6,609,89.5z M603.2,77.3c0.1,0,0.3,0.1,0.4,0.2c0.2,0.2,0.2,0.5,0,0.7l-10.1,9.5
				c0,0,0,0,0,0c4.3-2.2,8.2-5.7,11.2-10.2c0.6-0.9,1.1-1.7,1.6-2.4c0.8-1.2,1.4-2.2,1.9-3l-15.2,9.7c-0.4,1.9-0.7,3.8-0.8,5.3
				l10.8-9.6C603,77.3,603.1,77.3,603.2,77.3z"/>
		</g>
		<g>
			<line class="st1" x1="557.2" y1="123.4" x2="557.2" y2="175.5"/>
			<rect x="556.8" y="123.4" class="st2" width="1" height="52.1"/>
		</g>
	</g>
</g>
</svg>
