<?xml version="1.0" encoding="utf-8"?>
<!-- Generator: Adobe Illustrator 19.2.1, SVG Export Plug-In . SVG Version: 6.00 Build 0)  -->
<svg version="1.1" id="Layer_1" xmlns="http://www.w3.org/2000/svg" xmlns:xlink="http://www.w3.org/1999/xlink" x="0px" y="0px"
	 viewBox="0 0 350.5 315.1" style="enable-background:new 0 0 350.5 315.1;" xml:space="preserve">
<style type="text/css">
	.st0{fill:#FFFFFF;}
</style>
<g>
	<g>
		<path class="st0" d="M194.4,60L172.6,7.3L153.7,60H169v58.8c0,2.8,2.2,5,5,5s5-2.2,5-5V60H194.4z"/>
		<path class="st0" d="M106.2,243.9c-1.4-2.4-4.5-3.2-6.9-1.7l-50.8,30.3L40.4,259L6.3,304.6l54.9-10.8l-7.6-12.8l50.8-30.3
			C106.8,249.4,107.6,246.3,106.2,243.9z"/>
		<path class="st0" d="M340.5,306.6l-34.4-44.1l-8,12.6l-50-31.6c-2.3-1.5-5.4-0.8-6.9,1.6c-1.5,2.3-0.8,5.4,1.6,6.9l50,31.6
			l-8.4,13.3L340.5,306.6z"/>
		<path class="st0" d="M174,136.8c-36.6,0-66.3,29.7-66.3,66.3s29.7,66.3,66.3,66.3c36.6,0,66.3-29.7,66.3-66.3
			S210.6,136.8,174,136.8z M152,210h-10v-1.3c0-0.2,0.4-0.4,0.7-0.6c0.3-0.2,0.5-0.3,0.9-0.4l-4-5.7l-3.8,5.7
			c0.4,0.1,0.9,0.3,1.2,0.5c0.3,0.2,0,0.3,1,0.5v1.3h-8v-1.3c0-0.2,0.6-0.4,1-0.6c0.3-0.2,0.6-0.3,1-0.4l6.1-7.7l-6.2-7.9
			c-0.4-0.1-0.8-0.3-1.1-0.4c-0.3-0.2-0.9-0.3-0.9-0.6V190h10v1.1c0,0.2-0.4,0.4-0.7,0.6c-0.3,0.2-0.5,0.3-0.9,0.4l3.7,5.2l3.5-5.2
			c-0.5-0.1-0.7-0.3-1-0.5c-0.3-0.2-0.6-0.3-0.6-0.5V190h7v1.1c0,0.2-0.4,0.4-0.7,0.5c-0.3,0.2-0.6,0.3-1.1,0.5l-5.6,7l6.5,8.5
			c0.7,0.2,2,0.6,2,1V210z M162,211.9c-0.3,0.9-0.8,1.7-1.4,2.5c-0.6,0.8-1.3,1.4-2.1,2c-0.8,0.6-1.7,1-2.7,1.2l-1-1.8
			c0.6-0.2,1.1-0.4,1.5-0.7c0.4-0.3,0.8-0.7,1.1-1.1c0.3-0.4,0.6-0.9,0.7-1.3c0.2-0.5,0.2-0.9,0.2-1.4c-0.4-0.5-0.9-0.9-1.4-1.2
			s-1.1-0.6-1.7-0.7c-0.1-0.6-0.2-1.2-0.1-1.7c0.1-0.6,0.3-1.1,0.6-1.6s0.6-0.9,1-1.3s0.8-0.6,1.2-0.6c0.6,0,1.1,0.2,1.7,0.4
			c0.6,0.2,1.1,0.6,1.5,1c0.4,0.4,0.8,1,1.1,1.6s0.4,1.4,0.4,2.3C162.6,210.1,162.4,211,162,211.9z M176.7,210.3
			c-0.7,1.8-1.3,3.2-2,4.3c-0.7,1.1-1.3,2-2,2.7c-0.7,0.7-1.3,1.1-2,1.4c-0.7,0.3-1.3,0.4-2,0.5c-0.3-0.2-0.5-0.6-0.7-0.9
			c-0.2-0.4-0.4-0.8-0.6-1.2c-0.2-0.4-0.3-0.9-0.4-1.3c-0.1-0.4-0.2-0.6-0.2-1l0.5-0.7h5.1c0.2-1,0.5-1,0.6-1.5
			c0.2-0.4,0.4-1.2,0.6-2.1l-8.8-18.2c-0.4-0.1-0.7-0.3-1-0.4c-0.3-0.2-0.9-0.4-0.9-0.6V190h11v1.1c-1,0.4-1.6,0.7-2.6,1l4.1,10.3
			l0.6,2.6h0.1l0.7-2.6l3.3-10.3c-0.8-0.2-1.2-0.4-2.2-0.9V190h8v1.1c-1,0.4-1.4,0.7-2.4,1L176.7,210.3z M192.7,211.9
			c-0.3,0.9-0.8,1.7-1.4,2.5c-0.6,0.8-1.3,1.4-2.1,2c-0.8,0.6-1.7,1-2.7,1.2l-1-1.8c0.6-0.2,1.1-0.4,1.5-0.7
			c0.4-0.3,0.8-0.7,1.1-1.1c0.3-0.4,0.6-0.9,0.7-1.3c0.2-0.5,0.2-0.9,0.2-1.4c-0.4-0.5-0.9-0.9-1.4-1.2s-1.1-0.6-1.7-0.7
			c-0.1-0.6-0.2-1.2-0.1-1.7c0.1-0.6,0.3-1.1,0.6-1.6s0.6-0.9,1-1.3s0.8-0.6,1.2-0.6c0.6,0,1.1,0.2,1.7,0.4c0.6,0.2,1.1,0.6,1.5,1
			c0.4,0.4,0.8,1,1.1,1.6s0.4,1.4,0.4,2.3C193.2,210.1,193.1,211,192.7,211.9z M216,191.2L203.9,208h7.2l2.2-5h1.4
			c0.3,1,0.6,2.1,0.8,3.4c0.2,1.4,0.3,2.6,0.2,3.6H197v-1.3l12.1-16.7h-6.9l-1.8,5H199c-0.3-1-0.6-2.3-0.7-3.6
			c-0.2-1.3-0.3-2.4-0.3-3.4h18V191.2z"/>
	</g>
</g>
</svg>
