<?xml version="1.0" encoding="utf-8"?>
<!-- Generator: Adobe Illustrator 19.2.1, SVG Export Plug-In . SVG Version: 6.00 Build 0)  -->
<svg version="1.1" id="Layer_1" xmlns="http://www.w3.org/2000/svg" xmlns:xlink="http://www.w3.org/1999/xlink" x="0px" y="0px"
	 viewBox="0 0 391.8 63.7" style="enable-background:new 0 0 391.8 63.7;" xml:space="preserve">
<g>
	<path d="M12.4,17.8l-1.7,0H6.9l-1.7,0l-1.5,4.8c-0.3,0.1-0.7,0.1-1.2,0.1s-0.9-0.1-1.4-0.2L1,22.3L7.4,3.4C7.7,3.3,8.3,3.3,9,3.3
		c0.7,0,1.2,0,1.5,0.1l6.3,19c-0.4,0.2-0.9,0.4-1.5,0.4s-1-0.1-1.2-0.3c-0.2-0.2-0.4-0.6-0.6-1.2L12.4,17.8z M5.9,15.5l1.5,0h2.9
		c0,0,0.2,0,0.6,0c0.4,0,0.6,0,0.8,0l-1.4-4.3c-0.6-1.7-1-3.4-1.5-5H8.7c-0.3,1.3-0.7,2.6-1.1,3.9L5.9,15.5z"/>
	<path d="M25.3,20.1h5.7c0,0.5,0,0.9-0.1,1.1c-0.2,0.9-0.8,1.3-1.8,1.3h-7.4c-0.5,0-0.9-0.2-1.2-0.5c-0.3-0.3-0.4-0.7-0.4-1.3V3.5
		l0.2-0.2h1.1c0.6,0,1,0.1,1.2,0.4c0.2,0.3,0.3,0.7,0.3,1.4v15.1C23.7,20.2,24.5,20.1,25.3,20.1z"/>
	<path d="M39.6,20.1h5.7c0,0.5,0,0.9-0.1,1.1c-0.2,0.9-0.8,1.3-1.8,1.3H36c-0.5,0-0.9-0.2-1.2-0.5c-0.3-0.3-0.4-0.7-0.4-1.3V3.5
		l0.2-0.2h1.1c0.6,0,1,0.1,1.2,0.4C37,4,37.1,4.5,37.1,5.1v15.1C38,20.2,38.8,20.1,39.6,20.1z"/>
	<path d="M52.6,16.3h-6.8c-0.1-0.3-0.1-0.7-0.1-1.2c0-0.5,0-0.9,0.1-1.2h6.8c0.1,0.3,0.1,0.7,0.1,1.2C52.7,15.6,52.6,16,52.6,16.3z"
		/>
	<path d="M66,17.8l-1.7,0h-3.8l-1.7,0l-1.5,4.8c-0.3,0.1-0.7,0.1-1.2,0.1s-0.9-0.1-1.4-0.2l-0.1-0.1L61,3.4c0.4-0.1,0.9-0.1,1.6-0.1
		c0.7,0,1.2,0,1.5,0.1l6.3,19c-0.4,0.2-0.9,0.4-1.5,0.4s-1-0.1-1.2-0.3c-0.2-0.2-0.4-0.6-0.6-1.2L66,17.8z M59.5,15.5l1.5,0h2.9
		c0,0,0.2,0,0.6,0c0.4,0,0.6,0,0.8,0l-1.4-4.3c-0.6-1.7-1-3.4-1.5-5h-0.2c-0.3,1.3-0.7,2.6-1.1,3.9L59.5,15.5z"/>
	<path d="M80.9,12.6h4.3c0.7,0,1.2,0.2,1.6,0.5c0.3,0.3,0.5,0.8,0.5,1.4v7.3c-2.1,0.8-4.4,1.2-6.9,1.2c-1.4,0-2.6-0.3-3.7-0.8
		c-1-0.5-1.9-1.3-2.4-2.2c-1.2-1.8-1.8-4.1-1.8-6.8c0-1.7,0.2-3.2,0.7-4.6c0.5-1.3,1.1-2.4,1.9-3.1c1.6-1.6,3.5-2.4,5.6-2.4
		c2.6,0,4.7,0.7,6.5,2.1C87,6,86.5,6.7,85.8,7.2c-1.5-1.2-3.2-1.8-5.1-1.8c-1.6,0-2.8,0.6-3.8,1.8s-1.5,3.2-1.5,5.8
		c0,4.9,1.8,7.4,5.5,7.4c1.3,0,2.5-0.2,3.7-0.5v-3.3c0-0.8,0-1.4,0-1.8H82c-0.9,0-1.3-0.4-1.3-1.3C80.6,13.4,80.7,13,80.9,12.6z"/>
	<path d="M94.3,11.7l1.7,0h5.4c0.1,0.4,0.1,0.8,0.1,1.2c0,0.4,0,0.7-0.1,1.2h-5.4c-0.7,0-1.3,0-1.7,0v4.9c0,0.1,0,0.4,0,0.7
		c0,0.3,0,0.5,0,0.7c0.5-0.1,1.1-0.1,1.8-0.1h7.3c0,0.5,0,0.8-0.1,1.1c-0.2,0.9-0.8,1.3-1.8,1.3h-8.4c-0.5,0-0.9-0.2-1.2-0.5
		s-0.4-0.7-0.4-1.3V3.6l0.2-0.2h11.2c0.1,0.3,0.1,0.6,0.1,1.1c0,0.5-0.1,0.9-0.2,1.3h-6.7c-0.7,0-1.3,0-1.8,0l0,1.8V11.7z"/>
	<path d="M105.7,20.8c0.1-0.9,0.5-1.6,1.2-2.2c1.9,1.3,3.8,1.9,5.6,1.9c1.1,0,2-0.3,2.7-0.8c0.7-0.5,1-1.2,1-2
		c0-1.3-0.9-2.3-2.7-3.1l-3.3-1.4c-2.6-1.1-3.8-2.7-3.8-4.8c0-1.5,0.6-2.8,1.8-3.8c1.2-1,2.7-1.5,4.6-1.5c1.9,0,3.8,0.5,5.7,1.4
		c0,0.9-0.4,1.6-1,2.2c-1.8-0.9-3.2-1.3-4.5-1.3c-1.2,0-2.2,0.3-2.8,0.8c-0.6,0.5-1,1.1-1,1.8c0,0.7,0.2,1.3,0.6,1.7
		c0.4,0.4,1,0.8,1.8,1.1l3.2,1.4c2.8,1.2,4.2,3,4.2,5.2c0,1.7-0.6,3-1.7,4s-2.9,1.5-5.2,1.5S107.7,22.2,105.7,20.8z"/>
	<path d="M136.1,11.8l4.4,0c0,0,0,0,0.1,0c1.9,0,2.8,0.9,2.8,2.7v7.3c-2.3,0.8-4.8,1.2-7.5,1.2c-2.7,0-4.7-0.9-6.1-2.6
		c-1.4-1.8-2.1-4.2-2.1-7.2c0-1.6,0.2-3.1,0.7-4.4c0.5-1.3,1.2-2.4,2-3.2c1.7-1.6,3.7-2.5,6.2-2.5s4.7,0.7,6.8,2
		c-0.1,0.6-0.3,1.2-0.7,1.8c-0.4,0.6-0.8,1-1.3,1.3c-1.5-1-3.1-1.5-4.6-1.5c-3.2,0-4.8,2.2-4.8,6.5s1.6,6.5,4.8,6.5
		c0.8,0,1.7-0.1,2.6-0.3v-2c0-0.8,0-1.5,0.1-1.9h-1.5c-0.7,0-1.2-0.1-1.5-0.4c-0.3-0.3-0.5-0.7-0.5-1.4S135.9,12.3,136.1,11.8z"/>
	<path d="M157.6,10.9l0-2.1V3.4c0.6-0.1,1.3-0.2,2.1-0.2c0.9,0,1.6,0.1,2.1,0.2v19.1c-0.6,0.1-1.3,0.2-2.1,0.2s-1.6-0.1-2.1-0.2v-6
		l0-2.1l-1.4,0h-3.4l-1.4,0l0,2.1v6c-0.6,0.1-1.3,0.2-2.2,0.2c-0.9,0-1.6-0.1-2.1-0.2V3.4c0.5-0.1,1.3-0.2,2.1-0.2
		c0.9,0,1.6,0.1,2.2,0.2v5.4l0,2.1l1.4,0h3.4L157.6,10.9z"/>
	<path d="M168.1,21.2c-2-1.7-3-4.4-3-8.2c0-3.8,1-6.6,3-8.2c1.4-1.2,3.2-1.8,5.3-1.8s3.8,0.6,5.3,1.8c2,1.7,3,4.4,3,8.2
		c0,3.8-1,6.6-3,8.2c-1.4,1.2-3.2,1.8-5.3,1.8S169.5,22.4,168.1,21.2z M173.3,6.3c-2.5,0-3.8,2.2-3.8,6.7s1.3,6.7,3.8,6.7
		s3.8-2.2,3.8-6.7S175.9,6.3,173.3,6.3z"/>
	<path d="M183.1,20.9c0.1-0.6,0.2-1.2,0.6-1.8s0.7-1.1,1.1-1.4c2,1.2,3.9,1.8,5.7,1.8c0.8,0,1.4-0.2,1.8-0.6
		c0.4-0.4,0.6-0.8,0.6-1.4c0-0.9-0.6-1.7-1.9-2.2l-3.3-1.4c-2.7-1.2-4-2.9-4-5.1c0-1.7,0.6-3.1,1.9-4.2s3-1.6,5.1-1.6
		c2.1,0,4.2,0.5,6.2,1.6c-0.1,1.3-0.6,2.4-1.5,3.2c-1.9-0.9-3.6-1.4-5-1.4c-0.8,0-1.4,0.2-1.8,0.5c-0.4,0.4-0.6,0.8-0.6,1.2
		c0,0.7,0.6,1.4,1.7,1.9l3.4,1.4c1.3,0.6,2.4,1.3,3.1,2.3c0.7,0.9,1.1,2,1.1,3.2c0,1.8-0.6,3.2-1.9,4.3c-1.3,1.1-3.1,1.7-5.4,1.7
		c-1.2,0-2.4-0.2-3.6-0.6C185.3,22,184.1,21.5,183.1,20.9z"/>
	<path d="M207.5,6.9l0,2.1v13.5c-0.6,0.1-1.3,0.2-2.1,0.2s-1.6-0.1-2.1-0.2V9l0-2.1h0l-1.7,0h-3c-0.1-0.5-0.1-1.1-0.1-1.8
		s0-1.2,0.1-1.8h13.7c0.1,0.5,0.2,1.1,0.2,1.7c0,0.7-0.2,1.1-0.5,1.4C211.6,6.8,211,7,210.2,7h-1L207.5,6.9L207.5,6.9z"/>
	<path d="M221.5,18.9h5c0,0.6,0,1.1-0.1,1.6c-0.2,1.4-1.2,2.1-2.8,2.1h-6.4c-0.8,0-1.4-0.2-1.8-0.7c-0.4-0.4-0.7-1.1-0.7-1.8V3.4
		l0.2-0.2h1.6c1.7,0,2.5,0.9,2.5,2.7V19C219.8,19,220.7,18.9,221.5,18.9z"/>
	<path d="M233.3,8.4l2-5c0.5-0.1,1.1-0.2,1.8-0.2c0.8,0,1.4,0.1,2,0.3l0.2,0.3l-5.4,12.8v5.9c-0.6,0.1-1.3,0.2-2.2,0.2
		c-0.9,0-1.6-0.1-2.1-0.2v-6l-5.4-12.6c0.9-0.5,1.7-0.7,2.4-0.7c0.7,0,1.3,0.1,1.6,0.4c0.3,0.3,0.6,0.7,0.9,1.3l1.5,3.6
		c0.4,1.2,0.9,2.5,1.3,3.9h0.2C232.3,11.3,232.8,9.9,233.3,8.4z"/>
	<path d="M247.1,22.5l1.5-19c0.7-0.1,1.6-0.2,2.8-0.2c1.2,0,2.1,0.1,2.8,0.2l1.8,7.1c0.5,2.1,0.9,3.7,1.1,5h0.2
		c0.2-1.3,0.6-2.9,1.1-5l1.8-7.1c0.7-0.1,1.6-0.2,2.8-0.2c1.2,0,2.1,0.1,2.8,0.2l1.5,19c-0.5,0.1-1.2,0.2-2,0.2s-1.5,0-2-0.1
		l-0.4-8.1c-0.1-2.6-0.2-4.7-0.2-6.4h-0.2l-2.9,11.6c-0.5,0.1-1.2,0.1-2.2,0.1s-1.7,0-2.2-0.1L252,8.1h-0.2c0,2.3-0.1,4.4-0.2,6.4
		l-0.4,8.1c-0.5,0.1-1.2,0.1-2,0.1S247.6,22.6,247.1,22.5z"/>
	<path d="M277.2,8.4l2-5c0.5-0.1,1.1-0.2,1.8-0.2c0.8,0,1.4,0.1,2,0.3l0.2,0.3l-5.4,12.8v5.9c-0.6,0.1-1.3,0.2-2.2,0.2
		c-0.9,0-1.6-0.1-2.1-0.2v-6l-5.4-12.6c0.9-0.5,1.7-0.7,2.4-0.7c0.7,0,1.3,0.1,1.6,0.4c0.3,0.3,0.6,0.7,0.9,1.3l1.5,3.6
		c0.4,1.2,0.9,2.5,1.3,3.9h0.2C276.1,11.3,276.6,9.9,277.2,8.4z"/>
	<path d="M283.3,20.9c0.1-0.6,0.2-1.2,0.6-1.8s0.7-1.1,1.1-1.4c2,1.2,3.9,1.8,5.7,1.8c0.8,0,1.4-0.2,1.8-0.6
		c0.4-0.4,0.6-0.8,0.6-1.4c0-0.9-0.6-1.7-1.9-2.2l-3.3-1.4c-2.7-1.2-4-2.9-4-5.1c0-1.7,0.6-3.1,1.9-4.2s3-1.6,5.1-1.6
		c2.1,0,4.2,0.5,6.2,1.6c-0.1,1.3-0.6,2.4-1.5,3.2c-1.9-0.9-3.6-1.4-5-1.4c-0.8,0-1.4,0.2-1.8,0.5c-0.4,0.4-0.6,0.8-0.6,1.2
		c0,0.7,0.6,1.4,1.7,1.9l3.4,1.4c1.3,0.6,2.4,1.3,3.1,2.3c0.7,0.9,1.1,2,1.1,3.2c0,1.8-0.6,3.2-1.9,4.3c-1.3,1.1-3.1,1.7-5.4,1.7
		c-1.2,0-2.4-0.2-3.6-0.6C285.4,22,284.3,21.5,283.3,20.9z"/>
	<path d="M307.6,6.9l0,2.1v13.5c-0.6,0.1-1.3,0.2-2.1,0.2s-1.6-0.1-2.1-0.2V9l0-2.1h0l-1.7,0h-3c-0.1-0.5-0.1-1.1-0.1-1.8
		s0-1.2,0.1-1.8h13.7c0.1,0.5,0.2,1.1,0.2,1.7c0,0.7-0.2,1.1-0.5,1.4c-0.4,0.3-0.9,0.4-1.7,0.4h-1L307.6,6.9L307.6,6.9z"/>
	<path d="M319,17.1l0,1.9v0c0.8,0,1.5-0.1,2-0.1h6.6c0,0.7,0,1.2-0.1,1.5c-0.3,1.4-1.2,2.1-2.7,2.1h-7.6c-0.8,0-1.4-0.2-1.8-0.7
		c-0.4-0.4-0.7-1.1-0.7-1.8V3.6l0.2-0.2h12c0.1,0.4,0.1,1,0.1,1.6c0,0.7-0.1,1.3-0.3,2h-7.8l0,2v2.2c0.5,0,1.1,0,1.9,0h4.4
		c0.2,0.4,0.3,1,0.3,1.7s-0.1,1.3-0.3,1.8H319V17.1z"/>
	<path d="M344.3,9.3c0,1.3-0.3,2.3-1,3.2c-0.7,0.9-1.5,1.5-2.4,1.9c1,0.3,1.7,1.2,2.1,2.5l0.9,2.5c0.3,0.9,0.8,1.6,1.4,2
		c-0.3,0.4-0.7,0.7-1.2,0.9c-0.5,0.2-1.1,0.4-1.8,0.4s-1.2-0.2-1.5-0.6c-0.4-0.4-0.7-1-1-1.9l-1.1-3.1c-0.2-0.6-0.5-1-0.8-1.3
		c-0.4-0.3-0.9-0.5-1.6-0.5H335v7.1c-0.6,0.1-1.3,0.2-2.1,0.2c-0.9,0-1.6-0.1-2.1-0.2v-19l0.2-0.2c3.1-0.1,5.3-0.1,6.6-0.1
		c2,0,3.7,0.5,4.9,1.5C343.7,5.8,344.3,7.3,344.3,9.3z M335,6.5v5.7c1.2,0,2-0.1,2.2-0.1c1.8,0,2.7-0.9,2.7-2.8
		c0-1.9-0.9-2.8-2.7-2.8C336.3,6.5,335.6,6.5,335,6.5z"/>
	<path d="M348,22.5V3.4c0.6-0.1,1.3-0.2,2.1-0.2s1.6,0.1,2.1,0.2v19.1c-0.6,0.1-1.3,0.2-2.1,0.2S348.6,22.7,348,22.5z"/>
	<path d="M360.9,17.1l0,1.9v0c0.8,0,1.5-0.1,2-0.1h6.6c0,0.7,0,1.2-0.1,1.5c-0.3,1.4-1.2,2.1-2.7,2.1h-7.6c-0.8,0-1.4-0.2-1.8-0.7
		c-0.4-0.4-0.7-1.1-0.7-1.8V3.6l0.2-0.2h12c0.1,0.4,0.1,1,0.1,1.6c0,0.7-0.1,1.3-0.3,2h-7.8l0,2v2.2c0.5,0,1.1,0,1.9,0h4.4
		c0.2,0.4,0.3,1,0.3,1.7s-0.1,1.3-0.3,1.8h-6.3V17.1z"/>
	<path d="M371,20.9c0.1-0.6,0.2-1.2,0.6-1.8s0.7-1.1,1.1-1.4c2,1.2,3.9,1.8,5.7,1.8c0.8,0,1.4-0.2,1.8-0.6c0.4-0.4,0.6-0.8,0.6-1.4
		c0-0.9-0.6-1.7-1.9-2.2l-3.3-1.4c-2.7-1.2-4-2.9-4-5.1c0-1.7,0.6-3.1,1.9-4.2s3-1.6,5.1-1.6c2.1,0,4.2,0.5,6.2,1.6
		c-0.1,1.3-0.6,2.4-1.5,3.2c-1.9-0.9-3.6-1.4-5-1.4c-0.8,0-1.4,0.2-1.8,0.5c-0.4,0.4-0.6,0.8-0.6,1.2c0,0.7,0.6,1.4,1.7,1.9l3.4,1.4
		c1.3,0.6,2.4,1.3,3.1,2.3c0.7,0.9,1.1,2,1.1,3.2c0,1.8-0.6,3.2-1.9,4.3c-1.3,1.1-3.1,1.7-5.4,1.7c-1.2,0-2.4-0.2-3.6-0.6
		C373.2,22,372.1,21.5,371,20.9z"/>
	<path d="M3.1,57.6V38.5c0.4-0.1,0.8-0.1,1.4-0.1c0.6,0,1,0,1.4,0.1v19.1c-0.4,0.1-0.8,0.1-1.4,0.1C3.9,57.7,3.5,57.7,3.1,57.6z"/>
	<path d="M13.7,41.8h-0.1c0.1,2.5,0.2,4.8,0.2,6.7v9.1c-0.4,0.1-0.9,0.1-1.3,0.1s-0.9,0-1.3-0.1V38.5c0.5-0.1,1.1-0.1,1.7-0.1
		s1.2,0,1.6,0.1l6.1,12c0.3,0.5,0.6,1.3,1.1,2.2c0.4,0.9,0.7,1.5,0.8,1.8v0l0.1,0c-0.2-2.4-0.2-4.7-0.2-6.9v-7.4
		c0-0.6,0.1-1.1,0.3-1.4c0.2-0.3,0.6-0.4,1.2-0.4h0.9l0.2,0.1v19.1c-0.5,0.1-1.1,0.1-1.7,0.1s-1.2,0-1.7-0.1l-6.1-12
		C14.9,44.5,14.3,43.3,13.7,41.8z"/>
	<path d="M37,31.6c4-0.1,6.9-0.2,8.6-0.2c2.8,0,4.9,0.6,6.5,1.7c1.6,1.2,2.3,2.9,2.3,5.2c0,1.1-0.3,2.2-0.9,3.2
		c-0.6,1-1.4,1.7-2.4,2.1c1.3,0.4,2.3,1.2,3.2,2.5s1.3,2.6,1.3,4.1c0,2.5-0.8,4.4-2.5,5.7c-1.6,1.3-4,1.9-7,1.9
		c-1.9,0-5-0.1-9.2-0.2l-0.3-0.3V31.8L37,31.6z M42.4,35.6v6.3h2.9c1.2,0,2.1-0.3,2.6-0.9c0.5-0.6,0.8-1.4,0.8-2.3
		c0-2.1-1.1-3.1-3.4-3.1C44.1,35.6,43.1,35.6,42.4,35.6z M45.7,46.1h-3.3v7.7c0.9,0,2,0,3.4,0c1.4,0,2.5-0.4,3.1-1.1
		c0.6-0.7,0.9-1.6,0.9-2.7c0-1-0.3-1.9-1-2.7C48.2,46.4,47.2,46.1,45.7,46.1z"/>
	<path d="M66.2,52.1c-0.7,0-1.2,0-1.6,0l-1.7,5.6c-0.6,0.2-1.4,0.2-2.5,0.2c-1.1,0-2-0.1-2.7-0.4l-0.2-0.3l8.4-25.5
		c0.9-0.2,2-0.2,3.4-0.2c1.3,0,2.4,0.1,3.3,0.3l8.2,25.5c-0.8,0.5-1.8,0.7-3,0.7s-2-0.2-2.5-0.7c-0.5-0.4-0.9-1.3-1.3-2.5L73.2,52
		c-0.4,0-0.9,0-1.6,0H66.2z M65.9,47.5l1.6,0h2.9c0.1,0,0.4,0,0.7,0c0.3,0,0.6,0,0.8,0L69,37h-0.2c-0.2,1.2-0.8,3.6-1.8,7L65.9,47.5
		z"/>
	<path d="M104.3,31.4l0.3,0.2v25.8c-1,0.2-2.1,0.3-3.4,0.3s-2.5-0.1-3.5-0.2l-6.3-13.9c-1.1-2.5-1.8-4.3-2.2-5.4l-0.2,0
		c0.3,3.6,0.5,7.3,0.5,11.1v8.2c-0.8,0.2-1.7,0.2-2.7,0.2c-1.1,0-1.9-0.1-2.7-0.2V31.8c0.9-0.2,2-0.3,3.3-0.3s2.5,0.1,3.5,0.2
		L97,45.5l2.4,5.7l0.2,0c-0.3-3.5-0.5-7.2-0.5-11v-5.3c0-1.3,0.3-2.2,0.8-2.7c0.5-0.5,1.3-0.8,2.5-0.8H104.3z"/>
	<path d="M120.5,43l5.9,0c0,0,0.1,0,0.1,0c2.5,0,3.8,1.2,3.8,3.6v10c-3.1,1.1-6.5,1.6-10.2,1.6c-3.6,0-6.4-1.2-8.3-3.6
		c-1.9-2.4-2.8-5.6-2.8-9.8c0-2.2,0.3-4.2,1-6c0.7-1.8,1.6-3.2,2.7-4.4c2.3-2.2,5.1-3.3,8.4-3.3c3.3,0,6.4,0.9,9.2,2.7
		c-0.1,0.8-0.4,1.6-0.9,2.4c-0.5,0.8-1.1,1.4-1.7,1.8c-2.1-1.4-4.2-2.1-6.3-2.1c-4.3,0-6.5,2.9-6.5,8.8c0,5.9,2.2,8.8,6.5,8.8
		c1.1,0,2.3-0.1,3.5-0.3v-2.8c0-1.1,0-2,0.1-2.6h-2.1c-1,0-1.7-0.2-2.1-0.6s-0.6-1-0.6-1.9C120.1,44.5,120.2,43.7,120.5,43z"/>
	<path d="M144.6,52.7h6.7c0,0.8-0.1,1.6-0.2,2.2c-0.3,1.9-1.6,2.8-3.8,2.8h-8.7c-1,0-1.9-0.3-2.5-0.9c-0.6-0.6-0.9-1.4-0.9-2.5V31.7
		l0.3-0.2h2.1c2.3,0,3.4,1.2,3.4,3.6v17.7C142.3,52.7,143.5,52.7,144.6,52.7z"/>
	<path d="M161.2,52.1c-0.7,0-1.2,0-1.6,0l-1.7,5.6c-0.6,0.2-1.4,0.2-2.5,0.2c-1.1,0-2-0.1-2.7-0.4l-0.2-0.3l8.4-25.5
		c0.9-0.2,2-0.2,3.4-0.2c1.3,0,2.4,0.1,3.3,0.3l8.2,25.5c-0.8,0.5-1.8,0.7-3,0.7s-2-0.2-2.5-0.7c-0.5-0.4-0.9-1.3-1.3-2.5l-0.8-2.8
		c-0.4,0-0.9,0-1.6,0H161.2z M161,47.5l1.6,0h2.9c0.1,0,0.4,0,0.7,0c0.3,0,0.6,0,0.8,0L164,37h-0.2c-0.2,1.2-0.8,3.6-1.8,7L161,47.5
		z"/>
	<path d="M199.1,38.1c0.6,1.8,0.9,4,0.9,6.6s-0.3,4.7-0.9,6.6c-0.6,1.8-1.7,3.4-3.4,4.7c-0.8,0.6-1.8,1.1-3.2,1.4s-2.7,0.5-4.3,0.5
		c-1.5,0-4.5-0.1-8.9-0.2l-0.3-0.3V31.8l0.3-0.3c2.9-0.1,6-0.2,9.4-0.2c1.2,0,2.4,0.2,3.8,0.5c1.3,0.3,2.4,0.8,3.2,1.4
		C197.4,34.7,198.5,36.2,199.1,38.1z M185.9,53.3l3,0c3.5,0,5.2-2.9,5.2-8.7s-1.7-8.7-5.2-8.7l-3.9,0v17.4
		C185,53.3,185.3,53.3,185.9,53.3z"/>
	<path d="M210.1,50.3l0,2.6v0c1.1-0.1,2-0.1,2.8-0.1h9c0,0.9,0,1.6-0.1,2.1c-0.4,1.9-1.6,2.8-3.7,2.8h-10.3c-1,0-1.9-0.3-2.5-0.9
		c-0.6-0.6-0.9-1.4-0.9-2.5V31.9l0.3-0.3h16.2c0.1,0.6,0.2,1.3,0.2,2.2c0,0.9-0.2,1.8-0.5,2.7h-10.5l0,2.7v3c0.7,0,1.5,0,2.5,0h6
		c0.2,0.6,0.3,1.4,0.3,2.3c0,0.9-0.1,1.8-0.3,2.4h-8.5V50.3z"/>
	<path d="M223.9,55.3c0.1-0.8,0.3-1.6,0.8-2.4c0.4-0.8,0.9-1.4,1.5-1.9c2.8,1.7,5.3,2.5,7.7,2.5c1.1,0,1.9-0.3,2.5-0.8
		c0.6-0.5,0.9-1.1,0.9-1.9c0-1.3-0.8-2.3-2.5-3l-4.5-1.9c-3.6-1.6-5.4-3.9-5.4-7c0-2.3,0.9-4.2,2.6-5.7s4-2.2,6.9-2.2
		s5.7,0.7,8.5,2.2c-0.1,1.7-0.8,3.2-2,4.4c-2.6-1.2-4.9-1.9-6.8-1.9c-1,0-1.8,0.2-2.4,0.7c-0.6,0.5-0.8,1.1-0.8,1.7
		c0,1,0.8,1.9,2.4,2.5l4.6,1.9c1.8,0.8,3.2,1.8,4.2,3.1c1,1.3,1.5,2.7,1.5,4.4c0,2.4-0.9,4.4-2.6,5.9c-1.7,1.5-4.2,2.2-7.4,2.2
		c-1.6,0-3.2-0.3-4.9-0.8S225.2,56.2,223.9,55.3z"/>
	<path d="M261.7,41.8l0-2.8v-7.4c0.8-0.2,1.7-0.2,2.9-0.2s2.1,0.1,2.9,0.2v26c-0.8,0.2-1.8,0.2-2.9,0.2c-1.2,0-2.1-0.1-2.9-0.2v-8.2
		l0-2.8l-1.9,0H255l-1.9,0l0,2.8v8.2c-0.8,0.2-1.7,0.2-2.9,0.2s-2.2-0.1-2.9-0.2v-26c0.7-0.2,1.7-0.2,2.9-0.2s2.2,0.1,2.9,0.2V39
		l0,2.8l1.9,0h4.7L261.7,41.8z"/>
	<path d="M272.8,55.6c0-0.8,0.1-1.4,0.3-1.9c0.6-0.3,1.3-0.5,2.3-0.5s1.7,0.2,2.2,0.5c0.2,0.5,0.3,1.1,0.3,1.9
		c0,0.8-0.1,1.4-0.3,1.9c-0.5,0.3-1.2,0.5-2.2,0.5c-1,0-1.7-0.2-2.3-0.5C272.9,57,272.8,56.4,272.8,55.6z"/>
	<path d="M282.6,55.6c0-0.8,0.1-1.4,0.3-1.9c0.6-0.3,1.3-0.5,2.3-0.5s1.7,0.2,2.2,0.5c0.2,0.5,0.3,1.1,0.3,1.9
		c0,0.8-0.1,1.4-0.3,1.9c-0.5,0.3-1.2,0.5-2.2,0.5c-1,0-1.7-0.2-2.3-0.5C282.7,57,282.6,56.4,282.6,55.6z"/>
	<path d="M292.5,55.6c0-0.8,0.1-1.4,0.3-1.9c0.6-0.3,1.3-0.5,2.3-0.5s1.7,0.2,2.2,0.5c0.2,0.5,0.3,1.1,0.3,1.9
		c0,0.8-0.1,1.4-0.3,1.9c-0.5,0.3-1.2,0.5-2.2,0.5c-1,0-1.7-0.2-2.3-0.5C292.6,57,292.5,56.4,292.5,55.6z"/>
</g>
</svg>
