<?xml version="1.0" encoding="utf-8"?>
<!-- Generator: Adobe Illustrator 19.2.1, SVG Export Plug-In . SVG Version: 6.00 Build 0)  -->
<svg version="1.1" id="Layer_1" xmlns="http://www.w3.org/2000/svg" xmlns:xlink="http://www.w3.org/1999/xlink" x="0px" y="0px"
	 viewBox="0 0 391.8 63.7" style="enable-background:new 0 0 391.8 63.7;" xml:space="preserve">
<g>
	<path d="M1.2,24.7V5.5c0.6-0.1,1.3-0.2,2.1-0.2S5,5.4,5.5,5.5v19.1c-0.6,0.1-1.3,0.2-2.1,0.2S1.8,24.8,1.2,24.7z"/>
	<path d="M16.8,21.1h5c0,0.6,0,1.1-0.1,1.6c-0.2,1.4-1.2,2.1-2.8,2.1h-6.4c-0.8,0-1.4-0.2-1.8-0.7c-0.4-0.4-0.7-1.1-0.7-1.8V5.5
		l0.2-0.2h1.6c1.7,0,2.5,0.9,2.5,2.7v13.1C15.2,21.1,16,21.1,16.8,21.1z"/>
	<path d="M31.4,21.1h5c0,0.6,0,1.1-0.1,1.6c-0.2,1.4-1.2,2.1-2.8,2.1H27c-0.8,0-1.4-0.2-1.8-0.7c-0.4-0.4-0.7-1.1-0.7-1.8V5.5
		l0.2-0.2h1.6c1.7,0,2.5,0.9,2.5,2.7v13.1C29.8,21.1,30.6,21.1,31.4,21.1z"/>
	<path d="M43.4,19.3l0,1.9v0c0.8,0,1.5-0.1,2-0.1H52c0,0.7,0,1.2-0.1,1.5c-0.3,1.4-1.2,2.1-2.7,2.1h-7.6c-0.8,0-1.4-0.2-1.8-0.7
		c-0.4-0.4-0.7-1.1-0.7-1.8V5.7l0.2-0.2h12c0.1,0.4,0.1,1,0.1,1.6c0,0.7-0.1,1.3-0.3,2h-7.8l0,2v2.2c0.5,0,1.1,0,1.9,0h4.4
		c0.2,0.4,0.3,1,0.3,1.7s-0.1,1.3-0.3,1.8h-6.3V19.3z"/>
	<path d="M62.6,13.9l4.4,0c0,0,0,0,0.1,0c1.9,0,2.8,0.9,2.8,2.7v7.3c-2.3,0.8-4.8,1.2-7.5,1.2c-2.7,0-4.7-0.9-6.1-2.6
		c-1.4-1.8-2.1-4.2-2.1-7.2c0-1.6,0.2-3.1,0.7-4.4c0.5-1.3,1.2-2.4,2-3.2c1.7-1.6,3.7-2.5,6.2-2.5s4.7,0.7,6.8,2
		c-0.1,0.6-0.3,1.2-0.7,1.8c-0.4,0.6-0.8,1-1.3,1.3c-1.5-1-3.1-1.5-4.6-1.5c-3.2,0-4.8,2.2-4.8,6.5s1.6,6.5,4.8,6.5
		c0.8,0,1.7-0.1,2.6-0.3v-2c0-0.8,0-1.5,0.1-1.9h-1.5c-0.7,0-1.2-0.1-1.5-0.4c-0.3-0.3-0.5-0.7-0.5-1.4S62.4,14.4,62.6,13.9z"/>
	<path d="M78,20.6c-0.5,0-0.9,0-1.2,0l-1.2,4.1c-0.4,0.1-1.1,0.2-1.9,0.2s-1.5-0.1-2-0.3l-0.2-0.2l6.2-18.8c0.7-0.1,1.5-0.2,2.5-0.2
		c1,0,1.8,0.1,2.4,0.2l6,18.8c-0.6,0.4-1.4,0.5-2.2,0.5s-1.5-0.2-1.8-0.5c-0.4-0.3-0.7-0.9-0.9-1.8l-0.6-2c-0.3,0-0.7,0-1.2,0H78z
		 M77.8,17.2l1.2,0h2.2c0.1,0,0.3,0,0.5,0c0.2,0,0.4,0,0.6,0l-2.1-7.7h-0.1c-0.2,0.9-0.6,2.6-1.3,5.2L77.8,17.2z"/>
	<path d="M98.1,21.1h5c0,0.6,0,1.1-0.1,1.6c-0.2,1.4-1.2,2.1-2.8,2.1h-6.4c-0.8,0-1.4-0.2-1.8-0.7c-0.4-0.4-0.7-1.1-0.7-1.8V5.5
		l0.2-0.2h1.6c1.7,0,2.5,0.9,2.5,2.7v13.1C96.4,21.1,97.3,21.1,98.1,21.1z"/>
	<path d="M105.8,24.7V5.5c0.6-0.1,1.3-0.2,2.1-0.2s1.6,0.1,2.1,0.2v19.1c-0.6,0.1-1.3,0.2-2.1,0.2S106.4,24.8,105.8,24.7z"/>
	<path d="M112.9,23c0.1-0.6,0.2-1.2,0.6-1.8s0.7-1.1,1.1-1.4c2,1.2,3.9,1.8,5.7,1.8c0.8,0,1.4-0.2,1.8-0.6c0.4-0.4,0.6-0.8,0.6-1.4
		c0-0.9-0.6-1.7-1.9-2.2l-3.3-1.4c-2.7-1.2-4-2.9-4-5.1c0-1.7,0.6-3.1,1.9-4.2s3-1.6,5.1-1.6c2.1,0,4.2,0.5,6.2,1.6
		c-0.1,1.3-0.6,2.4-1.5,3.2c-1.9-0.9-3.6-1.4-5-1.4c-0.8,0-1.4,0.2-1.8,0.5c-0.4,0.4-0.6,0.8-0.6,1.2c0,0.7,0.6,1.4,1.7,1.9l3.4,1.4
		c1.3,0.6,2.4,1.3,3.1,2.3c0.7,0.9,1.1,2,1.1,3.2c0,1.8-0.6,3.2-1.9,4.3c-1.3,1.1-3.1,1.7-5.4,1.7c-1.2,0-2.4-0.2-3.6-0.6
		C115,24.2,113.9,23.6,112.9,23z"/>
	<path d="M134.4,19.3l0,1.9v0c0.8,0,1.5-0.1,2-0.1h6.6c0,0.7,0,1.2-0.1,1.5c-0.3,1.4-1.2,2.1-2.7,2.1h-7.6c-0.8,0-1.4-0.2-1.8-0.7
		c-0.4-0.4-0.7-1.1-0.7-1.8V5.7l0.2-0.2h12c0.1,0.4,0.1,1,0.1,1.6c0,0.7-0.1,1.3-0.3,2h-7.8l0,2v2.2c0.5,0,1.1,0,1.9,0h4.4
		c0.2,0.4,0.3,1,0.3,1.7s-0.1,1.3-0.3,1.8h-6.3V19.3z"/>
	<path d="M160.9,10.3c0.4,1.4,0.7,3,0.7,4.8s-0.2,3.5-0.6,4.9c-0.4,1.4-1.3,2.5-2.5,3.5c-0.6,0.5-1.4,0.8-2.3,1
		c-1,0.2-2,0.4-3.1,0.4s-3.3,0-6.6-0.1l-0.2-0.2V5.7l0.2-0.2c2.1-0.1,4.5-0.1,6.9-0.1c0.9,0,1.8,0.1,2.8,0.4c1,0.2,1.7,0.6,2.3,1.1
		C159.6,7.8,160.4,8.9,160.9,10.3z M151.1,21.5l2.2,0c2.6,0,3.8-2.1,3.8-6.4c0-4.3-1.3-6.4-3.8-6.4l-2.9,0v12.8
		C150.5,21.5,150.7,21.5,151.1,21.5z"/>
	<path d="M182.5,7.1c1.2,1.1,1.8,2.7,1.8,4.9c0,2.1-0.6,3.8-1.9,4.9c-1.2,1.1-2.9,1.7-4.9,1.7h-2.3v6.1c-0.6,0.1-1.3,0.2-2.2,0.2
		c-0.9,0-1.6-0.1-2.1-0.2v-19l0.2-0.2c3.1-0.1,5.3-0.1,6.4-0.1C179.6,5.4,181.3,5.9,182.5,7.1z M175.3,8.6v6.7c0.5,0,1.2,0,1.9,0
		c0.7,0,1.3-0.2,1.8-0.6s0.7-0.8,0.8-1.2c0.1-0.4,0.2-1,0.2-1.8c0-0.7-0.2-1.4-0.6-2.1c-0.4-0.7-1.1-1-2-1
		C176.5,8.7,175.8,8.7,175.3,8.6z"/>
	<path d="M194.2,21.1h5c0,0.6,0,1.1-0.1,1.6c-0.2,1.4-1.2,2.1-2.8,2.1h-6.4c-0.8,0-1.4-0.2-1.8-0.7c-0.4-0.4-0.7-1.1-0.7-1.8V5.5
		l0.2-0.2h1.6c1.7,0,2.5,0.9,2.5,2.7v13.1C192.6,21.1,193.4,21.1,194.2,21.1z"/>
	<path d="M206.5,20.6c-0.5,0-0.9,0-1.2,0l-1.2,4.1c-0.4,0.1-1.1,0.2-1.9,0.2s-1.5-0.1-2-0.3l-0.2-0.2l6.2-18.8
		c0.7-0.1,1.5-0.2,2.5-0.2c1,0,1.8,0.1,2.4,0.2l6,18.8c-0.6,0.4-1.4,0.5-2.2,0.5s-1.5-0.2-1.8-0.5c-0.4-0.3-0.7-0.9-0.9-1.8l-0.6-2
		c-0.3,0-0.7,0-1.2,0H206.5z M206.3,17.2l1.2,0h2.2c0.1,0,0.3,0,0.5,0c0.2,0,0.4,0,0.6,0l-2.1-7.7h-0.1c-0.2,0.9-0.6,2.6-1.3,5.2
		L206.3,17.2z"/>
	<path d="M234.6,5.4l0.2,0.2v19c-0.7,0.2-1.5,0.3-2.5,0.3c-1,0-1.8-0.1-2.6-0.2l-4.6-10.2c-0.8-1.9-1.3-3.2-1.6-3.9l-0.1,0
		c0.2,2.7,0.3,5.4,0.3,8.1v6c-0.6,0.1-1.2,0.2-2,0.2c-0.8,0-1.4-0.1-2-0.2v-19c0.7-0.2,1.5-0.3,2.5-0.3s1.8,0.1,2.6,0.2l4.5,10.2
		L231,20l0.1,0c-0.2-2.6-0.3-5.3-0.3-8.1V7.9c0-0.9,0.2-1.6,0.6-2c0.4-0.4,1-0.6,1.8-0.6H234.6z"/>
	<path d="M246.2,9.1l0,2.1v13.5c-0.6,0.1-1.3,0.2-2.1,0.2s-1.6-0.1-2.1-0.2V11.1l0-2.1h0l-1.7,0h-3c-0.1-0.5-0.1-1.1-0.1-1.8
		s0-1.2,0.1-1.8H251c0.1,0.5,0.2,1.1,0.2,1.7c0,0.7-0.2,1.1-0.5,1.4c-0.4,0.3-0.9,0.4-1.7,0.4h-1L246.2,9.1L246.2,9.1z"/>
	<path d="M251.6,23c0.1-0.6,0.2-1.2,0.6-1.8s0.7-1.1,1.1-1.4c2,1.2,3.9,1.8,5.7,1.8c0.8,0,1.4-0.2,1.8-0.6c0.4-0.4,0.6-0.8,0.6-1.4
		c0-0.9-0.6-1.7-1.9-2.2l-3.3-1.4c-2.7-1.2-4-2.9-4-5.1c0-1.7,0.6-3.1,1.9-4.2s3-1.6,5.1-1.6c2.1,0,4.2,0.5,6.2,1.6
		c-0.1,1.3-0.6,2.4-1.5,3.2c-1.9-0.9-3.6-1.4-5-1.4c-0.8,0-1.4,0.2-1.8,0.5c-0.4,0.4-0.6,0.8-0.6,1.2c0,0.7,0.6,1.4,1.7,1.9l3.4,1.4
		c1.3,0.6,2.4,1.3,3.1,2.3c0.7,0.9,1.1,2,1.1,3.2c0,1.8-0.6,3.2-1.9,4.3c-1.3,1.1-3.1,1.7-5.4,1.7c-1.2,0-2.4-0.2-3.6-0.6
		C253.8,24.2,252.6,23.6,251.6,23z"/>
	<path d="M277.3,23.3c-2-1.7-3-4.5-3-8.2s1-6.5,3-8.2c1.3-1.1,2.9-1.7,4.8-1.7s3.5,0.6,4.8,1.7c2,1.7,3,4.5,3,8.2s-1,6.5-3,8.2
		c-1.3,1.1-2.9,1.7-4.8,1.7S278.6,24.5,277.3,23.3z M277.5,12.4c-0.1,0.8-0.2,1.7-0.2,2.7c0,1,0.1,1.9,0.2,2.7
		c0.1,0.8,0.4,1.6,0.7,2.4c0.3,0.8,0.8,1.4,1.5,1.9c0.7,0.5,1.4,0.7,2.3,0.7s1.6-0.2,2.2-0.5s1.1-0.7,1.4-1.2
		c0.3-0.5,0.6-1.1,0.8-1.8c0.4-1.2,0.6-2.4,0.6-3.7s-0.1-2.3-0.2-3.1s-0.4-1.6-0.7-2.4c-0.3-0.8-0.8-1.4-1.5-1.9
		c-0.7-0.5-1.5-0.7-2.4-0.7c-1,0-1.8,0.2-2.4,0.7c-0.7,0.5-1.2,1.1-1.5,1.9C277.9,10.8,277.6,11.6,277.5,12.4z"/>
	<path d="M296.7,7.9l0,3.4v2.5c0.3,0,0.7,0,1.3,0h5.7c0.1,0.4,0.1,0.8,0.1,1.2s0,0.8-0.1,1.2H298c-0.5,0-1,0-1.3,0v8.5
		c-0.4,0.1-0.8,0.1-1.4,0.1c-0.6,0-1,0-1.4-0.1v-19l0.2-0.2h11c0.1,0.3,0.2,0.7,0.2,1.1c0,0.9-0.5,1.3-1.6,1.3h-4.2
		C298.1,7.9,297.2,7.9,296.7,7.9z"/>
	<path d="M324,19.9l-1.7,0h-3.8l-1.7,0l-1.5,4.8c-0.3,0.1-0.7,0.1-1.2,0.1s-0.9-0.1-1.4-0.2l-0.1-0.1L319,5.5
		c0.4-0.1,0.9-0.1,1.6-0.1c0.7,0,1.2,0,1.5,0.1l6.3,19c-0.4,0.2-0.9,0.4-1.5,0.4s-1-0.1-1.2-0.3c-0.2-0.2-0.4-0.6-0.6-1.2L324,19.9z
		 M317.5,17.7l1.5,0h2.9c0,0,0.2,0,0.6,0c0.4,0,0.6,0,0.8,0l-1.4-4.3c-0.6-1.7-1-3.4-1.5-5h-0.2c-0.3,1.3-0.7,2.6-1.1,3.9
		L317.5,17.7z"/>
	<path d="M21.9,38.6c0.6,1.8,0.9,4,0.9,6.6s-0.3,4.7-0.9,6.6c-0.6,1.8-1.7,3.4-3.4,4.7c-0.8,0.6-1.8,1.1-3.2,1.4s-2.7,0.5-4.3,0.5
		c-1.5,0-4.5-0.1-8.9-0.2L2,57.9V32.4l0.3-0.3c2.9-0.1,6-0.2,9.4-0.2c1.2,0,2.4,0.2,3.8,0.5c1.3,0.3,2.4,0.8,3.2,1.4
		C20.2,35.2,21.3,36.7,21.9,38.6z M8.7,53.8l3,0c3.5,0,5.2-2.9,5.2-8.7s-1.7-8.7-5.2-8.7l-3.9,0v17.4C7.8,53.8,8.1,53.8,8.7,53.8z"
		/>
	<path d="M27.3,58.1v-26c0.8-0.2,1.7-0.2,2.9-0.2c1.2,0,2.1,0.1,2.9,0.2v26c-0.8,0.2-1.7,0.2-2.9,0.2C29,58.4,28.1,58.3,27.3,58.1z"
		/>
	<path d="M36.8,55.8c0.1-0.8,0.3-1.6,0.8-2.4c0.4-0.8,0.9-1.4,1.5-1.9c2.8,1.7,5.3,2.5,7.7,2.5c1.1,0,1.9-0.3,2.5-0.8
		c0.6-0.5,0.9-1.1,0.9-1.9c0-1.3-0.8-2.3-2.5-3l-4.5-1.9c-3.6-1.6-5.4-3.9-5.4-7c0-2.3,0.9-4.2,2.6-5.7s4-2.2,6.9-2.2
		s5.7,0.7,8.5,2.2c-0.1,1.7-0.8,3.2-2,4.4c-2.6-1.2-4.9-1.9-6.8-1.9c-1,0-1.8,0.2-2.4,0.7c-0.6,0.5-0.8,1.1-0.8,1.7
		c0,1,0.8,1.9,2.4,2.5l4.6,1.9c1.8,0.8,3.2,1.8,4.2,3.1c1,1.3,1.5,2.7,1.5,4.4c0,2.4-0.9,4.4-2.6,5.9c-1.7,1.5-4.2,2.2-7.4,2.2
		c-1.6,0-3.2-0.3-4.9-0.8S38.2,56.7,36.8,55.8z"/>
	<path d="M69.9,37l0,2.8v18.4c-0.8,0.2-1.8,0.2-2.9,0.2c-1.2,0-2.1-0.1-2.9-0.2V39.8l0-2.8h0l-2.4,0h-4c-0.1-0.7-0.2-1.5-0.2-2.4
		s0.1-1.7,0.2-2.4h18.6c0.2,0.7,0.3,1.4,0.3,2.3c0,0.9-0.2,1.5-0.7,1.9c-0.5,0.4-1.3,0.6-2.3,0.6h-1.3L69.9,37L69.9,37z"/>
	<path d="M82.1,56.3c-2.7-2.3-4.1-6-4.1-11.2c0-5.2,1.4-8.9,4.1-11.2c2-1.6,4.3-2.4,7.1-2.4c2.8,0,5.2,0.8,7.1,2.4
		c2.7,2.3,4.1,6,4.1,11.2c0,5.2-1.4,8.9-4.1,11.2c-2,1.6-4.3,2.4-7.1,2.4C86.5,58.7,84.1,57.9,82.1,56.3z M89.3,36.1
		c-3.4,0-5.1,3-5.1,9.1s1.7,9.1,5.1,9.1s5.1-3,5.1-9.1S92.7,36.1,89.3,36.1z"/>
	<path d="M120.5,34.2c1.7,1.5,2.5,3.7,2.5,6.6c0,2.9-0.8,5.1-2.5,6.7c-1.7,1.5-3.9,2.3-6.7,2.3h-3.2v8.3c-0.8,0.2-1.7,0.2-2.9,0.2
		s-2.2-0.1-2.9-0.2V32.4l0.3-0.3c4.3-0.1,7.2-0.2,8.7-0.2C116.6,31.9,118.9,32.7,120.5,34.2z M110.7,36.4v9.1c0.7,0,1.6,0,2.6,0
		c1,0,1.8-0.3,2.4-0.8c0.6-0.5,1-1.1,1.1-1.7c0.2-0.6,0.2-1.4,0.2-2.4c0-1-0.3-1.9-0.8-2.8c-0.5-0.9-1.4-1.3-2.7-1.3
		S111.4,36.4,110.7,36.4z"/>
	<path d="M127.2,58.1v-26c0.8-0.2,1.7-0.2,2.9-0.2c1.2,0,2.1,0.1,2.9,0.2v26c-0.8,0.2-1.7,0.2-2.9,0.2
		C128.9,58.4,128,58.3,127.2,58.1z"/>
	<path d="M145.2,52.6c-0.7,0-1.2,0-1.6,0l-1.7,5.6c-0.6,0.2-1.4,0.2-2.5,0.2c-1.1,0-2-0.1-2.7-0.4l-0.2-0.3l8.4-25.5
		c0.9-0.2,2-0.2,3.4-0.2c1.3,0,2.4,0.1,3.3,0.3l8.2,25.5c-0.8,0.5-1.8,0.7-3,0.7s-2-0.2-2.5-0.7c-0.5-0.4-0.9-1.3-1.3-2.5l-0.8-2.8
		c-0.4,0-0.9,0-1.6,0H145.2z M145,48l1.6,0h2.9c0.1,0,0.4,0,0.7,0c0.3,0,0.6,0,0.8,0L148,37.5h-0.2c-0.2,1.2-0.8,3.6-1.8,7L145,48z"
		/>
	<path d="M183.3,31.9l0.3,0.2V58c-1,0.2-2.1,0.3-3.4,0.3s-2.5-0.1-3.5-0.2l-6.3-13.9c-1.1-2.5-1.8-4.3-2.2-5.4l-0.2,0
		c0.3,3.6,0.5,7.3,0.5,11.1v8.2c-0.8,0.2-1.7,0.2-2.7,0.2c-1.1,0-1.9-0.1-2.7-0.2V32.3c0.9-0.2,2-0.3,3.3-0.3s2.5,0.1,3.5,0.2
		l6.2,13.9l2.4,5.7l0.2,0c-0.3-3.5-0.5-7.2-0.5-11v-5.3c0-1.3,0.3-2.2,0.8-2.7c0.5-0.5,1.3-0.8,2.5-0.8H183.3z"/>
	<path d="M202.2,35.4l0,4.6v3.5c0.4,0,1,0,1.7,0h7.7c0.1,0.6,0.2,1.1,0.2,1.6c0,0.5-0.1,1-0.2,1.6h-7.7c-0.7,0-1.3,0-1.7,0v11.5
		c-0.5,0.1-1.1,0.2-1.9,0.2c-0.8,0-1.4-0.1-1.9-0.2V32.4l0.3-0.2h14.9c0.2,0.5,0.2,1,0.2,1.5c0,1.2-0.7,1.7-2.2,1.7h-5.7
		C204.1,35.4,202.9,35.4,202.2,35.4z"/>
	<path d="M236.9,32.2v16.9c0,3.1-0.9,5.4-2.6,7.1c-1.7,1.6-4,2.5-6.9,2.5c-2.9,0-5.2-0.8-6.9-2.5c-1.7-1.6-2.6-4-2.6-7.1V32.2
		l0.2-0.2h1.4c0.8,0,1.3,0.2,1.7,0.6c0.3,0.4,0.5,1,0.5,1.9V49c0,2.1,0.5,3.7,1.4,4.8s2.4,1.7,4.3,1.7c1.9,0,3.3-0.6,4.3-1.7
		s1.5-2.7,1.5-4.8V32.2c0.5-0.1,1.1-0.2,1.9-0.2S236.4,32.1,236.9,32.2z"/>
	<path d="M251.3,35.3l0,2.8v20c-0.5,0.1-1.2,0.2-1.9,0.2c-0.7,0-1.4-0.1-1.9-0.2V35.3l-2.2,0h-4.6c-0.1-0.5-0.2-1-0.2-1.6
		c0-0.6,0-1.1,0.2-1.6H258c0.2,0.4,0.2,0.9,0.2,1.5c0,1.1-0.7,1.7-2.1,1.7h-2.7L251.3,35.3L251.3,35.3z"/>
	<path d="M280.9,32.2v16.9c0,3.1-0.9,5.4-2.6,7.1c-1.7,1.6-4,2.5-6.9,2.5c-2.9,0-5.2-0.8-6.9-2.5c-1.7-1.6-2.6-4-2.6-7.1V32.2
		l0.2-0.2h1.4c0.8,0,1.3,0.2,1.7,0.6c0.3,0.4,0.5,1,0.5,1.9V49c0,2.1,0.5,3.7,1.4,4.8s2.4,1.7,4.3,1.7c1.9,0,3.3-0.6,4.3-1.7
		s1.5-2.7,1.5-4.8V32.2c0.5-0.1,1.1-0.2,1.9-0.2S280.4,32.1,280.9,32.2z"/>
	<path d="M287.8,32.1l8.1-0.1c2.7,0,4.8,0.7,6.3,2c1.5,1.4,2.3,3.3,2.3,5.7c0,1.7-0.5,3.2-1.4,4.4c-0.9,1.2-2.1,2.1-3.5,2.5
		c1.1,0.4,2,1.5,2.7,3.2l1.7,4.6c0.5,1.3,1.1,2.3,1.7,2.7c-0.5,0.8-1.4,1.2-2.5,1.2c-0.7,0-1.2-0.2-1.6-0.6c-0.4-0.4-0.7-1-1-1.8
		l-2-5.3c-0.4-1-0.9-1.8-1.4-2.4c-0.6-0.5-1.4-0.8-2.5-0.8h-3.3v10.5c-0.5,0.1-1.1,0.2-1.9,0.2c-0.8,0-1.4-0.1-1.9-0.2V32.4
		L287.8,32.1z M291.4,35v9.5c1.5-0.1,3-0.1,4.6-0.1c1.6,0,2.7-0.4,3.4-1.3s1.1-2,1.1-3.3c0-3.1-1.6-4.7-4.8-4.7
		C293.7,35.1,292.2,35,291.4,35z"/>
	<path d="M314.1,43.5l2.4,0h7.3c0.1,0.6,0.2,1.1,0.2,1.6c0,0.5-0.1,1-0.2,1.6h-7.3c-1,0-1.8,0-2.4,0v6.6c0,0.2,0,0.5,0,0.9
		c0,0.4,0,0.7,0,0.9c0.7-0.1,1.5-0.1,2.5-0.1h10c0,0.7,0,1.2-0.1,1.5c-0.2,1.2-1,1.8-2.4,1.8h-11.4c-0.7,0-1.2-0.2-1.6-0.6
		s-0.6-1-0.6-1.7V32.4l0.2-0.2h15.2c0.1,0.4,0.1,0.9,0.1,1.5c0,0.6-0.1,1.2-0.3,1.7h-9.2c-1,0-1.8,0-2.4,0l0,2.5V43.5z"/>
	<path d="M330.4,56.3c0-0.7,0.1-1.3,0.3-1.7c0.5-0.3,1.2-0.4,2-0.4c0.9,0,1.5,0.1,2,0.4c0.2,0.4,0.3,1,0.3,1.7
		c0,0.7-0.1,1.3-0.3,1.7c-0.4,0.3-1.1,0.4-2,0.4c-0.9,0-1.6-0.1-2.1-0.4C330.5,57.6,330.4,57,330.4,56.3z"/>
	<path d="M339.3,56.3c0-0.7,0.1-1.3,0.3-1.7c0.5-0.3,1.2-0.4,2-0.4c0.9,0,1.5,0.1,2,0.4c0.2,0.4,0.3,1,0.3,1.7
		c0,0.7-0.1,1.3-0.3,1.7c-0.4,0.3-1.1,0.4-2,0.4c-0.9,0-1.6-0.1-2.1-0.4C339.5,57.6,339.3,57,339.3,56.3z"/>
	<path d="M348.3,56.3c0-0.7,0.1-1.3,0.3-1.7c0.5-0.3,1.2-0.4,2-0.4c0.9,0,1.5,0.1,2,0.4c0.2,0.4,0.3,1,0.3,1.7
		c0,0.7-0.1,1.3-0.3,1.7c-0.4,0.3-1.1,0.4-2,0.4c-0.9,0-1.6-0.1-2.1-0.4C348.4,57.6,348.3,57,348.3,56.3z"/>
</g>
</svg>
