<?xml version="1.0" encoding="utf-8"?>
<!-- Generator: Adobe Illustrator 19.2.1, SVG Export Plug-In . SVG Version: 6.00 Build 0)  -->
<svg version="1.1" id="Layer_1" xmlns="http://www.w3.org/2000/svg" xmlns:xlink="http://www.w3.org/1999/xlink" x="0px" y="0px"
	 viewBox="0 0 391.8 63.7" style="enable-background:new 0 0 391.8 63.7;" xml:space="preserve">
<g>
	<path d="M3.2,3.4l6.5-0.1c2.2,0,4,0.6,5.3,1.8c1.3,1.2,2,3,2,5.2c0,2.3-0.7,4-2,5.2c-1.3,1.2-3.1,1.8-5.3,1.8H6.1v7.8
		c-0.4,0.1-1,0.1-1.6,0.1s-1.2,0-1.6-0.1V3.6L3.2,3.4z M6.1,14.9l3.4,0c1,0,1.9-0.3,2.5-0.8c0.6-0.5,1-1.1,1.2-1.7
		c0.2-0.6,0.3-1.4,0.3-2.4c0-1-0.3-1.9-0.9-2.8C12.1,6.3,11,5.9,9.5,5.9s-2.6,0-3.4,0V14.9z"/>
	<path d="M27,22.5h6.5c0,0.6,0,1-0.1,1.3c-0.2,1-0.9,1.5-2.1,1.5h-8.5c-0.6,0-1-0.2-1.3-0.5c-0.3-0.4-0.5-0.8-0.5-1.5V3.5l0.2-0.2
		h1.2c0.6,0,1.1,0.2,1.4,0.5c0.3,0.3,0.4,0.8,0.4,1.6v17.3C25.2,22.5,26.2,22.5,27,22.5z"/>
	<path d="M48.2,19.8l-2,0h-4.4l-2,0l-1.7,5.4c-0.3,0.1-0.8,0.1-1.3,0.1s-1.1-0.1-1.6-0.2L35.1,25l7.3-21.6c0.4-0.1,1-0.1,1.9-0.1
		s1.4,0,1.8,0.1l7.2,21.7c-0.5,0.3-1,0.4-1.7,0.4c-0.7,0-1.1-0.1-1.4-0.4s-0.5-0.7-0.7-1.3L48.2,19.8z M40.7,17.3l1.7,0h3.3
		c0,0,0.3,0,0.7,0c0.4,0,0.7,0,0.9,0l-1.6-5c-0.6-1.9-1.2-3.8-1.7-5.7h-0.2c-0.3,1.5-0.7,3-1.2,4.4L40.7,17.3z"/>
	<path d="M59.7,7.2h-0.1c0.2,2.9,0.3,5.5,0.3,7.6v10.4c-0.5,0.1-1,0.1-1.5,0.1s-1,0-1.5-0.1V3.4c0.6-0.1,1.3-0.2,2-0.2
		s1.3,0,1.9,0.1l7,13.7c0.3,0.6,0.7,1.5,1.2,2.5c0.5,1.1,0.8,1.8,1,2v0l0.1,0c-0.2-2.7-0.3-5.3-0.3-7.9V5.3c0-0.7,0.1-1.2,0.4-1.6
		c0.2-0.3,0.7-0.5,1.4-0.5h1l0.2,0.2v21.8c-0.6,0.1-1.3,0.2-2,0.2c-0.7,0-1.4,0-1.9-0.1l-7-13.7C61.1,10.3,60.4,8.9,59.7,7.2z"/>
	<path d="M81.7,12.9l2,0h6.1c0.1,0.5,0.2,0.9,0.2,1.3c0,0.4-0.1,0.9-0.2,1.3h-6.1c-0.8,0-1.5,0-2,0v5.6c0,0.2,0,0.4,0,0.8
		c0,0.3,0,0.6,0,0.8c0.6-0.1,1.3-0.1,2.1-0.1h8.4c0,0.6,0,1-0.1,1.2c-0.2,1-0.9,1.5-2,1.5h-9.6c-0.6,0-1-0.2-1.3-0.5
		c-0.3-0.4-0.5-0.8-0.5-1.5V3.6l0.2-0.2h12.8c0.1,0.3,0.1,0.7,0.1,1.3c0,0.5-0.1,1-0.2,1.5h-7.7c-0.9,0-1.5,0-2,0l0,2.1V12.9z"/>
	<path d="M94.7,23.3c0.1-1,0.6-1.8,1.4-2.5c2.2,1.5,4.4,2.2,6.4,2.2c1.3,0,2.3-0.3,3.1-0.9c0.8-0.6,1.2-1.3,1.2-2.3
		c0-1.5-1-2.7-3-3.6l-3.7-1.6c-2.9-1.3-4.4-3.1-4.4-5.5c0-1.7,0.7-3.2,2-4.4c1.3-1.2,3.1-1.8,5.3-1.8s4.4,0.5,6.6,1.6
		c0,1-0.4,1.9-1.2,2.5c-2-1-3.7-1.5-5.1-1.5c-1.4,0-2.5,0.3-3.2,0.9c-0.7,0.6-1.1,1.3-1.1,2.1c0,0.8,0.2,1.4,0.7,1.9
		c0.5,0.5,1.2,0.9,2,1.3l3.7,1.6c3.2,1.4,4.8,3.4,4.8,6c0,1.9-0.7,3.4-2,4.6c-1.3,1.2-3.3,1.8-6,1.8S97,24.9,94.7,23.3z"/>
	<path d="M128.8,21.1h5.7c0,0.7,0,1.3-0.1,1.8c-0.3,1.6-1.3,2.4-3.2,2.4h-7.4c-0.9,0-1.6-0.3-2.1-0.8c-0.5-0.5-0.8-1.2-0.8-2.1V3.4
		l0.2-0.2h1.8c1.9,0,2.9,1,2.9,3.1v14.9C126.9,21.2,127.9,21.1,128.8,21.1z"/>
	<path d="M139.8,23.7c-2.3-1.9-3.4-5-3.4-9.4c0-4.4,1.1-7.5,3.4-9.4c1.6-1.3,3.6-2,6-2s4.4,0.7,6,2c2.3,1.9,3.4,5,3.4,9.4
		c0,4.4-1.1,7.5-3.4,9.4c-1.6,1.3-3.6,2-6,2S141.4,25.1,139.8,23.7z M145.8,6.7c-2.9,0-4.3,2.5-4.3,7.6c0,5.1,1.4,7.6,4.3,7.6
		s4.3-2.5,4.3-7.6C150.1,9.2,148.7,6.7,145.8,6.7z"/>
	<path d="M157,23.3c0.1-0.7,0.3-1.4,0.6-2c0.4-0.7,0.8-1.2,1.3-1.6c2.3,1.4,4.5,2.1,6.5,2.1c0.9,0,1.6-0.2,2.1-0.7
		c0.5-0.4,0.7-1,0.7-1.6c0-1.1-0.7-1.9-2.1-2.6l-3.8-1.6c-3-1.3-4.5-3.3-4.5-5.9c0-1.9,0.7-3.5,2.2-4.8c1.5-1.2,3.4-1.9,5.8-1.9
		c2.4,0,4.8,0.6,7.1,1.8c-0.1,1.5-0.7,2.7-1.7,3.7c-2.2-1-4.1-1.6-5.8-1.6c-0.9,0-1.5,0.2-2,0.6c-0.5,0.4-0.7,0.9-0.7,1.4
		c0,0.9,0.7,1.6,2,2.1l3.8,1.6c1.5,0.7,2.7,1.5,3.6,2.6c0.8,1.1,1.3,2.3,1.3,3.7c0,2-0.7,3.7-2.2,4.9c-1.4,1.3-3.5,1.9-6.2,1.9
		c-1.3,0-2.7-0.2-4.1-0.6C159.4,24.7,158.1,24.1,157,23.3z"/>
	<path d="M184.8,7.4l0,2.4v15.5c-0.7,0.1-1.5,0.2-2.4,0.2s-1.8-0.1-2.4-0.2V9.8l0-2.4h0l-2,0h-3.4c-0.1-0.6-0.2-1.3-0.2-2
		c0-0.7,0.1-1.4,0.2-2h15.7c0.2,0.6,0.3,1.2,0.3,2s-0.2,1.3-0.6,1.6c-0.4,0.3-1.1,0.5-2,0.5h-1.1L184.8,7.4L184.8,7.4z"/>
	<path d="M200.6,25.3V3.4c0.4-0.1,0.9-0.1,1.6-0.1c0.7,0,1.2,0,1.6,0.1v21.9c-0.4,0.1-1,0.1-1.6,0.1C201.5,25.4,201,25.3,200.6,25.3
		z"/>
	<path d="M212.7,7.2h-0.1c0.2,2.9,0.3,5.5,0.3,7.6v10.4c-0.5,0.1-1,0.1-1.5,0.1s-1,0-1.5-0.1V3.4c0.6-0.1,1.3-0.2,2-0.2
		s1.3,0,1.9,0.1l7,13.7c0.3,0.6,0.7,1.5,1.2,2.5c0.5,1.1,0.8,1.8,1,2v0l0.1,0c-0.2-2.7-0.3-5.3-0.3-7.9V5.3c0-0.7,0.1-1.2,0.4-1.6
		c0.2-0.3,0.7-0.5,1.4-0.5h1l0.2,0.2v21.8c-0.6,0.1-1.3,0.2-2,0.2c-0.7,0-1.4,0-1.9-0.1l-7-13.7C214.1,10.3,213.4,8.9,212.7,7.2z"/>
	<path d="M5.2,57.9L0.6,34.7c1-0.5,2.1-0.7,3.1-0.7c1,0,1.8,0.2,2.2,0.7c0.5,0.5,0.8,1.3,1,2.5l1.7,10.3c0.6,3.2,0.9,5.3,1,6.3
		c0.1,1,0.2,1.5,0.2,1.6c0,0.1,0.1,0.1,0.3,0.1l3.3-20.6c1.1-0.2,2.3-0.3,3.7-0.3c1.4,0,2.7,0.1,3.7,0.3l3,20.1
		c0,0.3,0.1,0.4,0.1,0.5s0.2,0.1,0.3,0.1c0.3-2.3,0.6-5,1.1-8.1l2.3-13c0.7-0.2,1.6-0.2,2.5-0.2s1.9,0.1,2.8,0.4l0.3,0.4l-5.1,25.4
		c-1.5,0.2-3,0.3-4.4,0.3c-1.4,0-2.4-0.2-3-0.5c-0.6-0.4-1-1.1-1.1-2.1l-1.4-8.5c-0.6-4.1-1-7.1-1.1-8.9h-0.3
		c-0.3,2.8-0.8,5.8-1.3,8.9l-1.8,10.9c-1.6,0.2-3.1,0.3-4.5,0.3c-1.3,0-2.3-0.2-2.9-0.5C5.8,59.7,5.4,59,5.2,57.9z"/>
	<path d="M39.6,58.5c-2.7-2.3-4.1-6-4.1-11.2c0-5.2,1.4-8.9,4.1-11.2c2-1.6,4.3-2.4,7.1-2.4c2.8,0,5.2,0.8,7.1,2.4
		c2.7,2.3,4.1,6,4.1,11.2c0,5.2-1.4,8.9-4.1,11.2c-2,1.6-4.3,2.4-7.1,2.4C43.9,60.9,41.5,60.1,39.6,58.5z M46.7,38.3
		c-3.4,0-5.1,3-5.1,9.1s1.7,9.1,5.1,9.1s5.1-3,5.1-9.1S50.1,38.3,46.7,38.3z"/>
	<path d="M80.7,42.3c0,1.7-0.5,3.2-1.4,4.4s-2,2.1-3.2,2.5c1.3,0.5,2.3,1.6,2.9,3.5l1.2,3.4c0.4,1.2,1.1,2.1,1.9,2.8
		c-0.4,0.5-0.9,0.9-1.6,1.3c-0.7,0.3-1.5,0.5-2.4,0.5c-0.9,0-1.6-0.3-2.1-0.8c-0.5-0.5-0.9-1.4-1.4-2.6l-1.4-4.1
		c-0.3-0.8-0.6-1.4-1.1-1.8c-0.5-0.4-1.2-0.6-2.2-0.6H68v9.7c-0.8,0.2-1.7,0.2-2.9,0.2c-1.2,0-2.1-0.1-2.9-0.2V34.6l0.3-0.3
		c4.3-0.1,7.2-0.2,9-0.2c2.8,0,5,0.7,6.6,2.1S80.7,39.6,80.7,42.3z M68,38.5v7.7c1.7-0.1,2.7-0.1,3-0.1c2.5,0,3.7-1.3,3.7-3.8
		c0-2.5-1.2-3.8-3.7-3.8C69.8,38.5,68.8,38.5,68,38.5z"/>
	<path d="M84.8,60.2l2-25.8c1-0.2,2.2-0.3,3.8-0.3c1.6,0,2.8,0.1,3.8,0.3l2.4,9.7c0.7,2.8,1.2,5.1,1.4,6.8h0.2
		c0.3-1.7,0.8-4,1.4-6.8l2.4-9.7c1-0.2,2.2-0.3,3.8-0.3c1.6,0,2.8,0.1,3.8,0.3l2,25.8c-0.7,0.2-1.6,0.3-2.7,0.3
		c-1.1,0-2-0.1-2.7-0.2l-0.6-11c-0.2-3.5-0.3-6.4-0.3-8.6h-0.3l-4,15.8c-0.7,0.1-1.7,0.2-2.9,0.2s-2.3-0.1-3-0.2l-3.9-15.8h-0.3
		c-0.1,3.1-0.2,6-0.3,8.6l-0.6,11c-0.7,0.1-1.6,0.2-2.7,0.2C86.4,60.5,85.5,60.4,84.8,60.2z"/>
	<path d="M131.4,44.5l0-2.8v-7.4c0.8-0.2,1.7-0.2,2.9-0.2s2.1,0.1,2.9,0.2v26c-0.8,0.2-1.8,0.2-2.9,0.2c-1.2,0-2.1-0.1-2.9-0.2v-8.2
		l0-2.8l-1.9,0h-4.7l-1.9,0l0,2.8v8.2c-0.8,0.2-1.7,0.2-2.9,0.2s-2.2-0.1-2.9-0.2v-26c0.7-0.2,1.7-0.2,2.9-0.2s2.2,0.1,2.9,0.2v7.4
		l0,2.8l1.9,0h4.7L131.4,44.5z"/>
	<path d="M145.7,58.5c-2.7-2.3-4.1-6-4.1-11.2c0-5.2,1.4-8.9,4.1-11.2c2-1.6,4.3-2.4,7.1-2.4c2.8,0,5.2,0.8,7.1,2.4
		c2.7,2.3,4.1,6,4.1,11.2c0,5.2-1.4,8.9-4.1,11.2c-2,1.6-4.3,2.4-7.1,2.4C150,60.9,147.6,60.1,145.7,58.5z M152.8,38.3
		c-3.4,0-5.1,3-5.1,9.1s1.7,9.1,5.1,9.1s5.1-3,5.1-9.1S156.2,38.3,152.8,38.3z"/>
	<path d="M177.7,55.4h6.7c0,0.8-0.1,1.6-0.2,2.2c-0.3,1.9-1.6,2.8-3.8,2.8h-8.7c-1,0-1.9-0.3-2.5-0.9c-0.6-0.6-0.9-1.4-0.9-2.5V34.4
		l0.3-0.2h2.1c2.3,0,3.4,1.2,3.4,3.6v17.7C175.5,55.5,176.6,55.4,177.7,55.4z"/>
	<path d="M193.9,53l0,2.6v0c1.1-0.1,2-0.1,2.8-0.1h9c0,0.9,0,1.6-0.1,2.1c-0.4,1.9-1.6,2.8-3.7,2.8h-10.3c-1,0-1.9-0.3-2.5-0.9
		c-0.6-0.6-0.9-1.4-0.9-2.5V34.6l0.3-0.3h16.2c0.1,0.6,0.2,1.3,0.2,2.2c0,0.9-0.2,1.8-0.5,2.7h-10.5l0,2.7v3c0.7,0,1.5,0,2.5,0h6
		c0.2,0.6,0.3,1.4,0.3,2.3c0,0.9-0.1,1.8-0.3,2.4h-8.5V53z"/>
	<path d="M207.6,58c0.1-0.8,0.3-1.6,0.8-2.4c0.4-0.8,0.9-1.4,1.5-1.9c2.8,1.7,5.3,2.5,7.7,2.5c1.1,0,1.9-0.3,2.5-0.8
		c0.6-0.5,0.9-1.1,0.9-1.9c0-1.3-0.8-2.3-2.5-3l-4.5-1.9c-3.6-1.6-5.4-3.9-5.4-7c0-2.3,0.9-4.2,2.6-5.7s4-2.2,6.9-2.2
		s5.7,0.7,8.5,2.2c-0.1,1.7-0.8,3.2-2,4.4c-2.6-1.2-4.9-1.9-6.8-1.9c-1,0-1.8,0.2-2.4,0.7c-0.6,0.5-0.8,1.1-0.8,1.7
		c0,1,0.8,1.9,2.4,2.5l4.6,1.9c1.8,0.8,3.2,1.8,4.2,3.1c1,1.3,1.5,2.7,1.5,4.4c0,2.4-0.9,4.4-2.6,5.9c-1.7,1.5-4.2,2.2-7.4,2.2
		c-1.6,0-3.2-0.3-4.9-0.8S209,58.9,207.6,58z"/>
	<path d="M230.1,58.7c0-0.6,0.1-1.2,0.3-1.5c0.5-0.2,1.1-0.4,1.9-0.4s1.4,0.1,1.8,0.4c0.2,0.4,0.3,0.9,0.3,1.5s-0.1,1.2-0.3,1.5
		c-0.4,0.2-1,0.4-1.8,0.4s-1.4-0.1-1.9-0.4C230.2,59.8,230.1,59.3,230.1,58.7z"/>
	<path d="M238.2,58.7c0-0.6,0.1-1.2,0.3-1.5c0.5-0.2,1.1-0.4,1.9-0.4s1.4,0.1,1.8,0.4c0.2,0.4,0.3,0.9,0.3,1.5s-0.1,1.2-0.3,1.5
		c-0.4,0.2-1,0.4-1.8,0.4s-1.4-0.1-1.9-0.4C238.3,59.8,238.2,59.3,238.2,58.7z"/>
	<path d="M246.3,58.7c0-0.6,0.1-1.2,0.3-1.5c0.5-0.2,1.1-0.4,1.9-0.4s1.4,0.1,1.8,0.4c0.2,0.4,0.3,0.9,0.3,1.5s-0.1,1.2-0.3,1.5
		c-0.4,0.2-1,0.4-1.8,0.4s-1.4-0.1-1.9-0.4C246.4,59.8,246.3,59.3,246.3,58.7z"/>
</g>
</svg>
