<?xml version="1.0" encoding="utf-8"?>
<!-- Generator: Adobe Illustrator 19.2.1, SVG Export Plug-In . SVG Version: 6.00 Build 0)  -->
<svg version="1.1" id="Layer_1" xmlns="http://www.w3.org/2000/svg" xmlns:xlink="http://www.w3.org/1999/xlink" x="0px" y="0px"
	 viewBox="0 0 391.8 63.7" style="enable-background:new 0 0 391.8 63.7;" xml:space="preserve">
<style type="text/css">
	.st0{fill:#FFFFFF;}
</style>
<g>
	<path class="st0" d="M12,35.1l-1.7,0H6.5l-1.7,0l-1.5,4.8C2.9,40,2.6,40,2.1,40S1.1,40,0.7,39.8l-0.1-0.1l6.4-18.9
		c0.4-0.1,0.9-0.1,1.6-0.1c0.7,0,1.2,0,1.5,0.1l6.3,19C16,40,15.5,40.1,15,40.1s-1-0.1-1.2-0.3c-0.2-0.2-0.4-0.6-0.6-1.2L12,35.1z
		 M5.5,32.9l1.5,0h2.9c0,0,0.2,0,0.6,0c0.4,0,0.6,0,0.8,0l-1.4-4.3c-0.6-1.7-1-3.4-1.5-5H8.3c-0.3,1.3-0.7,2.6-1.1,3.9L5.5,32.9z"/>
	<path class="st0" d="M22.1,24.1H22c0.1,2.5,0.2,4.8,0.2,6.7v9.1C21.8,40,21.3,40,20.9,40s-0.9,0-1.3-0.1V20.8
		c0.5-0.1,1.1-0.1,1.7-0.1s1.2,0,1.6,0.1l6.1,12c0.3,0.5,0.6,1.3,1.1,2.2c0.4,0.9,0.7,1.5,0.8,1.8v0l0.1,0c-0.2-2.4-0.2-4.7-0.2-6.9
		v-7.4c0-0.6,0.1-1.1,0.3-1.4c0.2-0.3,0.6-0.4,1.2-0.4h0.9l0.2,0.1v19.1c-0.5,0.1-1.1,0.1-1.7,0.1s-1.2,0-1.7-0.1l-6.1-12
		C23.4,26.8,22.7,25.5,22.1,24.1z"/>
	<path class="st0" d="M52,25.5c0.4,1.3,0.6,3,0.6,4.8s-0.2,3.5-0.6,4.8s-1.2,2.5-2.3,3.4c-0.6,0.5-1.3,0.8-2.2,1.1
		c-0.9,0.2-1.8,0.4-2.6,0.4s-2.8,0-6.1-0.1l-0.2-0.2V20.9l0.2-0.2c1.6-0.1,3.6-0.1,6-0.1c0.8,0,1.7,0.1,2.6,0.4
		c0.9,0.2,1.7,0.6,2.2,1.1C50.8,23,51.6,24.2,52,25.5z M41.4,37.7l3.4,0c0.8,0,1.5-0.2,2.1-0.5c0.6-0.3,1.1-0.7,1.4-1.2
		c0.3-0.5,0.6-1,0.8-1.7c0.2-0.7,0.3-1.3,0.4-2s0.1-1.3,0.1-2.1c0-0.8,0-1.5-0.1-2.1s-0.2-1.3-0.4-2c-0.2-0.7-0.5-1.3-0.8-1.7
		c-0.3-0.5-0.8-0.9-1.4-1.2c-0.6-0.3-1.3-0.5-2.1-0.5l-3.4,0V37.7z"/>
	<path class="st0" d="M62.4,39.8l1.5-19.1c0.4-0.1,1-0.1,1.8-0.1s1.4,0,1.8,0.1l2.8,9c0.1,0.4,0.4,1.2,0.6,2.2
		c0.3,1.1,0.4,1.8,0.5,2.1h0.2c0.2-1.2,0.6-2.6,1.1-4.4l2.8-9c0.5-0.1,1.1-0.1,1.8-0.1c0.8,0,1.4,0,1.8,0.1l1.5,19.1
		C80.2,40,79.8,40,79.3,40c-0.5,0-0.9,0-1.3-0.1l-0.7-10.6c-0.1-2.1-0.2-4-0.2-5.6h-0.2l-3.9,13.2C72.5,37,72.1,37,71.5,37
		s-1,0-1.4-0.1l-4-13.2H66c-0.1,3.2-0.2,5.1-0.2,5.6l-0.7,10.6C64.7,40,64.2,40,63.7,40S62.8,40,62.4,39.8z"/>
	<path class="st0" d="M87.2,38.6c-2-1.7-3-4.5-3-8.2s1-6.5,3-8.2c1.3-1.1,2.9-1.7,4.8-1.7s3.5,0.6,4.8,1.7c2,1.7,3,4.5,3,8.2
		s-1,6.5-3,8.2c-1.3,1.1-2.9,1.7-4.8,1.7S88.4,39.7,87.2,38.6z M87.3,27.6c-0.1,0.8-0.2,1.7-0.2,2.7c0,1,0.1,1.9,0.2,2.7
		c0.1,0.8,0.4,1.6,0.7,2.4c0.3,0.8,0.8,1.4,1.5,1.9c0.7,0.5,1.4,0.7,2.3,0.7s1.6-0.2,2.2-0.5s1.1-0.7,1.4-1.2
		c0.3-0.5,0.6-1.1,0.8-1.8c0.4-1.2,0.6-2.4,0.6-3.7s-0.1-2.3-0.2-3.1s-0.4-1.6-0.7-2.4c-0.3-0.8-0.8-1.4-1.5-1.9
		c-0.7-0.5-1.5-0.7-2.4-0.7c-1,0-1.8,0.2-2.4,0.7c-0.7,0.5-1.2,1.1-1.5,1.9C87.7,26,87.5,26.8,87.3,27.6z"/>
	<path class="st0" d="M103.9,20.7l5.9-0.1c2,0,3.5,0.5,4.6,1.5s1.7,2.4,1.7,4.2c0,1.3-0.3,2.3-1,3.2s-1.5,1.5-2.6,1.9
		c0.8,0.3,1.5,1.1,2,2.4l1.3,3.4c0.4,1,0.8,1.7,1.2,2c-0.4,0.6-1,0.9-1.9,0.9c-0.5,0-0.9-0.1-1.1-0.4c-0.3-0.3-0.5-0.7-0.7-1.3
		l-1.5-3.9c-0.3-0.8-0.6-1.3-1-1.7s-1-0.6-1.8-0.6h-2.4v7.8c-0.4,0.1-0.8,0.1-1.4,0.1c-0.6,0-1,0-1.4-0.1v-19L103.9,20.7z
		 M106.5,22.9v7c1.1-0.1,2.2-0.1,3.4-0.1c1.2,0,2-0.3,2.5-1c0.5-0.7,0.8-1.5,0.8-2.5c0-2.3-1.2-3.5-3.5-3.5
		C108.2,22.9,107.2,22.9,106.5,22.9z"/>
	<path class="st0" d="M123.3,29.1l1.7,0h5.4c0.1,0.4,0.1,0.8,0.1,1.2c0,0.4,0,0.7-0.1,1.2H125c-0.7,0-1.3,0-1.7,0v4.9
		c0,0.1,0,0.4,0,0.7c0,0.3,0,0.5,0,0.7c0.5-0.1,1.1-0.1,1.8-0.1h7.3c0,0.5,0,0.8-0.1,1.1c-0.2,0.9-0.8,1.3-1.8,1.3h-8.4
		c-0.5,0-0.9-0.2-1.2-0.5s-0.4-0.7-0.4-1.3V20.9l0.2-0.2h11.2c0.1,0.3,0.1,0.6,0.1,1.1c0,0.5-0.1,0.9-0.2,1.3H125
		c-0.7,0-1.3,0-1.8,0l0,1.8V29.1z"/>
	<path class="st0" d="M135.5,38.4c0-0.6,0.1-1,0.3-1.4c0.4-0.2,1-0.3,1.7-0.3c0.7,0,1.2,0.1,1.6,0.3c0.2,0.3,0.3,0.8,0.3,1.4
		s-0.1,1-0.3,1.4c-0.4,0.2-0.9,0.3-1.6,0.3s-1.3-0.1-1.7-0.3C135.6,39.4,135.5,39,135.5,38.4z"/>
</g>
</svg>
