<?xml version="1.0" encoding="utf-8"?>
<!-- Generator: Adobe Illustrator 19.2.1, SVG Export Plug-In . SVG Version: 6.00 Build 0)  -->
<svg version="1.1" id="Layer_1" xmlns="http://www.w3.org/2000/svg" xmlns:xlink="http://www.w3.org/1999/xlink" x="0px" y="0px"
	 viewBox="0 0 989.7 109.7" style="enable-background:new 0 0 989.7 109.7;" xml:space="preserve">
<style type="text/css">
	.st0{fill:#111111;}
</style>
<rect x="6.9" y="7.1" class="st0" width="12" height="78"/>
<path class="st0" d="M106.4,73.2L106.4,73.2c6.9-7.8,10.4-16.9,10.4-27.2c0-11.1-4-20.8-12-28.9c-8.1-8-17.9-12-28.9-12
	c-11.2,0-20.9,4-28.9,12c-8,8.1-12,17.9-12,28.9c0,10.4,3.6,19.5,10.5,27.2C52,80.6,59.9,85,69.9,86.5v17.7h12V86.5
	c5-0.7,9.2-2.2,13.2-4.4C99.1,79.9,103,76.9,106.4,73.2z M69.9,63.1v10.5c-6-1.3-11.4-4.4-15.4-9.2c-4.5-5.3-6.9-11.5-6.9-18.4
	c0-7.7,2.8-14.4,8.3-20.1c5.5-5.4,12.2-8.2,20.1-8.2c7.7,0,14.5,2.8,20.1,8.2c5.4,5.6,8.2,12.3,8.2,20.1c0,6.9-2.4,13.1-6.8,18.4
	c-4.2,4.8-9.4,7.9-15.4,9.2V63.1H69.9z"/>
<path class="st0" d="M182.2,45.5c6-3.5,9-8.9,9-15.9c0-6.5-2.6-12-7.8-16.5c-4.9-4.1-10.7-6-17.2-6h-33.2v78H168
	c6.4,0,12.3-2.1,17.3-6.3c2.6-2.2,4.6-4.6,5.8-7.3l0,0c1.2-2.7,1.9-5.7,1.9-9.1C193,54.5,189.3,48.9,182.2,45.5z M176.6,69.5
	c-2.4,1.8-5.3,2.6-8.6,2.6h-23.1v-20H168c3.3,0,6.2,1,8.6,2.9l0,0c2.6,1.9,3.9,4.2,3.9,7.2C180.4,65.4,179.2,67.7,176.6,69.5z
	 M174.8,37.1c-2.5,1.9-5.4,3-8.6,3h-21.2v-21h21.2c3.2,0,6.1,1.2,8.6,3c2.5,1.9,3.8,4.5,3.8,7.5C178.5,32.6,177.3,35.2,174.8,37.1z"
	/>
<path class="st0" d="M224.4,68.1h30l6.2,17H274l-28.4-78h-12.3l-28.4,78h13.3L224.4,68.1z M228.9,56.1l10.4-28.7l10.5,28.7H228.9z"
	/>
<polygon class="st0" points="299.9,7.1 286.9,7.1 286.9,85.1 332.9,85.1 332.9,72.1 299.9,72.1 "/>
<path class="st0" d="M450.4,85.1h13.4l-28.4-78h-12.3l-28.4,78H408l6.2-17h30L450.4,85.1z M439.7,56.1h-20.9l10.4-28.7L439.7,56.1z"
	/>
<path class="st0" d="M484.8,85.1c2.3,0,4.3-0.8,5.9-2.4h0c1.5-1.6,2.3-3.5,2.3-5.8s-0.8-4.2-2.3-5.8c-1.6-1.6-3.5-2.4-5.9-2.4
	c-2.3,0-4.2,0.8-5.8,2.4c-1.5,1.6-2.3,3.5-2.3,5.8s0.8,4.2,2.3,5.8C480.6,84.3,482.5,85.1,484.8,85.1z"/>
<path class="st0" d="M592.9,19c7.3,0,13.9,2.8,19.5,8.3l0.3,0.3l8.5-8l-0.3-0.3c-8-8-17.4-12.1-28-12.1c-10.5,0-19.6,3.8-27.2,11.4
	c-7.5,7.5-11.3,16.6-11.3,27.1c0,10.5,3.8,19.6,11.2,27.3c7.6,7.4,16.7,11.2,27.3,11.2c10.4,0,19.4-3.8,27-11.3l0-0.1v-1.9l-7.3-7.2
	l-0.2,0.3c-5.7,5.6-12.3,8.4-19.5,8.4c-7.2,0-13.6-2.6-18.9-7.8c-5.2-5.3-7.8-11.7-7.8-18.9c0-7.2,2.6-13.6,7.8-18.9
	C579.2,21.6,585.6,19,592.9,19z"/>
<path class="st0" d="M673.1,7.1c-10.5,0-19.7,3.8-27.2,11.3c-7.5,7.6-11.3,16.8-11.3,27.2c0,10.5,3.8,19.7,11.3,27.2
	c7.5,7.5,16.6,11.3,27.2,11.3c10.4,0,19.5-3.8,27.2-11.3l0,0c7.5-7.5,11.3-16.6,11.3-27.2c0-10.4-3.8-19.5-11.3-27.2
	C692.6,10.9,683.5,7.1,673.1,7.1z M673.1,72.3c-7.2,0-13.6-2.6-18.9-7.8c-5.2-5.3-7.8-11.7-7.8-18.9c0-7.2,2.6-13.6,7.8-18.9
	c5.2-5.1,11.5-7.7,18.9-7.7c7.3,0,13.6,2.6,18.9,7.7c5.1,5.3,7.7,11.6,7.7,18.9c0,7.4-2.6,13.7-7.7,18.9
	C686.6,69.7,680.3,72.3,673.1,72.3z"/>
<polygon class="st0" points="763,63.9 743.1,9.1 726.9,9.1 726.9,82.1 738.9,82.1 738.9,30 757.3,82.1 768.8,82.1 787.9,30.2 
	787.9,82.1 798.9,82.1 798.9,9.1 783,9.1 "/>
<rect x="816.9" y="9.1" class="st0" width="12" height="73"/>
<path class="st0" d="M881.9,19c7.3,0,13.9,2.8,19.5,8.3l0.3,0.3l8.5-8l-0.3-0.3c-8-8-17.4-12.1-28-12.1c-10.5,0-19.6,3.8-27.2,11.4
	c-7.5,7.5-11.3,16.6-11.3,27.1c0,10.5,3.8,19.6,11.2,27.3c7.6,7.4,16.7,11.2,27.3,11.2c10.4,0,19.4-3.8,27-11.3l0-0.1v-1.9l-7.3-7.2
	l-0.2,0.3c-5.7,5.6-12.2,8.4-19.5,8.4c-7.2,0-13.6-2.6-18.9-7.8c-5.2-5.3-7.8-11.7-7.8-18.9c0-7.2,2.6-13.6,7.8-18.9
	C868.2,21.6,874.6,19,881.9,19z"/>
<path class="st0" d="M971,43.4c-1.9-0.3-3.7-0.7-5.4-1.1c-1.7-0.4-3.5-0.8-5.3-1.2c-1.9-0.4-3.7-0.8-5.6-1.2
	c-1.8-0.4-3.6-0.7-5.5-1.2c-7.2-1.6-10.7-4.7-10.7-9.5c0-3.4,1.8-6,5.4-7.9l0.9-0.5c2.9-1.3,6.2-1.9,9.8-1.9c4.1,0,7.8,0.8,10.9,2.5
	c3.6,1.8,5.5,4.7,5.5,8.9v-0.2h12v0.2c0-7.6-3.4-13.6-9.6-17.8C968,9,961.6,7.1,954.7,7.1c-6.9,0-13.2,1.8-18.6,5.4
	c-6.2,4.2-9.4,9.8-9.4,16.7c0,9.3,4.5,15.6,13.4,18.9c3.3,0.7,6.7,1.4,10,2.1l0.7,0.1c1.9,0.4,3.7,0.8,5.5,1.2c1.6,0.3,3.3,0.6,5,1
	l0.5,0.1c7.2,1.6,10.7,4.6,10.7,9.2c0,3.7-2,6.4-6,8.3c-3.3,1.5-7.3,2.3-11.9,2.3c-4.4,0-7.8-0.8-11.2-2.3c-4.1-1.8-5.5-4.8-5.5-9.3
	v-0.7h-13v0.7c0,7.8,3.5,13.8,10.3,18c5.5,3.5,12.1,5.4,19.3,5.4c7.2,0,13.8-2.1,19.4-5.1h0c6.8-5,10.3-10,10.3-17.2
	C984.2,53,979.8,46.6,971,43.4z"/>
</svg>
