<?xml version="1.0" encoding="utf-8"?>
<!-- Generator: Adobe Illustrator 19.2.1, SVG Export Plug-In . SVG Version: 6.00 Build 0)  -->
<svg version="1.1" id="Layer_1" xmlns="http://www.w3.org/2000/svg" xmlns:xlink="http://www.w3.org/1999/xlink" x="0px" y="0px"
	 viewBox="0 0 504.2 201.7" style="enable-background:new 0 0 504.2 201.7;" xml:space="preserve">
<style type="text/css">
	.st0{fill:#111111;}
</style>
<g>
	<rect x="6.9" y="7.1" class="st0" width="12" height="78"/>
	<path class="st0" d="M106.4,73.2L106.4,73.2c6.9-7.8,10.4-16.9,10.4-27.2c0-11.1-4-20.8-12-28.9c-8.1-8-17.9-12-28.9-12
		c-11.2,0-20.9,4-28.9,12c-8,8.1-12,17.9-12,28.9c0,10.4,3.6,19.5,10.5,27.2C52,80.6,59.9,85,69.9,86.5v17.7h12V86.5
		c5-0.7,9.2-2.2,13.2-4.4C99.1,79.9,103,76.9,106.4,73.2z M69.9,63.1v10.5c-6-1.3-11.4-4.4-15.4-9.2c-4.5-5.3-6.9-11.5-6.9-18.4
		c0-7.7,2.8-14.4,8.3-20.1c5.5-5.4,12.2-8.2,20.1-8.2c7.7,0,14.5,2.8,20.1,8.2c5.4,5.6,8.2,12.3,8.2,20.1c0,6.9-2.4,13.1-6.8,18.4
		c-4.2,4.8-9.4,7.9-15.4,9.2V63.1H69.9z"/>
	<path class="st0" d="M182.2,45.5c6-3.5,9-8.9,9-15.9c0-6.5-2.6-12-7.8-16.5c-4.9-4.1-10.7-6-17.2-6h-33.2v78H168
		c6.4,0,12.3-2.1,17.3-6.3c2.6-2.2,4.6-4.6,5.8-7.3l0,0c1.2-2.7,1.9-5.7,1.9-9.1C193,54.5,189.3,48.9,182.2,45.5z M176.6,69.5
		c-2.4,1.8-5.3,2.6-8.6,2.6h-23.1v-20H168c3.3,0,6.2,1,8.6,2.9l0,0c2.6,1.9,3.9,4.2,3.9,7.2C180.4,65.4,179.2,67.7,176.6,69.5z
		 M174.8,37.1c-2.5,1.9-5.4,3-8.6,3h-21.2v-21h21.2c3.2,0,6.1,1.2,8.6,3c2.5,1.9,3.8,4.5,3.8,7.5C178.5,32.6,177.3,35.2,174.8,37.1z
		"/>
	<path class="st0" d="M224.4,68.1h30l6.2,17H274l-28.4-78h-12.3l-28.4,78h13.3L224.4,68.1z M228.9,56.1l10.4-28.7l10.5,28.7H228.9z"
		/>
	<polygon class="st0" points="299.9,7.1 286.9,7.1 286.9,85.1 332.9,85.1 332.9,72.1 299.9,72.1 	"/>
	<path class="st0" d="M450.4,85.1h13.4l-28.4-78h-12.3l-28.4,78H408l6.2-17h30L450.4,85.1z M439.7,56.1h-20.9l10.4-28.7L439.7,56.1z
		"/>
	<path class="st0" d="M484.8,85.1c2.3,0,4.3-0.8,5.9-2.4h0c1.5-1.6,2.3-3.5,2.3-5.8s-0.8-4.2-2.3-5.8c-1.6-1.6-3.5-2.4-5.9-2.4
		c-2.3,0-4.2,0.8-5.8,2.4c-1.5,1.6-2.3,3.5-2.3,5.8s0.8,4.2,2.3,5.8C480.6,84.3,482.5,85.1,484.8,85.1z"/>
	<path class="st0" d="M48.5,121.5c8.4,0,15.9,3.2,22.4,9.5l0.3,0.3l9.7-9.2l-0.4-0.4c-9.2-9.2-20-13.9-32-13.9
		c-12,0-22.5,4.4-31.1,13.1c-8.6,8.6-12.9,19-12.9,31c0,12,4.3,22.5,12.8,31.2c8.7,8.5,19.2,12.8,31.2,12.8
		c11.9,0,22.4-4.4,31.2-12.9l0.2-0.1v-2.2l-8.6-8.2l-0.4,0.3c-6.6,6.4-14.1,9.7-22.4,9.7c-8.3,0-15.6-3-21.7-9
		c-5.9-6.1-9-13.4-9-21.7c0-8.3,3-15.6,9-21.7C32.8,124.4,40.1,121.5,48.5,121.5z"/>
	<path class="st0" d="M140.4,107.9c-12.1,0-22.5,4.4-31.1,12.9c-8.6,8.7-12.9,19.2-12.9,31.1c0,12.1,4.4,22.5,12.9,31.1
		c8.6,8.6,19.1,12.9,31.1,12.9c11.9,0,22.4-4.4,31.1-12.9l0,0c8.6-8.6,12.9-19.1,12.9-31.1c0-11.9-4.4-22.4-12.9-31.1
		C162.8,112.3,152.3,107.9,140.4,107.9z M140.4,182.6c-8.3,0-15.6-3-21.7-9c-5.9-6.1-9-13.4-9-21.7c0-8.3,3-15.6,9-21.7
		c5.9-5.9,13.2-8.8,21.7-8.8c8.4,0,15.6,3,21.7,8.8c5.9,6,8.8,13.3,8.8,21.7c0,8.4-3,15.7-8.8,21.7
		C155.9,179.6,148.7,182.6,140.4,182.6z"/>
	<polygon class="st0" points="243.4,172.9 220.6,110.1 201.9,110.1 201.9,194.1 214.9,194.1 214.9,134.1 237,194.1 250.1,194.1 
		271.9,134.3 271.9,194.1 284.9,194.1 284.9,110.1 266.3,110.1 	"/>
	<rect x="304.9" y="110.1" class="st0" width="14" height="84"/>
	<path class="st0" d="M379.8,121.5c8.4,0,15.9,3.2,22.4,9.5l0.3,0.3l9.7-9.2l-0.4-0.4c-9.2-9.2-20-13.9-32-13.9
		c-12,0-22.5,4.4-31.1,13.1c-8.6,8.6-12.9,19-12.9,31c0,12,4.3,22.5,12.8,31.2c8.7,8.5,19.2,12.8,31.2,12.8
		c11.9,0,22.3-4.4,31.1-12.9l0.1-0.1v-2.2l-8.5-8.2l-0.3,0.3c-6.6,6.4-14.1,9.7-22.3,9.7c-8.3,0-15.6-3-21.6-9
		c-5.9-6.1-9-13.4-9-21.7c0-8.3,3-15.6,9-21.7C364,124.4,371.3,121.5,379.8,121.5z"/>
	<path class="st0" d="M481.8,149.4c-2.1-0.4-4.2-0.8-6.2-1.3c-2-0.5-4-0.9-6.1-1.4c-2.2-0.5-4.3-0.9-6.4-1.3c-2-0.4-4.2-0.9-6.3-1.3
		c-8.3-1.8-12.3-5.4-12.3-10.9c0-3.9,2-6.9,6.2-9l1-0.5c3.3-1.4,7.1-2.2,11.2-2.2c4.7,0,9,0.9,12.6,2.8c4.2,2.1,6.4,5.4,6.4,10.2
		v0.7h13v-0.7c0-8.7-3.6-15.6-10.7-20.4c-6.1-4.1-13.3-6.2-21.3-6.2c-7.9,0-15,2.1-21.3,6.2c-7.1,4.8-10.7,11.3-10.7,19.1
		c0,10.6,5.2,17.9,15.4,21.7c3.8,0.9,7.6,1.7,11.5,2.4l0.8,0.2c2.2,0.5,4.3,0.9,6.3,1.3c1.8,0.4,3.8,0.7,5.7,1.1l0.5,0.1
		c8.3,1.8,12.3,5.3,12.3,10.6c0,4.2-2.2,7.3-6.9,9.5c-3.8,1.7-8.4,2.6-13.6,2.6c-5.1,0-9.4-0.9-13.3-2.6c-4.7-2.1-6.7-5.6-6.7-10.6
		v-0.2h-14v0.2c0,8.9,4,15.8,11.8,20.6c6.4,4,13.8,6.1,22.2,6.1c8.3,0,15.8-2,22.3-6l0,0c7.8-4.8,11.8-11.3,11.8-19.6
		C497,160.3,491.9,153.2,481.8,149.4z"/>
</g>
</svg>
