<?xml version="1.0" encoding="utf-8"?>
<!-- Generator: Adobe Illustrator 19.2.1, SVG Export Plug-In . SVG Version: 6.00 Build 0)  -->
<svg version="1.1" id="Layer_1" xmlns="http://www.w3.org/2000/svg" xmlns:xlink="http://www.w3.org/1999/xlink" x="0px" y="0px"
	 viewBox="0 0 497.5 110.1" style="enable-background:new 0 0 497.5 110.1;" xml:space="preserve">
<style type="text/css">
	.st0{fill:#111111;}
</style>
<g>
	<rect x="6.9" y="7.1" class="st0" width="12" height="78"/>
	<path class="st0" d="M106.4,73.2L106.4,73.2c6.9-7.8,10.4-16.9,10.4-27.2c0-11.1-4-20.8-12-28.9c-8.1-8-17.9-12-28.9-12
		c-11.2,0-20.9,4-28.9,12c-8,8.1-12,17.9-12,28.9c0,10.4,3.6,19.5,10.5,27.2C52,80.6,59.9,85,69.9,86.5v17.7h12V86.5
		c5-0.7,9.2-2.2,13.2-4.4C99.1,79.9,103,76.9,106.4,73.2z M69.9,63.1v10.5c-6-1.3-11.4-4.4-15.4-9.2c-4.5-5.3-6.9-11.5-6.9-18.4
		c0-7.7,2.8-14.4,8.3-20.1c5.5-5.4,12.2-8.2,20.1-8.2c7.7,0,14.5,2.8,20.1,8.2c5.4,5.6,8.2,12.3,8.2,20.1c0,6.9-2.4,13.1-6.8,18.4
		c-4.2,4.8-9.4,7.9-15.4,9.2V63.1H69.9z"/>
	<path class="st0" d="M182.2,45.5c6-3.5,9-8.9,9-15.9c0-6.5-2.6-12-7.8-16.5c-4.9-4.1-10.7-6-17.2-6h-33.2v78H168
		c6.4,0,12.3-2.1,17.3-6.3c2.6-2.2,4.6-4.6,5.8-7.3l0,0c1.2-2.7,1.9-5.7,1.9-9.1C193,54.5,189.3,48.9,182.2,45.5z M176.6,69.5
		c-2.4,1.8-5.3,2.6-8.6,2.6h-23.1v-20H168c3.3,0,6.2,1,8.6,2.9l0,0c2.6,1.9,3.9,4.2,3.9,7.2C180.4,65.4,179.2,67.7,176.6,69.5z
		 M174.8,37.1c-2.5,1.9-5.4,3-8.6,3h-21.2v-21h21.2c3.2,0,6.1,1.2,8.6,3c2.5,1.9,3.8,4.5,3.8,7.5C178.5,32.6,177.3,35.2,174.8,37.1z
		"/>
	<path class="st0" d="M224.4,68.1h30l6.2,17H274l-28.4-78h-12.3l-28.4,78h13.3L224.4,68.1z M228.9,56.1l10.4-28.7l10.5,28.7H228.9z"
		/>
	<polygon class="st0" points="299.9,7.1 286.9,7.1 286.9,85.1 332.9,85.1 332.9,72.1 299.9,72.1 	"/>
	<path class="st0" d="M450.4,85.1h13.4l-28.4-78h-12.3l-28.4,78H408l6.2-17h30L450.4,85.1z M439.7,56.1h-20.9l10.4-28.7L439.7,56.1z
		"/>
	<path class="st0" d="M484.8,85.1c2.3,0,4.3-0.8,5.9-2.4h0c1.5-1.6,2.3-3.5,2.3-5.8s-0.8-4.2-2.3-5.8c-1.6-1.6-3.5-2.4-5.9-2.4
		c-2.3,0-4.2,0.8-5.8,2.4c-1.5,1.6-2.3,3.5-2.3,5.8s0.8,4.2,2.3,5.8C480.6,84.3,482.5,85.1,484.8,85.1z"/>
</g>
</svg>
