<?xml version="1.0" encoding="utf-8"?>
<!-- Generator: Adobe Illustrator 19.2.1, SVG Export Plug-In . SVG Version: 6.00 Build 0)  -->
<svg version="1.1" id="Layer_1" xmlns="http://www.w3.org/2000/svg" xmlns:xlink="http://www.w3.org/1999/xlink" x="0px" y="0px"
	 viewBox="0 0 98 19" style="enable-background:new 0 0 98 19;" xml:space="preserve">
<style type="text/css">
	.st0{fill:#FFFFFF;}
</style>
<g>
	<g transform="translate(117.3312,26.8632)">
		<path class="st0" d="M-68.6-21.7c-0.3,2-1.8,2-3.3,2h-0.8l0.6-3.7c0-0.2,0.2-0.4,0.5-0.4h0.4c1,0,1.9,0,2.4,0.6
			C-68.6-22.9-68.5-22.4-68.6-21.7 M-69.3-26.9h-5.5c-0.4,0-0.7,0.3-0.8,0.6L-77.8-12c0,0.3,0.2,0.5,0.5,0.5h2.8
			c0.3,0,0.5-0.2,0.5-0.5l0.6-4c0.1-0.4,0.4-0.6,0.8-0.6h1.8c3.6,0,5.8-1.8,6.3-5.3c0.2-1.5,0-2.7-0.7-3.6
			C-66-26.4-67.4-26.9-69.3-26.9"/>
	</g>
	<g transform="translate(62.0115,26.8632)">
		<path class="st0" d="M-52.8-21.7c-0.3,2-1.8,2-3.3,2H-57l0.6-3.7c0-0.2,0.2-0.4,0.5-0.4h0.4c1,0,1.9,0,2.4,0.6
			C-52.8-22.9-52.7-22.4-52.8-21.7 M-53.5-26.9H-59c-0.4,0-0.7,0.3-0.8,0.6L-62-12c0,0.3,0.2,0.5,0.5,0.5h2.6c0.4,0,0.7-0.3,0.8-0.6
			l0.6-3.8c0.1-0.4,0.4-0.6,0.8-0.6h1.8c3.6,0,5.8-1.8,6.3-5.3c0.2-1.5,0-2.7-0.7-3.6C-50.2-26.4-51.6-26.9-53.5-26.9"/>
	</g>
	<g transform="translate(79.1228,19.7234)">
		<path class="st0" d="M-57.7-9.4c-0.3,1.5-1.5,2.5-3,2.5c-0.8,0-1.4-0.2-1.8-0.7c-0.4-0.5-0.5-1.1-0.4-1.9c0.2-1.5,1.5-2.6,3-2.6
			c0.8,0,1.4,0.2,1.8,0.7C-57.8-10.8-57.6-10.2-57.7-9.4 M-54-14.6h-2.7c-0.2,0-0.4,0.2-0.5,0.4l-0.1,0.7l-0.2-0.3
			c-0.6-0.8-1.9-1.1-3.1-1.1c-2.9,0-5.4,2.2-5.9,5.3c-0.3,1.6,0.1,3,1,4.1c0.8,1,2,1.3,3.3,1.3c2.4,0,3.7-1.5,3.7-1.5L-58.6-5
			c0,0.3,0.2,0.5,0.5,0.5h2.4c0.4,0,0.7-0.3,0.8-0.6l1.4-9.1C-53.5-14.3-53.7-14.6-54-14.6"/>
	</g>
	<g transform="translate(134.4426,19.7234)">
		<path class="st0" d="M-73.5-9.4c-0.3,1.5-1.5,2.5-3,2.5c-0.8,0-1.4-0.2-1.8-0.7s-0.5-1.1-0.4-1.9c0.2-1.5,1.5-2.6,3-2.6
			c0.8,0,1.4,0.2,1.8,0.7C-73.6-10.8-73.4-10.2-73.5-9.4 M-69.8-14.6h-2.7c-0.2,0-0.4,0.2-0.5,0.4l-0.1,0.7l-0.2-0.3
			c-0.6-0.8-1.9-1.1-3.1-1.1c-2.9,0-5.4,2.2-5.9,5.3c-0.3,1.6,0.1,3,1,4.1c0.8,1,2,1.3,3.3,1.3c2.4,0,3.7-1.5,3.7-1.5L-74.4-5
			c0,0.3,0.2,0.5,0.5,0.5h2.4c0.4,0,0.7-0.3,0.8-0.6l1.4-9.1C-69.3-14.3-69.6-14.6-69.8-14.6"/>
	</g>
	<g transform="translate(104.0795,26.9523)">
		<path class="st0" d="M-64.9-21.8h-2.7c-0.3,0-0.5,0.1-0.6,0.3l-3.7,5.4l-1.6-5.2c-0.1-0.3-0.4-0.5-0.7-0.5h-2.6
			c-0.3,0-0.5,0.3-0.4,0.6l2.9,8.6L-77-8.7C-77.2-8.4-77-8-76.6-8h2.7c0.3,0,0.5-0.1,0.6-0.3l8.9-12.8
			C-64.3-21.4-64.5-21.8-64.9-21.8"/>
	</g>
	<g transform="translate(143.996,33.5807)">
		<path class="st0" d="M-76.3-33.2l-2.3,14.5c0,0.3,0.2,0.5,0.5,0.5h2.3c0.4,0,0.7-0.3,0.8-0.6l2.2-14.2c0-0.3-0.2-0.5-0.5-0.5h-2.6
			C-76-33.6-76.2-33.4-76.3-33.2"/>
	</g>
</g>
<path class="st0" d="M76.5,9.1c0.1-0.3,0.3-0.4,0.6-0.4c3.7,0,7.4,0,11.1,0c2.6,0,5.3,0,7.9,0c0.1,0,0.1,0,0.2,0c0,0,0,0,0-0.1
	c-0.1-0.1-0.2-0.1-0.2-0.2c-1.2-1.2-2.5-2.5-3.7-3.7C92.1,4.4,92,4.2,92.2,4c0.2-0.2,0.4-0.2,0.7-0.1C92.9,3.9,93,4,93.1,4.1
	c1.5,1.5,3,3,4.6,4.6c0.1,0.1,0.2,0.3,0.3,0.4c0,0.1,0,0.2,0,0.3c-0.1,0.1-0.2,0.3-0.3,0.4c-1.5,1.6-3.1,3.1-4.7,4.7
	c-0.2,0.2-0.5,0.3-0.7,0.1c-0.2-0.2-0.2-0.4-0.1-0.6c0.1-0.1,0.1-0.2,0.2-0.2c1.2-1.2,2.5-2.5,3.7-3.7c0.1-0.1,0.1-0.1,0.2-0.2
	c-0.1,0-0.2,0-0.3,0c-6.3,0-12.5,0-18.8,0c-0.3,0-0.5-0.1-0.7-0.4C76.5,9.2,76.5,9.2,76.5,9.1z"/>
</svg>
